<svg width="132" height="98" viewBox="0 0 132 98" fill="none" xmlns="http://www.w3.org/2000/svg">
<g clip-path="url(#clip0_102_84)">
<path d="M54.8663 80.4526H52.3318L52.7342 79.9901V75.0089L52.3318 74.5464H54.8663L54.4639 75.0089V79.9901L54.8663 80.4526ZM60.5829 76.3502C60.5921 75.5501 60.3054 75.1245 59.7642 75.1245C59.2139 75.1245 58.4923 75.3419 58.4923 75.3419L58.09 75.7998V74.5649C58.0992 74.5649 59.2878 74.1672 60.3239 74.1672C61.5772 74.181 62.4976 75.0043 62.4976 76.1189C62.4976 76.9329 61.9334 77.5018 60.8835 78.08C62.1693 78.6627 62.5809 79.412 62.5809 80.337C62.5809 81.78 61.1887 82.9547 59.718 82.9547C59.1861 82.9547 58.0853 82.7512 58.0853 82.7512V81.4562L58.4877 81.9049C58.4877 81.9049 59.1769 81.9881 59.4636 81.9881C60.014 81.9881 60.6522 81.262 60.6522 80.3555C60.6522 79.6293 60.1435 78.6211 59.0612 78.6211V77.7978C60.0232 77.7932 60.5829 76.9468 60.5829 76.3502ZM68.4269 80.2075V82.8114H70.1567V80.2075H71.8865V78.7275H70.1567V73.811L64.565 80.2075H68.4269ZM68.4269 76.9422V78.7275H66.8683L68.4269 76.9422ZM74.3377 77.4694C74.3377 80.0641 75.8316 80.9475 77.3671 80.9475C78.2551 80.9475 80.3965 79.7681 80.3965 77.4694C80.3965 74.7037 78.7963 74.1117 77.381 74.1117C76.5346 74.1163 74.3377 75.1292 74.3377 77.4694ZM77.3625 79.8745C76.5208 79.8745 75.8177 78.8986 75.8177 77.5203C75.827 75.7674 76.7428 75.1801 77.3764 75.1801C78.3338 75.1801 78.8934 76.0634 78.8934 77.4787C78.8934 79.2038 78.0146 79.8745 77.3625 79.8745ZM76.9879 19.9894C76.9879 21.2798 76.7289 23.2825 74.3794 24.7255C72.5525 25.8447 66.4659 29.5864 66.4659 29.5864C66.4659 29.5864 60.384 25.8447 58.5571 24.7255C56.2076 23.2871 55.9486 21.2844 55.9439 19.9894V4.9673H61.5402L61.8548 5.76743H56.7441V19.9894C56.7441 21.2382 56.9985 22.8292 58.9733 24.041C60.4996 24.9752 65.0599 27.778 66.4659 28.6429C67.8719 27.778 72.4322 24.9752 73.9585 24.041C75.9334 22.8292 76.1878 21.2382 76.1878 19.9894V5.76743H71.0493L71.3638 4.9673H76.9833C76.9879 4.9673 76.9879 15.554 76.9879 19.9894ZM66.4659 26.9177C66.4659 26.9177 66.8914 26.6032 66.9284 26.3165C66.9654 26.0297 66.9423 25.9927 66.9423 25.9927C66.9423 25.9927 67.377 26.2147 67.5944 26.0344C67.5944 26.0344 67.2059 25.7939 67.2059 25.2944C67.2059 25.2944 67.5574 25.4609 67.7471 25.1741C67.7471 25.1741 67.4695 25.1787 67.3724 24.8226C67.2707 24.4618 67.2892 24.2861 67.118 24.0733C66.9469 23.8606 66.6925 23.8606 66.6925 23.8606H66.2439C66.2439 23.8606 65.9895 23.8606 65.8184 24.0733C65.6427 24.2861 65.6658 24.4618 65.564 24.8226C65.4623 25.1787 65.1848 25.1741 65.1848 25.1741C65.379 25.4655 65.7305 25.2944 65.7305 25.2944C65.7305 25.7939 65.342 26.0344 65.342 26.0344C65.5594 26.2147 65.9895 25.9927 65.9895 25.9927C65.9895 25.9927 65.9618 26.0297 66.0034 26.3165C66.0404 26.6032 66.4659 26.9177 66.4659 26.9177ZM63.8389 24.2306C63.9961 24.2352 64.2181 24.4063 64.2089 24.5821C64.1996 24.7393 64.0748 24.8411 63.9036 24.8411C63.7973 24.8411 63.4273 24.7717 63.4134 24.337C63.4041 24.1288 63.4504 23.9716 63.529 23.8513H63.0758C63.048 23.9623 63.0295 24.078 63.0295 24.2075C63.0249 24.9244 63.5013 25.1926 63.899 25.1926C64.454 25.1926 64.7639 24.7023 64.5835 24.2815C64.4263 23.9115 64.0331 23.8883 63.8389 24.2306ZM68.3437 24.2815C68.1633 24.6977 68.4732 25.1926 69.0282 25.1926C69.4259 25.1926 69.9069 24.9244 69.9023 24.2075C69.9023 24.078 69.8838 23.9577 69.8561 23.8513H69.4028C69.4814 23.9716 69.5277 24.1288 69.5184 24.337C69.5046 24.7717 69.1299 24.8411 69.0282 24.8411C68.8571 24.8411 68.7322 24.7393 68.7229 24.5821C68.7137 24.4063 68.9357 24.2352 69.0929 24.2306C68.8941 23.8883 68.5009 23.9115 68.3437 24.2815ZM60.1666 18.4493L59.2462 20.5259L57.9096 17.2052L57.7153 17.0202H58.9826L58.7976 17.2052L59.5284 19.0367L60.4534 16.96L61.2905 19.0413L62.1045 17.2052L61.9149 17.0202H62.6641L62.4791 17.2052L61.0037 20.5259L60.1666 18.4493ZM64.6066 20.2762L64.8009 20.4704H63.5938L63.788 20.2762V18.7499L62.7058 17.2098L62.5161 17.0248H63.9083L63.7233 17.2098L64.4078 18.1857L65.0877 17.2098L64.8934 17.0248H65.6889L65.4993 17.2098L64.6066 18.4909V20.2762ZM66.341 17.2052L66.1514 17.0202H67.3585L67.1689 17.2052V20.1236H68.3899L68.5796 19.9293V20.4658H66.1514L66.341 20.2716V17.2052ZM69.9763 18.8563V20.2762L70.166 20.4704H68.9588L69.1484 20.2762V17.219L68.9496 17.0202L70.425 17.0155C71.1835 17.0109 71.683 17.3624 71.683 17.8989C71.683 18.3429 71.2852 18.5788 70.98 18.6944L72.0437 20.2762L72.2333 20.4704H71.1788L70.0919 18.8609H69.9763V18.8563ZM69.9763 18.5187H70.2076C70.5128 18.5187 70.7672 18.3938 70.7672 17.9313C70.7672 17.4549 70.536 17.367 70.2353 17.367H69.9763V18.5187ZM72.5895 20.4658L72.7837 20.2716V17.2052L72.5895 17.0202H75.1332V17.5474L74.9482 17.3624H73.607V18.551H74.6892L74.8835 18.3614V19.0875L74.6892 18.8933H73.607V20.1236H75.0222L75.2165 19.9293V20.4658H72.5895ZM60.3932 21.3584L60.2961 21.2613H60.9159L60.8187 21.3584V22.857H61.4431L61.5449 22.7598V23.0327H60.2961L60.3932 22.9356V21.3584ZM62.5485 23.0373H61.9241L62.0213 22.9402V21.3631L61.9241 21.2659H62.5439L62.4468 21.3631V22.9402L62.5485 23.0373ZM63.9175 23.0697L63.2423 21.6267V22.9402L63.3394 23.0373H62.9648L63.0619 22.9402V21.3631L62.9648 21.2659H63.5429L64.0285 22.3066L64.454 21.2659H65.0229L64.9212 21.3631V22.9402L65.0229 23.0373H64.4031L64.5003 22.9402V21.6267L63.9175 23.0697ZM66.1514 21.2659C66.4983 21.2659 66.8035 21.3816 66.8035 21.7099C66.8035 21.9782 66.563 22.0984 66.3919 22.117L66.341 22.1216L66.4104 22.1262C66.563 22.1355 66.8822 22.1586 66.8822 22.5656C66.8822 22.9217 66.4289 23.0373 66.1329 23.0373H65.4114L65.5085 22.9402V21.3631L65.4114 21.2659H66.1514ZM65.934 22.0522H66.0497C66.2069 22.0522 66.3272 21.9782 66.3272 21.7423C66.3272 21.4926 66.2069 21.4417 66.0635 21.4417H65.9294V22.0522H65.934ZM66.4058 22.5425C66.4058 22.2835 66.2393 22.2326 66.0774 22.2326H65.9294V22.8616H66.0867C66.2578 22.8616 66.4058 22.8153 66.4058 22.5425ZM67.2845 21.3584L67.1874 21.2613H67.8072L67.71 21.3584V22.3991C67.71 22.6581 67.8997 22.857 68.1448 22.857C68.3899 22.857 68.5611 22.6396 68.5611 22.3806V21.3584L68.4639 21.2613H68.8339L68.7368 21.3584L68.7322 22.3667C68.7322 22.7228 68.5287 23.0651 68.0708 23.0651C67.5574 23.0651 67.2845 22.7691 67.2845 22.3991V21.3584ZM69.6618 22.2048V22.9356L69.7589 23.0327H69.1392L69.2363 22.9356V21.3631L69.1346 21.2613H69.8931C70.2862 21.2567 70.5406 21.4417 70.5406 21.7146C70.5406 21.9458 70.3371 22.0661 70.1845 22.1216L70.7302 22.9356L70.8273 23.0327H70.2862L69.7266 22.2048H69.6618ZM69.6618 22.0337H69.7774C69.9393 22.0337 70.0688 21.969 70.0688 21.7331C70.0688 21.4879 69.9486 21.4417 69.7959 21.4417H69.6618V22.0337ZM71.9743 23.0697C71.3361 23.0697 70.9707 22.7876 70.9707 22.1447C70.9707 21.6313 71.424 21.2336 72.0206 21.2289C72.3998 21.2289 72.4276 21.2752 72.5802 21.2983V21.5851L72.4831 21.4879C72.386 21.4741 72.2287 21.4371 72.0206 21.4371C71.6275 21.4371 71.4471 21.7654 71.4471 22.1401C71.4471 22.561 71.6783 22.857 71.9928 22.857C72.053 22.857 72.1085 22.8477 72.1593 22.8477V22.3251L72.0622 22.228H72.6773L72.5802 22.3251V22.9633C72.4091 23.0142 72.3166 23.0697 71.9743 23.0697ZM57.7616 16.2524L57.8448 16.1691V14.8973L57.7616 14.8186H58.7976V15.036L58.719 14.962H58.1871V15.4569H58.6126L58.6866 15.3783V15.6835L58.6126 15.6049H58.1871V16.1738L58.2657 16.257H57.7616V16.2524ZM59.5792 16.2524H59.0751L59.1537 16.1691V14.8973L59.0751 14.8186H59.5792L59.5006 14.8973V16.1691L59.5792 16.2524ZM60.3192 15.5818V16.1691L60.4025 16.2524H59.8984L59.977 16.1691V14.9019L59.8937 14.8186H60.5089C60.8234 14.8186 61.0315 14.962 61.0315 15.1886C61.0315 15.3736 60.865 15.4708 60.7401 15.517L61.1841 16.1738L61.2627 16.257H60.8234L60.3747 15.5864H60.3192V15.5818ZM60.3192 15.443H60.4164C60.5459 15.443 60.6476 15.3921 60.6476 15.1979C60.6476 14.999 60.5505 14.962 60.4256 14.962H60.3146V15.443H60.3192ZM62.16 16.2801L61.6142 15.11V16.1691L61.6929 16.2524H61.3922L61.4709 16.1691V14.8973L61.3922 14.8186H61.8594L62.2525 15.6604L62.5948 14.8186H63.0573L62.9786 14.8973V16.1691L63.0573 16.2524H62.5531L62.6364 16.1691V15.11L62.16 16.2801ZM63.6215 15.7853L63.4273 16.1691L63.5059 16.2524H63.1914L63.27 16.1691L63.9453 14.7909L64.5928 16.1691L64.6714 16.2524H64.1349L64.2135 16.1691L64.0331 15.7853H63.6215ZM63.9638 15.6419L63.8296 15.3598L63.6909 15.6419H63.9638ZM65.5317 16.2524L65.6103 16.1691V14.8973L65.5317 14.8186H66.563V15.036L66.4844 14.962H65.9525V15.4569H66.378L66.452 15.3783V15.6835L66.378 15.6049H65.9525V16.1738L66.0312 16.257H65.5317V16.2524ZM68.3067 14.8186C68.5842 14.8186 68.8339 14.9111 68.8339 15.1748C68.8339 15.3921 68.6397 15.4939 68.4963 15.5031L68.4593 15.5078L68.5148 15.5124C68.6397 15.517 68.8987 15.5355 68.8987 15.8685C68.8987 16.1553 68.5287 16.2524 68.2928 16.2524H67.71L67.7933 16.1691V14.8973L67.71 14.8186H68.3067ZM68.1309 15.4615H68.2281C68.3529 15.4615 68.4547 15.406 68.4547 15.2118C68.4547 15.0083 68.3576 14.9666 68.2373 14.9666H68.1309V15.4615ZM68.5148 15.85C68.5148 15.6419 68.3853 15.6003 68.2466 15.6003H68.1309V16.109H68.2558C68.3946 16.109 68.5148 16.0766 68.5148 15.85ZM69.6017 15.5818V16.1691L69.6803 16.2524H69.1762L69.2594 16.1691V14.9019L69.1762 14.8186H69.7867C70.1012 14.8186 70.3139 14.962 70.3139 15.1886C70.3139 15.3736 70.1474 15.4708 70.0226 15.517L70.462 16.1738L70.5452 16.257H70.1012L69.6479 15.5864H69.6017V15.5818ZM69.6017 15.443H69.6988C69.8329 15.443 69.9347 15.3921 69.9347 15.1979C69.9347 14.999 69.8376 14.962 69.7127 14.962H69.6063V15.443H69.6017ZM70.943 15.7853L70.7533 16.1691L70.8366 16.2524H70.5175L70.5961 16.1691L71.2713 14.7909L71.9188 16.1691L71.9975 16.2524H71.461L71.5396 16.1691L71.3546 15.7853H70.943ZM71.2852 15.6419L71.1511 15.3598L71.0123 15.6419H71.2852ZM72.3351 16.1691L72.4183 16.2524H72.1177L72.1963 16.1691V14.8973L72.1177 14.8186H72.5525L73.1907 15.5771V14.8973L73.1121 14.8186H73.4127L73.3341 14.8973V16.2801L72.3351 15.0915V16.1691ZM74.4117 16.2524H73.7087L73.7874 16.1691V14.8973L73.7087 14.8186H74.4441C74.8372 14.8186 75.1795 15.0776 75.1795 15.5124C75.1795 15.9518 74.8234 16.2524 74.4117 16.2524ZM74.8002 15.5124C74.8002 15.1886 74.606 14.962 74.3192 14.962H74.1342V16.109H74.31C74.6846 16.109 74.8002 15.8038 74.8002 15.5124ZM66.6 15.9101C66.4983 15.9101 66.415 15.9934 66.415 16.0951C66.415 16.1969 66.4983 16.2801 66.6 16.2801C66.7018 16.2801 66.785 16.1969 66.785 16.0951C66.785 15.9934 66.7018 15.9101 66.6 15.9101ZM66.452 1.32276C66.5584 1.32276 66.6787 1.57714 66.6787 1.61877C66.6787 2.3449 66.6694 2.13677 66.6602 2.8629C66.6602 2.90453 66.5677 3.69541 66.5122 4.15329C67.4187 4.15792 68.2743 4.25042 69.0883 4.40304C69.1531 3.77404 69.3011 2.41427 69.3982 1.86852C69.4074 1.84077 69.5508 1.60027 69.6572 1.62339C69.7497 1.63727 69.8191 1.9194 69.8098 1.95177C69.6618 2.6594 69.6988 2.45128 69.5508 3.16816C69.5462 3.20516 69.3057 3.97291 69.1623 4.41692C69.9393 4.56029 70.6747 4.7453 71.3777 4.96267L72.1131 3.11728C72.4137 3.14041 72.6774 2.91378 72.7097 2.61778C72.7282 2.4189 72.6357 2.24315 72.5108 2.1229L72.9317 1.01751C72.9317 1.01751 72.6033 0.874136 72.2842 1.22564C72.1085 1.41064 72.2287 1.72977 72.2287 1.72977C72.2287 1.72977 71.6506 1.69277 71.4101 2.16915C71.1788 2.65015 71.6043 2.9554 71.3268 3.49191C71.0956 3.94516 70.758 3.91741 70.5406 3.86654C70.2261 3.78329 69.8561 3.38553 69.9763 3.08028C70.203 2.46053 70.4388 2.63628 70.573 2.18765C70.7672 1.52164 70.0411 1.28114 70.0411 1.28114C70.0411 1.28114 70.1798 1.16551 70.2307 0.906511C70.2585 0.71226 70.1659 0.457882 69.8884 0.383882C69.6063 0.296006 69.3889 0.397757 69.2872 0.615134C69.1531 0.892636 69.3057 1.12389 69.3057 1.12389C69.3057 1.12389 68.6489 1.00364 68.5102 1.66039C68.3714 2.32177 68.9079 2.4189 68.7507 2.95078C68.5981 3.52891 68.2003 3.51041 67.9783 3.46878C67.7378 3.42253 67.2799 3.26991 67.2799 2.79353C67.2799 2.22927 67.7193 2.32177 67.7193 1.65114C67.7286 0.980512 66.8174 0.906511 66.8174 0.906511C66.9238 0.809385 66.9885 0.675259 66.9885 0.513383C66.9885 0.22663 66.7295 -0.00924683 66.4474 -0.00924683C66.1653 -0.00924683 65.9063 0.22663 65.9063 0.513383C65.9063 0.675259 65.971 0.809385 66.0774 0.906511C66.0774 0.906511 65.1709 0.980512 65.1755 1.65114C65.1755 2.31715 65.6103 2.22927 65.6103 2.79353C65.6103 3.26528 65.1478 3.42253 64.9119 3.46878C64.6853 3.51041 64.2921 3.52891 64.1395 2.95078C63.9823 2.4189 64.5188 2.32177 64.38 1.66039C64.2366 1.00364 63.5845 1.12389 63.5845 1.12389C63.5845 1.12389 63.7371 0.892636 63.603 0.615134C63.5013 0.397757 63.2839 0.296006 63.0018 0.383882C62.7196 0.457882 62.6318 0.71226 62.6595 0.906511C62.715 1.16551 62.8491 1.28114 62.8491 1.28114C62.8491 1.28114 62.1276 1.52164 62.3173 2.18765C62.456 2.63165 62.6919 2.4559 62.9139 3.08028C63.0341 3.38553 62.6641 3.78329 62.3496 3.86654C62.1323 3.91741 61.7946 3.94516 61.5634 3.49191C61.2859 2.9554 61.7067 2.65015 61.4801 2.16915C61.235 1.69739 60.6615 1.72977 60.6615 1.72977C60.6615 1.72977 60.7817 1.41064 60.6106 1.22564C60.2915 0.869511 59.9631 1.01751 59.9631 1.01751L60.384 2.1229C60.2591 2.24315 60.1666 2.4189 60.1851 2.61778C60.2175 2.91378 60.4811 3.14041 60.7817 3.11728L61.5171 4.96267C62.2155 4.74992 62.9555 4.56029 63.7325 4.41692C63.5891 3.97291 63.3486 3.20053 63.344 3.16816C63.196 2.45128 63.233 2.6594 63.085 1.95177C63.0758 1.9194 63.1451 1.63727 63.2376 1.62339C63.3394 1.60027 63.4874 1.84077 63.4966 1.86852C63.5938 2.41427 63.7418 3.77404 63.8065 4.40304C64.6159 4.25042 65.4715 4.15792 66.3827 4.15329C66.3272 3.69541 66.2347 2.90453 66.2347 2.8629C66.2254 2.13677 66.2162 2.3449 66.2162 1.61877C66.2254 1.58177 66.3457 1.32276 66.452 1.32276ZM69.9439 8.32045C69.9809 8.34358 70.5128 8.55171 70.7163 8.57483C70.9198 8.59796 71.239 8.60721 71.4008 8.5702C71.5627 8.52395 71.9743 8.30195 72.2611 8.03832C72.4831 7.83945 72.6588 7.78395 72.7513 7.78857C72.8392 7.7932 72.8577 7.80245 72.9132 7.82095C72.9687 7.83482 72.9502 7.78857 72.9363 7.7562C72.9178 7.72845 72.7791 7.46019 72.349 7.46019C72.0345 7.46019 71.7477 7.6452 71.6228 7.77007C71.4656 7.9227 71.2806 8.2002 70.795 8.2557C70.3139 8.30658 70.0226 8.20483 69.9625 8.17708C69.9023 8.15858 69.8561 8.26495 69.9439 8.32045ZM62.9971 8.36208C62.974 8.39445 62.4098 8.55171 62.2063 8.57483C62.0028 8.59796 61.6836 8.60721 61.5217 8.5702C61.3599 8.52395 60.9482 8.30195 60.6615 8.03832C60.4395 7.83945 60.2637 7.78395 60.1712 7.78857C60.088 7.7932 60.0649 7.80245 60.0094 7.82095C59.9539 7.83482 59.9724 7.78857 59.9862 7.7562C60.0001 7.72845 60.1435 7.46019 60.5736 7.46019C60.8881 7.46019 61.1749 7.6452 61.2997 7.77007C61.457 7.9227 61.6374 8.2002 62.123 8.2557C62.6086 8.30658 62.9093 8.20483 62.974 8.17708C63.0711 8.1447 63.0573 8.28345 62.9971 8.36208ZM64.787 12.9547C64.5188 12.9547 64.0516 13.1629 64.0331 13.6994H65.6658C65.6427 13.6485 65.6195 13.5976 65.5918 13.5514C65.3467 13.1259 65.0414 12.9547 64.787 12.9547ZM68.1356 12.9547C67.8812 12.9547 67.5759 13.1259 67.3262 13.5514C67.2984 13.5976 67.2753 13.6485 67.2522 13.6994H68.8848C68.8709 13.1629 68.4038 12.9547 68.1356 12.9547ZM66.8498 12.0344C66.7295 11.9326 66.4937 11.7152 66.4613 11.6366C66.4289 11.7152 66.193 11.9372 66.0728 12.0344C65.9525 12.1361 65.7259 12.3674 65.7444 12.6911C65.7768 13.2554 65.9618 13.3294 66.0774 13.704H66.8405C66.9562 13.3294 67.1412 13.26 67.1782 12.6911C67.1967 12.3627 66.97 12.1315 66.8498 12.0344ZM71.054 7.69145C70.8597 7.32607 70.4758 7.37232 70.4758 7.37232C70.4573 7.41394 70.4573 7.59895 70.3324 7.72845C70.2029 7.86257 69.8422 8.00132 69.4259 8.00595C69.1438 8.01057 69.0097 8.12158 69.0189 8.2927C69.0236 8.38058 69.0652 8.51008 69.3149 8.56558C69.5647 8.61646 69.7682 8.58871 69.7682 8.58871L69.9116 8.83383H70.6285C70.6608 8.83383 70.6562 8.80146 70.6285 8.78758C70.6007 8.77371 69.8977 8.42683 69.8792 8.41295C69.7173 8.28808 69.7774 8.13545 69.8422 8.06145C69.8931 8.00132 70.1983 7.96895 70.5036 7.9597C70.8828 7.94582 70.9245 8.06145 70.9846 8.11233C71.0077 8.13545 71.0401 8.15395 71.0632 8.09845C71.0863 8.05683 71.1187 7.81632 71.054 7.69145ZM69.6711 8.2557C69.6526 8.28345 69.6433 8.3297 69.6433 8.3297H69.3288V8.15858C69.3288 8.15858 69.3889 8.13083 69.5184 8.13083C69.6479 8.13083 69.7266 8.15858 69.7266 8.15858C69.7266 8.15858 69.6849 8.2187 69.6711 8.2557ZM63.492 8.01057C63.0804 8.00595 62.7196 7.86257 62.5901 7.73307C62.4606 7.60357 62.4653 7.41394 62.4421 7.37694C62.4421 7.37694 62.0582 7.32607 61.864 7.69607C61.7992 7.82095 61.8316 8.06145 61.8548 8.11233C61.8779 8.1632 61.9056 8.1447 61.9334 8.1262C61.9935 8.07533 62.0305 7.9597 62.4144 7.97357C62.7196 7.98282 63.0341 8.00595 63.0758 8.07533C63.1359 8.1817 63.159 8.31583 63.0388 8.42683C63.0203 8.44533 62.3173 8.79221 62.2895 8.80146C62.2617 8.81071 62.2571 8.84771 62.2895 8.84771H63.0064L63.1498 8.60258C63.1498 8.60258 63.3533 8.63033 63.603 8.57945C63.8481 8.52395 63.8944 8.39445 63.899 8.30658C63.9083 8.1262 63.7741 8.0152 63.492 8.01057ZM63.5891 8.3297H63.2746C63.2746 8.3297 63.2654 8.28345 63.2515 8.2557C63.233 8.2187 63.1914 8.15858 63.1914 8.15858C63.1914 8.15858 63.27 8.13083 63.3995 8.13083C63.529 8.13083 63.5891 8.15858 63.5891 8.15858V8.3297ZM74.9436 12.6079C74.9436 12.6079 74.7771 12.9732 73.7134 13.001C72.9595 13.0241 72.4091 12.5894 72.4091 12.5894C72.4091 12.5894 72.4415 12.5154 72.4553 12.4784C72.4738 12.4367 72.5432 12.2471 72.5432 12.2471C72.5432 12.2471 73.1722 12.5894 73.7874 12.5847C74.9667 12.5755 74.6661 11.9002 74.6661 11.9002C75.7299 11.2851 74.9529 10.7162 74.9529 10.7162C74.2684 11.6829 72.7467 11.6135 72.6773 11.4932C72.6773 11.4932 72.6773 11.4239 72.682 11.3822C72.682 11.3406 72.6773 11.1417 72.6773 11.1417C73.0335 11.1279 73.2647 11.114 73.5052 11.0677C75.1055 10.7486 74.6106 9.96234 74.6106 9.96234C75.7067 9.03271 74.9852 8.5147 74.9852 8.5147C74.458 9.69872 72.5062 10.2537 72.5062 10.2537L72.4507 10.1196C72.4322 10.0641 72.3582 9.88372 72.3582 9.88372C72.8253 9.69872 73.1722 9.55996 73.4775 9.39346C75.3367 8.38058 74.5366 7.65907 74.5366 7.65907C75.7114 6.31781 74.9806 5.98481 74.9806 5.98481C73.9585 7.7192 71.7893 9.34721 71.7893 9.34721C71.7893 9.34721 71.7338 9.34721 71.6922 9.36109C71.3823 9.44434 70.5082 10.0733 70.5221 10.6885C70.5313 11.2712 71.0077 11.0909 71.0262 11.5302C71.0355 11.6274 71.0817 11.7754 70.6747 12.1454C70.3001 12.483 69.7774 12.483 69.6063 12.4552V11.003H68.1494C68.1356 10.3416 68.3899 9.86522 68.7553 9.38421C69.1253 8.89858 69.5369 8.89858 69.5647 8.89396C69.6063 8.88933 69.5878 8.84771 69.5786 8.83383C69.5647 8.81996 69.5138 8.80146 69.4167 8.79221C69.3334 8.78296 69.3334 8.82921 69.0929 8.74596C68.8339 8.65346 68.7599 8.48233 68.7599 8.26495C68.7599 8.04758 68.8848 7.91807 69.1207 7.83482C69.3612 7.75157 69.5323 7.7932 69.8283 7.72845C70.1243 7.6637 70.2214 7.4602 70.2399 7.40007C70.2538 7.33994 70.2353 7.25207 70.2353 7.25207C69.9763 6.94682 69.7451 6.94682 69.3936 6.93757C69.0374 6.93294 68.6998 7.02544 68.4732 7.06244C68.2466 7.09482 68.1679 7.09482 67.9552 7.06707C67.7378 7.03932 67.5251 6.94219 67.5251 6.94219C67.5251 6.94219 67.6222 7.10407 67.5898 7.27519C67.5574 7.44169 67.2337 7.63595 67.2337 7.63595C67.4048 7.66832 67.4372 7.82557 67.3863 7.95507C67.34 8.08458 67.1273 8.3112 67.1273 8.3112C67.1273 8.3112 67.2198 8.36208 67.2568 8.3852C67.2938 8.40833 67.3169 8.51933 67.2383 8.64421C66.7018 9.45821 66.4752 10.6607 66.4752 10.6607C66.4752 10.6607 66.2439 9.45821 65.712 8.64421C65.6334 8.51933 65.6519 8.40833 65.6935 8.3852C65.7305 8.36208 65.823 8.3112 65.823 8.3112C65.823 8.3112 65.6103 8.08458 65.564 7.95507C65.5132 7.82557 65.5455 7.66832 65.7167 7.63595C65.7167 7.63595 65.3929 7.44169 65.3605 7.27519C65.3282 7.10407 65.4253 6.94219 65.4253 6.94219C65.4253 6.94219 65.2125 7.03932 64.9952 7.06707C64.7824 7.09482 64.6991 7.09482 64.4725 7.06244C64.2459 7.03007 63.9083 6.93294 63.5521 6.93757C63.196 6.94219 62.9648 6.94682 62.7058 7.25207C62.7058 7.25207 62.6826 7.33532 62.7011 7.40007C62.715 7.4602 62.8168 7.6637 63.1081 7.72845C63.4041 7.79782 63.5799 7.75157 63.8158 7.83482C64.0563 7.91807 64.1765 8.04758 64.1765 8.26495C64.1765 8.48233 64.1071 8.65346 63.8435 8.74596C63.6076 8.82921 63.6076 8.78296 63.5244 8.79221C63.4273 8.80146 63.3718 8.81996 63.3579 8.83383C63.344 8.84771 63.3301 8.88933 63.3718 8.89396C63.3995 8.89858 63.8111 8.89396 64.1811 9.38421C64.5465 9.86522 64.8055 10.3416 64.787 11.003H63.3348V12.4552C63.1636 12.483 62.641 12.483 62.2664 12.1454C61.8548 11.7754 61.9056 11.6274 61.9102 11.5302C61.9288 11.0909 62.4051 11.2712 62.4144 10.6885C62.4236 10.0733 61.5541 9.44434 61.2396 9.36109C61.198 9.34721 61.1425 9.34721 61.1425 9.34721C61.1425 9.34721 58.9733 7.7192 57.9512 5.98481C57.9512 5.98481 57.2251 6.31781 58.3952 7.65907C58.3952 7.65907 57.5997 8.38058 59.4544 9.39346C59.7596 9.55996 60.1065 9.70334 60.5736 9.88372L60.4811 10.1196C60.4626 10.1751 60.4302 10.2537 60.4302 10.2537C60.4302 10.2537 58.4785 9.69872 57.9512 8.5147C57.9512 8.5147 57.2297 9.03271 58.3258 9.96234C58.3258 9.96234 57.831 10.7532 59.4312 11.0677C59.6764 11.114 59.903 11.1325 60.2637 11.1417C60.2637 11.1417 60.2545 11.3406 60.2545 11.3822C60.2545 11.4239 60.2591 11.4932 60.2591 11.4932C60.1944 11.6135 58.6681 11.6829 57.9882 10.7162C57.9882 10.7162 57.2112 11.2805 58.275 11.9002C58.275 11.9002 57.9697 12.5755 59.1537 12.5847C59.7689 12.5894 60.3979 12.2471 60.3979 12.2471C60.3979 12.2471 60.4672 12.4414 60.4857 12.4784C60.4996 12.5154 60.532 12.5894 60.532 12.5894C60.532 12.5894 59.977 13.0241 59.2231 13.001C58.1593 12.9686 57.9928 12.6079 57.9928 12.6079C57.7153 12.816 57.5396 13.6994 58.5062 13.6994H63.5845V11.2574H69.3566V13.6994H74.4302C75.3969 13.6994 75.2211 12.816 74.9436 12.6079ZM69.0374 7.28444C69.0374 7.28444 69.1531 7.25207 69.3011 7.25207C69.4491 7.25207 69.5138 7.28444 69.5138 7.28444C69.5138 7.28444 69.5924 7.59895 69.2779 7.59895C68.9681 7.59895 69.0374 7.28444 69.0374 7.28444ZM63.6585 7.59895C63.3486 7.59895 63.4226 7.28444 63.4226 7.28444C63.4226 7.28444 63.4874 7.25207 63.6354 7.25207C63.788 7.25207 63.899 7.28444 63.899 7.28444C63.899 7.28444 63.9684 7.59895 63.6585 7.59895ZM54.6906 12.2101C54.6906 12.2101 53.7054 12.2795 52.8359 12.6865C52.23 12.9732 51.6519 13.5421 51.6519 13.5421L51.2218 13.5051C51.2218 13.5051 51.8277 12.7004 52.7943 12.3119C53.9922 11.8355 54.6906 11.7522 54.6906 11.7522V10.3323L53.9089 9.65709C53.9089 9.65709 53.044 9.83747 52.1699 9.77734C51.0322 9.70334 50.5373 9.36109 50.5373 9.36109L50.7916 9.18996C50.7916 9.18996 51.4345 9.43509 52.304 9.43509C52.9192 9.43509 53.5019 9.25009 53.5019 9.25009C53.5019 9.25009 52.9145 8.74133 52.4382 8.39908C51.5918 7.79782 50.8795 7.40932 50.8795 7.40932L50.7731 7.10407C50.7731 7.10407 51.4484 7.37232 52.0635 7.7377C52.5815 8.04757 53.1735 8.45458 53.1735 8.45458C53.1735 8.45458 53.3447 8.08458 53.1227 7.32607C52.9562 6.75719 52.4012 6.04956 52.4012 6.04956L52.8775 6.10043C52.8775 6.10043 53.3493 6.68781 53.6222 7.29369C54.0431 8.2187 53.7887 8.75058 53.7887 8.75058C53.7887 8.75058 53.9552 8.90783 54.2234 9.10671C54.4917 9.30096 54.6906 9.49521 54.6906 9.49521V5.1523C54.6906 5.1523 53.8488 4.66205 52.8914 4.53717C51.7259 4.38454 50.9165 4.66667 50.9165 4.66667L51.6057 5.70268C51.6057 5.70268 50.5419 5.65643 49.6076 6.10506C48.6364 6.57219 48.5208 7.11332 48.5208 7.11332L50.1025 8.08458L48.6364 9.05583C48.6364 9.05583 49.4273 10.0317 50.565 10.6977C51.2634 11.1047 52.3688 11.3915 52.3688 11.3915C52.3688 11.3915 51.6288 11.5626 51.0229 11.9326C48.9648 13.1952 49.0203 14.2498 49.0203 14.2498H54.6906V12.2101ZM51.3235 22.2372C51.3235 22.2372 51.7953 23.2778 52.5677 23.486C53.414 23.708 54.4824 23.3888 54.4824 23.3888L54.3344 23.1391C54.3344 23.1391 53.6592 23.2223 53.1042 23.0188C52.5353 22.8107 52.4844 22.3482 52.4844 22.3482C52.4844 22.3482 52.9192 22.2511 53.5297 22.413C53.9968 22.5378 54.2188 22.6488 54.2188 22.6488C54.2188 22.6488 54.0569 22.1956 53.1458 22.0615C52.4983 21.969 51.3235 22.2372 51.3235 22.2372ZM52.2254 24.3138C52.2254 24.3138 53.5389 25.632 54.2974 25.7939C55.2224 25.9881 56.1289 25.336 56.1289 25.336L55.8422 25.1001C55.8422 25.1001 55.1346 25.2805 54.5009 25.1001C53.8488 24.9151 53.5297 24.4017 53.5297 24.4017C53.5297 24.4017 53.9783 24.2676 54.6443 24.3971C55.1531 24.4942 55.4213 24.6006 55.4213 24.6006C55.4213 24.6006 55.1716 24.0271 54.2281 23.9577C53.8997 23.9392 52.2254 24.3138 52.2254 24.3138ZM54.0754 26.5616C54.0754 26.5616 56.0827 27.6901 56.906 27.741C57.905 27.8058 58.3628 27.1027 58.3628 27.1027L58.0206 26.8437C58.0206 26.8437 57.5026 27.1166 56.7996 27.0287C56.0734 26.9362 55.5323 26.4414 55.5323 26.4414C55.5323 26.4414 55.8607 26.2841 56.5776 26.3165C57.1233 26.3442 57.4332 26.409 57.4332 26.409C57.4332 26.409 56.943 25.8309 55.9902 25.8956C55.6572 25.9187 54.6952 26.4321 54.0754 26.5616ZM56.0179 28.6429C56.0179 28.6429 57.5396 29.8269 58.9595 29.7066C59.9909 29.6188 60.3655 28.7493 60.3655 28.7493L60.0325 28.4995C60.0325 28.4995 59.5191 28.8926 58.7837 28.9065C58.0298 28.9204 57.4193 28.444 57.4193 28.444C57.4193 28.444 57.5905 28.3238 58.3258 28.2498C58.8855 28.1943 59.5006 28.1249 59.5006 28.1249C59.5006 28.1249 59.0566 27.593 58.09 27.815C57.7477 27.8936 56.1613 28.6151 56.0179 28.6429ZM54.6721 20.8081C54.3298 21.2197 54.4547 22.5933 54.9264 23.4582C55.6479 24.781 56.8273 25.743 58.8068 27.0657C60.3979 28.1295 61.3506 29.0684 62.0351 29.1979C62.715 29.3228 63.3394 29.0869 63.4411 29.0314C61.6235 27.9121 58.8808 26.2055 57.6783 25.4701C55.8931 24.3786 54.8802 22.82 54.6721 20.8081ZM51.1524 20.2299C51.1848 20.3733 51.2912 20.5814 51.3837 20.7063C51.7028 21.1272 51.8924 21.2844 52.4474 21.6683C52.8359 21.6359 53.3585 21.6128 53.7285 21.6868C53.7748 21.6961 53.8211 21.7053 53.8627 21.7192C53.3724 21.5296 52.7018 21.2567 52.3688 21.0162C51.7213 20.5491 51.3004 19.9062 51.2357 19.8461C51.157 19.7674 51.1154 19.7813 51.1154 19.8507C51.12 19.9016 51.0969 19.9941 51.1524 20.2299ZM54.6906 14.7863L52.6463 14.7909C51.3883 14.8048 50.6945 14.9851 50.1719 15.4245C49.6169 15.9055 49.4411 16.7519 49.3903 17.071L54.6906 14.8649V14.7863ZM52.1977 18.5279C52.082 18.3938 51.7629 17.9775 51.6658 17.5382C51.615 17.248 51.6422 16.9495 51.7444 16.6733L50.5095 17.2329C50.1996 17.3809 50.01 17.8018 50.047 18.2735C50.0886 18.773 50.2921 19.4021 50.3569 19.5824C50.5326 19.5686 51.0877 19.4946 51.6843 19.0367C52.0127 18.7823 52.1422 18.6065 52.1977 18.5279ZM52.6972 20.4011C53.1504 20.7433 53.8997 20.9792 54.1032 21.0439C54.1633 20.9422 54.3298 20.7202 54.6906 20.4519V18.3568C54.4269 18.4955 54.0986 18.6343 53.7517 18.6944C53.1967 18.7962 53.0302 18.8008 52.8498 18.773C52.7804 18.8748 52.5862 19.1199 52.4567 19.2448C52.23 19.4668 52.0265 19.5408 51.9063 19.5778C51.9988 19.7212 52.2532 20.0634 52.6972 20.4011ZM54.0107 17.8064C54.2697 17.7324 54.5009 17.6168 54.6906 17.5104V15.4291L52.6 16.3495C52.563 16.405 52.4428 16.6363 52.4058 17.0433C52.378 17.3485 52.5307 17.8018 52.6925 18.1163C52.822 18.1024 53.2522 18.033 54.0107 17.8064ZM78.2181 14.259H83.8885C83.8885 14.259 83.9486 13.2091 81.8858 11.9419C81.2799 11.5672 80.5399 11.4007 80.5399 11.4007C80.5399 11.4007 81.6407 11.114 82.3391 10.707C83.4768 10.0456 84.2631 9.06508 84.2631 9.06508L82.7969 8.09383L84.3787 7.12257C84.3787 7.12257 84.2631 6.58144 83.2918 6.11431C82.3622 5.66568 81.2984 5.71193 81.2984 5.71193L81.9829 4.67592C81.9829 4.67592 81.1735 4.39379 80.008 4.54642C79.0507 4.67592 78.2135 5.16155 78.2135 5.16155V9.50446C78.2135 9.50446 78.4078 9.31021 78.6806 9.11596C78.9535 8.92171 79.1154 8.75983 79.1154 8.75983C79.1154 8.75983 78.861 8.22795 79.2819 7.30294C79.5548 6.69706 80.0265 6.10968 80.0265 6.10968L80.5029 6.05881C80.5029 6.05881 79.9433 6.76644 79.7814 7.33532C79.564 8.09383 79.7305 8.46383 79.7305 8.46383C79.7305 8.46383 80.3225 8.0522 80.8405 7.74695C81.4557 7.38157 82.1309 7.11332 82.1309 7.11332L82.0246 7.41857C82.0246 7.41857 81.3123 7.80245 80.4659 8.40833C79.9895 8.75058 79.4022 9.25934 79.4022 9.25934C79.4022 9.25934 79.9895 9.44434 80.6 9.44434C81.4696 9.44434 82.1124 9.19921 82.1124 9.19921L82.3668 9.37034C82.3668 9.37034 81.8719 9.71259 80.7342 9.78659C79.86 9.84209 78.9952 9.66634 78.9952 9.66634L78.2135 10.3416V11.7615C78.2135 11.7615 78.9119 11.8401 80.1144 12.3211C81.081 12.705 81.6823 13.5144 81.6823 13.5144L81.2522 13.5514C81.2522 13.5514 80.674 12.9779 80.0682 12.6957C79.1987 12.2841 78.2135 12.2194 78.2135 12.2194V14.259H78.2181ZM79.7629 22.0615C78.8518 22.1956 78.6899 22.6488 78.6899 22.6488C78.6899 22.6488 78.9119 22.5425 79.379 22.413C79.9895 22.2465 80.4243 22.3482 80.4243 22.3482C80.4243 22.3482 80.3734 22.8107 79.8045 23.0188C79.2495 23.2223 78.5743 23.1391 78.5743 23.1391L78.4263 23.3888C78.4263 23.3888 79.4947 23.708 80.341 23.486C81.118 23.2825 81.5898 22.2372 81.5898 22.2372C81.5898 22.2372 80.4104 21.969 79.7629 22.0615ZM78.676 23.9623C77.7325 24.0271 77.4828 24.6052 77.4828 24.6052C77.4828 24.6052 77.751 24.4988 78.2598 24.4017C78.9304 24.2722 79.3744 24.4063 79.3744 24.4063C79.3744 24.4063 79.0553 24.9197 78.4032 25.1047C77.7695 25.2851 77.0619 25.1047 77.0619 25.1047L76.7751 25.3406C76.7751 25.3406 77.6816 25.9927 78.6067 25.7985C79.3652 25.6366 80.6833 24.3185 80.6833 24.3185C80.6833 24.3185 79.009 23.9392 78.676 23.9623ZM76.9185 25.8956C75.9657 25.8309 75.4755 26.409 75.4755 26.409C75.4755 26.409 75.79 26.3442 76.3358 26.3165C77.048 26.2795 77.381 26.4414 77.381 26.4414C77.381 26.4414 76.8399 26.9362 76.1137 27.0287C75.4061 27.1166 74.8927 26.8437 74.8927 26.8437L74.5505 27.1027C74.5505 27.1027 75.0084 27.8058 76.0074 27.741C76.826 27.6855 78.8379 26.5616 78.8379 26.5616C78.2135 26.4321 77.2561 25.9187 76.9185 25.8956ZM74.8187 27.815C73.8521 27.593 73.4081 28.1249 73.4081 28.1249C73.4081 28.1249 74.0232 28.1943 74.5829 28.2498C75.3182 28.3238 75.4894 28.444 75.4894 28.444C75.4894 28.444 74.8789 28.9204 74.125 28.9065C73.3896 28.8926 72.8762 28.4995 72.8762 28.4995L72.5432 28.7493C72.5432 28.7493 72.9225 29.6188 73.9492 29.7066C75.3737 29.8269 76.8908 28.6429 76.8908 28.6429C76.7474 28.6151 75.161 27.8936 74.8187 27.815ZM78.2366 20.8081C78.0285 22.8246 77.0156 24.3786 75.2396 25.4655C74.0371 26.2009 71.2945 27.9121 69.4768 29.0268C69.5786 29.0823 70.2029 29.3181 70.8828 29.1933C71.5627 29.0684 72.5155 28.1295 74.1065 27.0611C76.086 25.7384 77.2654 24.781 77.9869 23.4536C78.454 22.5933 78.5789 21.2197 78.2366 20.8081ZM81.7887 19.8507C81.7887 19.7813 81.7471 19.7674 81.6684 19.8461C81.6037 19.9108 81.1874 20.5491 80.5353 21.0162C80.2023 21.2567 79.5317 21.5296 79.0414 21.7192C79.0877 21.7053 79.1293 21.6961 79.1755 21.6868C79.5409 21.6128 80.0682 21.6313 80.4567 21.6683C81.0163 21.2844 81.2013 21.1272 81.5204 20.7063C81.6175 20.5814 81.7147 20.3733 81.7517 20.2299C81.8118 19.9941 81.7887 19.9016 81.7887 19.8507ZM78.2181 14.8649L83.5184 17.071C83.4676 16.7519 83.2918 15.9055 82.7368 15.4245C82.2142 14.9851 81.5204 14.8048 80.2624 14.7909L78.2181 14.7863V14.8649ZM81.2244 19.032C81.8211 19.4899 82.3807 19.5639 82.5518 19.5778C82.6166 19.3974 82.8247 18.7684 82.8617 18.2689C82.8987 17.7972 82.7091 17.3763 82.3992 17.2283L81.1643 16.6687C81.2337 16.8583 81.3077 17.1635 81.2429 17.5335C81.1458 17.9729 80.822 18.3892 80.711 18.5233C80.7665 18.6065 80.9007 18.7823 81.2244 19.032ZM81.0024 19.5732C80.8822 19.5362 80.6787 19.4622 80.452 19.2402C80.3225 19.1153 80.1237 18.8702 80.0589 18.7684C79.8832 18.8008 79.712 18.7915 79.157 18.6898C78.8148 18.625 78.4864 18.4863 78.2181 18.3522V20.4473C78.5835 20.7156 78.7454 20.9422 78.8102 21.0393C79.0137 20.9792 79.7629 20.7387 80.2115 20.3964C80.6555 20.0634 80.9053 19.7212 81.0024 19.5732ZM80.2254 18.1163C80.3873 17.8064 80.5353 17.3532 80.5122 17.0433C80.4752 16.6363 80.3549 16.405 80.3179 16.3495L78.2228 15.4291V17.5104C78.4124 17.6168 78.6437 17.7324 78.9073 17.8064C79.6565 18.033 80.0913 18.1024 80.2254 18.1163ZM65.0969 30.3356C63.6493 30.0998 60.2961 31.3948 60.2961 31.3948C60.2961 31.3948 63.3163 30.8536 64.2505 30.8814C65.9572 30.9415 67.3771 31.6214 68.6258 31.5937C70.6793 31.5335 72.3073 30.1044 72.3073 30.1044C72.3073 30.1044 70.9661 31.034 68.7553 31.0155C67.4511 31.0063 66.526 30.5761 65.0969 30.3356ZM64.9397 31.7925C63.9314 31.6214 62.0398 32.5557 62.0398 32.5557C62.0398 32.5557 63.6909 32.2828 64.3384 32.3059C65.5409 32.3429 67.3724 32.8239 68.2419 32.8008C69.6803 32.7638 71.2575 31.7555 71.2575 31.7555C71.2575 31.7555 69.8884 32.3522 68.3391 32.3383C67.4233 32.329 65.9387 31.9544 64.9397 31.7925ZM65.2218 33.2402C64.5188 33.1245 63.3671 33.7304 63.3671 33.7304C63.3671 33.7304 64.3476 33.5362 64.8055 33.5547C65.6427 33.5778 67.1782 33.9154 67.7933 33.9016C68.7969 33.8738 69.8006 33.1708 69.8006 33.1708C69.8006 33.1708 68.9357 33.5917 67.8534 33.5778C67.2059 33.5732 65.9248 33.3604 65.2218 33.2402Z" fill="#764F3E"/>
<path d="M32.5921 79.153C35.7278 78.3621 42.8088 76.8821 46.3238 76.3502C44.298 76.5074 39.4233 76.9144 31.7596 78.3806C31.7596 78.3806 32.1897 78.6257 32.5921 79.153ZM33.1563 81.5534C32.8649 81.9696 31.1999 82.9871 31.1999 82.9871C36.0516 81.7522 41.3103 80.5913 43.7014 80.078C40.0338 80.3277 33.1563 81.5534 33.1563 81.5534ZM5.08695 52.5173C4.52269 53.2481 3.0473 54.7651 3.0473 57.7853C3.0473 60.4585 4.85107 63.3723 6.42821 64.8801C7.41334 65.819 9.39286 67.6042 13.8745 69.889C16.5432 71.2256 19.2719 72.3033 20.2432 72.6779L20.271 72.6085C20.271 72.6085 16.4877 70.6706 14.0225 69.2877C11.5574 67.9049 8.75461 66.0317 7.06184 64.4407C5.36908 62.8451 1.77079 58.4004 4.56432 53.5857C4.11569 56.074 5.32745 57.6743 5.48933 57.8731C5.64658 58.072 6.82596 59.6677 9.23561 61.0459C11.6453 62.4288 12.45 62.9052 15.632 64.5101C18.8094 66.115 19.7761 66.7671 20.012 66.892L20.049 66.8226C20.049 66.8226 18.2729 65.449 15.8263 64.0522C13.4351 62.6739 9.53161 60.5002 9.53161 60.5002C9.53161 60.5002 6.88146 59.1913 5.71133 57.6234C4.53657 56.0416 4.44407 54.5015 5.08695 52.5173ZM20.7612 69.5329C25.3261 72.1368 27.0235 73.6168 29.8402 78.0013L29.4748 78.2603C26.2326 74.1255 23.2402 72.1645 20.1692 70.4995C17.2092 68.8946 17.3248 69.1999 12.9773 66.9752C8.45398 64.6581 8.22735 63.0578 8.0516 62.5861C11.9459 65.7635 18.4764 68.2332 20.7612 69.5329ZM8.13485 71.2025C8.13485 71.2025 11.8025 69.7687 15.1325 71.6003L15.1187 72.7519C15.1187 72.7519 14.4249 72.8074 12.8431 73.4503C12.8431 73.4503 14.4619 74.9257 14.6053 75.2633C13.8422 75.18 8.81011 74.8332 8.81011 74.8332C8.81011 74.8332 9.48074 77.7978 13.116 79.9346C13.116 79.9346 10.9006 79.6478 4.98982 77.3353C7.65385 80.5035 11.9413 81.558 13.56 81.8679C13.56 81.8679 12.4593 82.6356 12.1679 82.7512C11.8719 82.8669 11.488 82.557 10.4705 83.0842C13.0975 84.3376 17.8891 84.2636 21.2191 84.2544C21.2191 84.2544 19.0129 86.3958 16.5386 87.1635C14.0688 87.9313 12.265 87.9035 11.3169 87.3208L11.3493 86.5021C11.3493 86.5021 7.37172 85.6511 5.8547 83.778C7.25609 82.4182 8.76386 81.7476 8.76386 81.7476C8.76386 81.7476 8.15335 81.2805 7.11734 81.2944C7.11734 81.2944 6.22008 81.6227 5.66045 81.9742C3.64856 80.8966 0.873535 77.5851 0.873535 77.5851C0.873535 77.5851 2.98718 75.476 5.3182 74.1949C7.6446 72.9138 8.32448 72.8028 9.32349 72.9323C8.61123 71.7066 8.13485 71.2025 8.13485 71.2025ZM13.9023 76.1929C13.9023 76.1929 14.0919 76.5953 14.6145 76.6554C15.188 76.7202 16.0483 76.7202 16.2934 76.7017C17.8058 79.227 18.9158 80.1011 18.9158 80.1011C18.9158 80.1011 15.9327 80.781 14.0688 79.4027C12.4963 78.2326 11.1411 76.0033 11.1411 76.0033L13.9023 76.1929ZM19.3043 73.7047C20.0952 74.4863 22.5419 75.3095 23.2449 75.5778C22.3661 75.7443 20.6456 76.2114 20.6456 76.2114C20.9185 76.4057 21.8388 76.9052 23.0969 77.4741C22.602 78.9125 20.937 79.5831 20.937 79.5831C18.2452 78.4268 16.4599 73.996 16.4599 73.996C17.6856 73.9729 19.3043 73.7047 19.3043 73.7047ZM15.7939 82.3442C16.4507 82.1037 15.9789 82.261 17.1907 82.224C19.1332 82.1639 21.3717 81.5117 21.3717 81.5117C21.3717 81.5117 24.3179 81.632 26.8385 81.7152C26.2326 82.3396 23.49 83.149 23.49 83.149C18.0926 83.297 14.7302 82.8484 14.7302 82.8484C14.7302 82.8484 15.5858 82.4182 15.7939 82.3442ZM26.4223 79.1761L29.6783 79.4073L28.0364 80.7763L23.8184 80.6376C24.6555 80.2815 26.4223 79.1761 26.4223 79.1761ZM30.5663 78.2418C30.5663 78.2418 43.2805 75.7073 49.344 75.9339V76.2993C47.2535 76.5213 40.9403 77.5064 32.4626 79.5507C32.4626 79.5553 31.6856 78.5563 30.5663 78.2418ZM49.3255 77.3353V78.2834C49.3255 78.2834 43.4332 78.5147 40.1263 78.9587C40.1263 78.9541 44.0483 78.0198 49.3255 77.3353ZM46.9944 79.4906V79.8467C46.9944 79.8467 42.8319 80.4202 28.6469 83.9908C28.6469 83.9908 31.8844 82.2656 32.8048 81.447C32.8048 81.447 32.9759 81.2481 32.9852 81.2204C37.8322 80.3925 41.6109 79.7403 46.9944 79.4906ZM101.089 78.3806C93.4299 76.9098 88.5551 76.5028 86.5293 76.3502C90.049 76.8821 97.1299 78.3621 100.261 79.153C100.663 78.6257 101.089 78.3806 101.089 78.3806ZM89.1517 80.078C91.5428 80.5913 96.8061 81.7522 101.653 82.9871C101.653 82.9871 99.9836 81.9742 99.6968 81.5534C99.6968 81.5534 92.8147 80.3277 89.1517 80.078ZM127.146 57.6095C125.976 59.1774 123.322 60.4863 123.322 60.4863C123.322 60.4863 119.418 62.6601 117.027 64.0383C114.58 65.4397 112.8 66.8087 112.8 66.8087L112.837 66.8781C113.072 66.7532 114.039 66.1011 117.216 64.4962C120.398 62.8913 121.203 62.4149 123.613 61.032C126.023 59.6492 127.202 58.0581 127.359 57.8593C127.516 57.6604 128.733 56.0601 128.284 53.5719C131.078 58.3865 127.479 62.8312 125.787 64.4268C124.094 66.0225 121.291 67.891 118.826 69.2739C116.361 70.6614 112.578 72.5947 112.578 72.5947L112.605 72.664C113.577 72.2894 116.305 71.2118 118.974 69.8751C123.451 67.5857 125.431 65.8051 126.416 64.8662C127.993 63.3584 129.797 60.4447 129.797 57.7714C129.797 54.7559 128.321 53.2388 127.762 52.5035C128.409 54.5015 128.317 56.0416 127.146 57.6095ZM124.797 62.5861C124.621 63.0578 124.399 64.6534 119.871 66.9752C115.524 69.2045 115.639 68.8946 112.679 70.4995C109.608 72.1691 106.616 74.1255 103.374 78.2603L103.008 78.0013C105.825 73.6168 107.522 72.1368 112.087 69.5329C114.372 68.2332 120.903 65.7635 124.797 62.5861ZM123.53 72.9323C124.529 72.8028 125.204 72.9138 127.535 74.1949C129.861 75.476 131.98 77.5851 131.98 77.5851C131.98 77.5851 129.205 80.8966 127.183 81.9696C126.624 81.6181 125.727 81.2897 125.727 81.2897C124.691 81.2758 124.08 81.743 124.08 81.743C124.08 81.743 125.588 82.409 126.989 83.7734C125.477 85.6465 121.495 86.4975 121.495 86.4975L121.532 87.3162C120.583 87.9035 118.78 87.9267 116.31 87.1589C113.836 86.3911 111.629 84.2498 111.629 84.2498C114.959 84.259 119.751 84.333 122.378 83.0796C121.36 82.5524 120.972 82.8669 120.681 82.7466C120.385 82.6356 119.288 81.8632 119.288 81.8632C120.907 81.5534 125.195 80.4988 127.859 77.3307C121.948 79.6432 119.732 79.93 119.732 79.93C123.368 77.7932 124.038 74.8285 124.038 74.8285C124.038 74.8285 119.011 75.1754 118.248 75.2587C118.387 74.921 120.01 73.4457 120.01 73.4457C118.433 72.7982 117.734 72.7473 117.734 72.7473L117.721 71.5956C121.051 69.7641 124.718 71.1979 124.718 71.1979C124.718 71.1979 124.242 71.7066 123.53 72.9323ZM121.712 75.9987C121.712 75.9987 120.357 78.2279 118.784 79.3981C116.92 80.7763 113.942 80.0965 113.942 80.0965C113.942 80.0965 115.047 79.2223 116.56 76.6971C116.805 76.7156 117.665 76.7156 118.239 76.6508C118.761 76.5953 118.951 76.1883 118.951 76.1883L121.712 75.9987ZM116.389 73.996C116.389 73.996 114.608 78.4315 111.912 79.5831C111.912 79.5831 110.242 78.9125 109.752 77.4741C111.01 76.9006 111.93 76.4057 112.203 76.2114C112.203 76.2114 110.482 75.7443 109.604 75.5778C110.307 75.3095 112.749 74.4863 113.544 73.7047C113.544 73.7047 115.163 73.9729 116.389 73.996ZM118.123 82.8484C118.123 82.8484 114.761 83.2924 109.363 83.149C109.363 83.149 106.62 82.335 106.01 81.7152C108.531 81.6366 111.477 81.5117 111.477 81.5117C111.477 81.5117 113.715 82.1639 115.658 82.224C116.87 82.261 116.398 82.1084 117.055 82.3442C117.263 82.4182 118.123 82.8484 118.123 82.8484ZM109.03 80.6376L104.812 80.7763L103.17 79.4073L106.426 79.1761C106.431 79.1761 108.193 80.2815 109.03 80.6376ZM100.386 79.5553C91.9129 77.5111 85.595 76.5259 83.5045 76.3039V75.9386C89.568 75.7119 102.282 78.2464 102.282 78.2464C101.163 78.5563 100.386 79.5553 100.386 79.5553ZM92.7222 78.9541C89.4153 78.5101 83.523 78.2788 83.523 78.2788V77.3307C88.8002 78.0198 92.7222 78.9541 92.7222 78.9541ZM99.8633 81.2204C99.8726 81.2481 100.044 81.447 100.044 81.447C100.964 82.2702 104.202 83.9908 104.202 83.9908C90.012 80.4156 85.8494 79.8467 85.8494 79.8467V79.4906C91.2376 79.7403 95.0163 80.3925 99.8633 81.2204Z" fill="#5D4236"/>
<path d="M49.1219 55.6161L49.5242 55.9306L44.5708 60.3984L44.1592 60.0885L49.1219 55.6161ZM63.3207 55.8844L57.9372 60.4493L58.3534 60.7592L63.737 56.1943L63.3207 55.8844ZM35.1404 53.7892C35.367 58.4328 32.814 61.6426 27.0465 64.3251L27.546 64.6535C33.2626 61.9247 35.774 58.664 35.6399 54.1639L35.1404 53.7892ZM74.2728 55.7919L69.5275 60.0978L69.9392 60.4077L74.6845 56.1064L74.2728 55.7919ZM109.802 55.9168L104.456 60.4447L104.867 60.7545L110.219 56.2266L109.802 55.9168ZM80.586 60.0932L80.993 60.4077L85.9603 55.9214L85.5487 55.6161L80.586 60.0932ZM121.009 55.5976L116.046 60.0978L116.453 60.4077L121.416 55.9214L121.009 55.5976ZM97.5414 55.7919L92.8008 60.0932L93.2078 60.3984L97.9484 56.1064L97.5414 55.7919ZM82.991 45.3069V53.1695L83.4952 53.558V45.3069H82.991ZM106.75 52.4387V45.3069H106.246V52.0456L106.75 52.4387ZM117.411 52.2953V32.0608L116.911 31.7047V51.8976L117.411 52.2953ZM60.2358 52.4387V45.3069H59.7317V52.0456L60.2358 52.4387ZM44.9084 45.3069L44.9131 51.7311L45.4126 52.1288V45.3069H44.9084ZM94.5814 52.5497V38.8596L94.0819 38.5081V52.1288L94.5814 52.5497ZM51.7859 38.8596L51.2771 38.5081V44.7195H51.7859V38.8596ZM21.6306 42.4671L22.1394 41.9445V36.5193H21.6306V42.4671ZM21.6306 47.4761V57.5633L22.1394 57.8963V47.8877C21.9682 47.7489 21.8017 47.6102 21.6306 47.4761ZM29.9881 44.4513L30.1731 44.6178C34.0026 48.0588 34.8906 50.4315 35.1357 53.3776L35.6075 53.0122C35.3254 50.1355 34.3541 47.7536 30.6957 44.4143L36.1902 38.115L25.3214 26.631L24.956 26.9825L35.515 38.1381L29.9881 44.4513ZM83.4952 39.7152V38.8596L82.991 38.5081V40.2517L83.4952 39.7152ZM70.8919 52.2953V38.8596L70.3924 38.5081V51.8976L70.8919 52.2953ZM45.4172 39.7152V38.8596L44.9084 38.5081V40.2517L45.4172 39.7152Z" fill="#764F3E"/>
<path d="M96.5702 55.1397L92.1533 59.1358L86.6818 55.075V44.5484H81.7839V53.2065L84.3462 55.1629L79.9385 59.1358L74.6428 55.1166L76.0211 53.9742V38.5081H81.7885V42.6336L85.6874 38.5081H92.884V52.1288L96.5702 55.1397ZM119.82 55.149L115.417 59.1404L109.946 55.0796V44.5484H105.052V52.0595L108.965 55.1351L103.813 59.5012L97.9022 55.1212L99.2758 53.965V45.0849L105.584 38.5081H109.946V31.7047H115.709V51.9207L119.82 55.149ZM34.0812 53.3869C33.8315 50.3898 32.37 48.0403 28.6607 44.7103L28.3878 44.4651L33.9101 38.1381L23.7026 27.3525L19.5725 31.6954L26.3944 38.633L20.4281 44.7935V36.5378H14.6376V53.8817L13.2639 55.0981L26.0152 63.6174C31.9445 60.9072 34.4374 57.7529 34.0812 53.3869ZM23.3511 59.4133L23.1569 59.5012L20.4235 57.6743V45.5567L21.0386 46.033C25.0716 49.1781 27.1483 51.4073 27.5784 53.0261C28.2953 55.741 26.9864 57.7205 23.3511 59.4133ZM73.3016 55.149L68.8939 59.1404L63.4225 55.0102V44.5484H58.5246V52.0595L62.4374 55.1351L57.2897 59.5012L51.3835 55.1212L52.7525 53.9835V45.0849L59.0611 38.5081H69.176V51.9207L73.3016 55.149ZM47.6049 38.5081H50.0792V44.5484H43.7059V51.7311L47.9471 55.1444L43.5256 59.1404L36.1162 53.5765L37.513 52.4063V38.5081H43.7013V42.629L47.6049 38.5081ZM103.489 97.7318C102.906 97.8057 102.208 97.7872 102.208 97.7872V96.5662C102.208 96.5662 102.98 96.5431 103.249 96.4552C103.517 96.3674 103.72 96.2379 103.72 95.8077V90.7988C103.72 90.6462 103.966 90.6369 104.114 90.6647C104.53 90.7433 104.812 90.7942 105.131 90.8543V95.6366C105.136 96.8992 104.377 97.6161 103.489 97.7318ZM32.5411 95.6505C32.5503 97.6577 31.4311 97.8751 29.6504 97.8751H29.0492C28.8272 97.8613 28.4896 97.8381 28.3323 97.7872C28.0918 97.7086 27.916 97.593 27.916 97.2137V92.6072V91.0948C27.916 90.9006 28.2074 90.7988 28.3739 90.7664C28.9151 90.6647 29.1139 90.6323 29.6319 90.5398C31.2461 90.2438 32.3191 90.3456 32.3237 92.0753C32.3283 93.3426 31.63 93.7403 31.0241 93.9485C31.667 94.0271 32.5365 94.1936 32.5411 95.6505ZM29.3128 91.8903L29.3174 93.6155L29.7383 93.5738C30.5014 93.4952 30.9223 93.3241 30.9177 92.3343C30.9177 91.4972 30.4644 91.4879 29.6828 91.6082C29.6134 91.6174 29.6042 91.6221 29.5626 91.6313C29.4839 91.6591 29.3128 91.7284 29.3128 91.8903ZM31.1351 95.6644C31.1305 94.6792 30.6494 94.5544 29.7429 94.6283C29.6551 94.633 29.6412 94.6376 29.5996 94.6422C29.4423 94.6607 29.3267 94.7902 29.3267 94.8827V96.6634C29.3267 96.7189 29.3961 96.8114 29.5811 96.8114C29.6874 96.8114 29.6134 96.816 29.7198 96.8114C30.5708 96.7882 31.1397 96.7096 31.1351 95.6644ZM48.1969 95.0446C48.4327 95.9789 48.664 96.9224 48.8999 97.8659H47.295C47.147 97.1305 46.999 96.3905 46.8463 95.6597C46.6706 94.7764 46.4023 94.1705 46.2173 93.9161C46.074 93.9392 45.9907 93.9438 45.852 93.9762C45.778 93.9947 45.6485 94.0548 45.6485 94.1705C45.6485 95.4054 45.6392 96.631 45.6485 97.8659H44.1962V88.6944C44.1962 88.4955 44.4737 88.4077 44.6679 88.3892C45.2415 88.3337 45.5652 88.2967 46.1341 88.2412C47.6465 88.0885 48.738 88.4863 48.7519 90.7896C48.7611 92.3528 48.2616 93.1113 47.4892 93.5137C47.7621 93.745 48.0257 94.3601 48.1969 95.0446ZM47.3412 90.9237C47.3366 89.9941 46.9712 89.7027 46.0693 89.7813C46.0138 89.7859 45.9907 89.7813 45.9398 89.7906C45.8057 89.8091 45.6346 89.9154 45.6346 90.0403V92.672C46.5966 92.4962 47.3551 92.3621 47.3412 90.9237ZM55.4397 94.9058C55.4535 97.5329 54.3343 97.8659 52.549 97.8659H50.7591V88.1163C50.7591 87.9405 50.9303 87.8342 51.2078 87.811C51.6934 87.7694 52.0079 87.7463 52.4935 87.7139C54.1262 87.6029 55.2084 87.9174 55.213 90.1837C55.2223 91.8487 54.5147 92.3112 53.9134 92.5332C54.5609 92.7043 55.4304 93.005 55.4397 94.9058ZM52.1975 91.932C52.3363 91.9273 52.4796 91.9181 52.6184 91.9134C53.3815 91.8857 53.807 91.6961 53.8024 90.3687C53.7978 89.2402 53.3399 89.1615 52.549 89.2078C52.5028 89.2124 52.4519 89.217 52.4056 89.2263C52.3178 89.2402 52.1929 89.3465 52.1929 89.4437C52.1975 89.5362 52.1975 91.932 52.1975 91.932ZM54.029 94.855C54.0244 93.5415 53.5388 93.3333 52.6276 93.3657C52.5768 93.3657 52.4935 93.3703 52.4473 93.375C52.3455 93.3888 52.2206 93.4906 52.2206 93.5831V96.3674H52.6138C53.4694 96.3581 54.0383 96.2656 54.029 94.855ZM96.5794 95.4516C96.8014 96.2749 97.0234 97.0796 97.2547 97.8705H95.6498C95.511 97.2369 95.3677 96.5755 95.2289 95.9187C95.0624 95.1232 94.808 94.5497 94.6277 94.3C94.5028 94.3046 94.4103 94.3046 94.2576 94.3138C94.1883 94.3185 94.031 94.3647 94.031 94.5312V97.8705H92.625V89.1662C92.625 89.0182 92.8609 88.9164 93.1291 88.9488C93.587 89.0089 94.179 89.0783 94.6184 89.1384C96.1308 89.3512 97.2084 89.9386 97.1992 91.8764C97.1899 93.2038 96.6858 93.7866 95.9088 94.0641C96.1678 94.2907 96.4129 94.8503 96.5794 95.4516ZM95.7793 91.7701C95.7839 90.9514 95.4231 90.6231 94.5305 90.5213C94.4889 90.5167 94.4149 90.5121 94.3733 90.5074C94.216 90.4936 94.0634 90.5768 94.0588 90.7017C94.0541 90.8497 94.0588 93.0975 94.0588 93.0975C95.0162 93.0512 95.77 93.0281 95.7793 91.7701ZM21.4225 93.93C21.4502 93.9207 21.4734 93.9115 21.4919 93.9068C22.1764 93.6478 22.6389 93.7912 22.8979 94.3693C22.995 94.5821 23.0875 95.3684 23.1291 95.8031C22.6296 95.7291 21.0895 95.4377 20.4466 94.5451C20.8536 94.115 21.2514 93.9855 21.4225 93.93ZM34.5669 89.9247V97.8705H36.0469V89.4946C35.6214 89.5593 35.4225 89.5824 34.9415 89.6472C34.7519 89.6749 34.5715 89.7906 34.5669 89.9247ZM38.4103 89.4021V97.8705H42.3971V96.3026H39.8718V93.9762C39.8718 93.8837 39.9735 93.7727 40.1354 93.7588C40.7737 93.7033 41.3194 93.6895 41.9623 93.6525V92.2418C41.9623 92.2418 40.547 92.3482 39.8394 92.4037V90.6508C39.8394 90.5074 39.992 90.4566 40.0892 90.4519C40.843 90.3826 41.6432 90.2947 42.4017 90.2253V88.6482C41.1205 88.7962 40.1447 88.921 38.882 89.0875C38.6646 89.1153 38.4103 89.2263 38.4103 89.4021ZM73.8705 94.559C73.8658 95.8771 73.5791 96.3211 72.9778 96.3211C72.3211 96.3165 72.1083 95.8355 72.1129 94.5405V87.3208L70.9798 87.293C70.8133 87.2884 70.6792 87.4087 70.6792 87.5428V94.5913C70.6746 96.816 71.2018 98.0046 72.9732 98.0046C74.6706 98.0046 75.2996 96.7697 75.3042 94.6422V87.4364C74.8278 87.4133 74.3376 87.3994 73.8658 87.3809V94.559H73.8705ZM83.0558 95.9372C83.0234 96.4414 82.9772 96.4321 82.9402 95.965C82.8662 95.0677 82.7413 93.6247 82.6534 92.8708C82.4592 91.1966 82.2695 89.5131 82.0753 87.8249C81.5295 87.7833 81.0254 87.7509 80.4195 87.7047C80.2993 87.6954 80.0634 87.7555 80.0403 87.9035C79.8414 89.5408 79.661 91.1041 79.4621 92.7552C79.3604 93.6062 79.2216 95.0307 79.143 95.9187C79.1014 96.3951 79.0551 96.4229 79.0274 95.9419C78.9256 93.9947 78.6574 88.9719 78.5741 87.5937C78.1579 87.5705 77.0941 87.515 76.9739 87.5104C77.3531 90.9792 77.7277 94.4341 78.1024 97.8613H80.0264C80.2206 96.2147 80.4195 94.5728 80.6184 92.9356C80.7479 91.9088 81.0624 88.7638 81.067 88.7638C81.067 88.7638 81.3769 91.9412 81.4786 92.9633C81.6544 94.6006 81.8348 96.2425 82.0059 97.8659H83.9299C84.3416 94.5729 84.7532 91.3029 85.1602 88.0793L83.5645 87.9405C83.4813 89.2494 83.176 94.0132 83.0558 95.9372ZM111.43 93.93C111.449 93.9392 111.481 93.9485 111.518 93.9577C111.703 94.0132 112.083 94.1288 112.48 94.5451C111.837 95.4377 110.297 95.7291 109.798 95.8031C109.839 95.373 109.932 94.6098 110.029 94.3925C110.205 93.9993 110.473 93.8097 110.848 93.8097C111.019 93.8051 111.218 93.8467 111.43 93.93ZM88.2405 93.708C88.2405 93.5923 88.4116 93.5137 88.5411 93.523C89.1609 93.5507 89.8037 93.5831 90.3865 93.6155V92.1863C89.6788 92.1308 88.9759 92.0846 88.2682 92.0429C88.2728 91.3954 88.2682 90.8404 88.2682 90.1929C88.2682 90.0403 88.444 90.0126 88.5827 90.0218C89.2904 90.0819 90.1506 90.1559 90.8351 90.2207V88.6667C89.6881 88.5325 88.4208 88.403 87.2368 88.2828C87.0148 88.2597 86.8113 88.3938 86.8113 88.514V97.8705H90.8351V96.3072H88.2358C88.2405 96.3026 88.2405 93.8606 88.2405 93.708ZM68.7644 92.5517C68.7598 97.7132 67.2983 98 66.2391 98C65.1523 98 63.7231 97.667 63.7139 92.5563C63.7046 87.441 65.2355 87.0895 66.2391 87.0942C67.2428 87.0895 68.7737 87.4688 68.7644 92.5517ZM67.3538 92.5471C67.3538 89.3651 66.9329 88.6065 66.2438 88.6112C65.5361 88.6112 65.1338 89.3096 65.1338 92.5471C65.1338 95.8309 65.6518 96.483 66.2438 96.483C66.8543 96.4876 67.3538 95.8817 67.3538 92.5471ZM61.517 94.8272C61.7436 95.8401 61.9749 96.8622 62.2061 97.8705H60.6058C60.4578 97.075 60.3098 96.2656 60.1665 95.4701C59.9953 94.5081 59.7271 93.8375 59.5467 93.5553C59.4265 93.5738 59.2785 93.5877 59.1582 93.6062C59.0934 93.6155 58.9824 93.6987 58.9824 93.8421C58.9824 95.1926 58.9778 96.52 58.9824 97.8659H57.5348V87.7047C57.5348 87.552 57.7013 87.4272 57.8447 87.4225C58.3488 87.3994 58.9778 87.3809 59.4773 87.367C60.9943 87.3162 62.0858 87.8203 62.0951 90.2854C62.0951 91.9597 61.5956 92.7459 60.814 93.1622C61.0868 93.4166 61.3412 94.0918 61.517 94.8272ZM60.6798 90.3548C60.6752 89.3465 60.3098 89.0089 59.4126 89.032C59.3848 89.032 59.2461 89.032 59.2183 89.0367C59.0935 89.0413 58.9547 89.143 58.9547 89.2864C58.9547 89.4298 58.9686 92.1724 58.9686 92.1724C59.9213 92.0198 60.6845 91.8996 60.6798 90.3548ZM99.1648 90.0727V97.8705H100.631V90.0542C100.316 90.0033 99.9233 89.9386 99.5949 89.8877C99.3822 89.8507 99.1648 89.9293 99.1648 90.0727ZM35.552 68.483H36.2087V66.8041H36.2226L36.662 68.483H37.3188V65.4813H36.662V66.9752H36.6528L36.2134 65.4813H35.5566V68.483H35.552ZM57.0816 68.483H57.7383V66.8041H57.7522L58.1916 68.483H58.8483V65.4813H58.1916V66.9752H58.1823L57.7383 65.4813H57.0816V68.483ZM39.3168 68.483H40.6673V67.8771H40.0892V67.2157H40.5933V66.633H40.0892V66.0826H40.6257V65.4767H39.3168V68.483ZM42.6653 68.483H44.0158V67.8771H43.4377V67.2157H43.9372V66.633H43.4377V66.0826H43.9742V65.4767H42.6653V68.483ZM46.0231 68.483H46.7307V67.1186C46.7677 67.1093 46.851 67.1047 46.8926 67.1047C47.0545 67.1047 47.0915 67.1602 47.0915 67.3637V68.4784H47.8176V67.4285C47.8176 67.2065 47.7528 67.0585 47.6233 66.9752C47.5494 66.929 47.4846 66.9151 47.332 66.8966V66.8873C47.5031 66.8688 47.5817 66.8411 47.6511 66.7717C47.7436 66.6838 47.7852 66.5543 47.7852 66.3601V66.0918C47.7852 65.8375 47.7066 65.671 47.554 65.5831C47.4291 65.5137 47.2441 65.4813 46.9065 65.4813H46.0277V68.483H46.0231ZM46.7261 65.9577H46.9018C47.0545 65.9577 47.0822 66.0317 47.0822 66.1658V66.4156C47.0822 66.5497 47.0545 66.6237 46.9018 66.6237H46.7261V65.9577ZM50.0191 68.483H51.3095V67.9002H50.7961V65.4767H50.0191V68.483ZM53.2058 68.483H53.8903L53.9504 67.9557H54.3898L54.4499 68.483H55.1344L54.7228 65.4813H53.5804L53.2058 68.483ZM53.9735 67.4239L54.1215 66.0086H54.1955L54.3528 67.4239H53.9735ZM60.9481 68.483H62.1321C62.5715 68.483 62.8166 68.2749 62.8166 67.9049V66.2445C62.8166 65.9068 62.7241 65.6848 62.5345 65.5831C62.4142 65.5091 62.2246 65.4767 61.9517 65.4767H60.9481V68.483ZM61.702 65.9855H61.8824C62.0304 65.9855 62.0627 66.0502 62.0627 66.2306V67.7291C62.0627 67.9187 62.0304 67.9789 61.8824 67.9789H61.702V65.9855ZM85.9094 68.483H87.0935C87.5375 68.483 87.778 68.2749 87.778 67.9049V66.2445C87.778 65.9068 87.6855 65.6848 87.4958 65.5831C87.3756 65.5091 87.186 65.4767 86.9131 65.4767H85.9094V68.483ZM86.6633 65.9855H86.8437C86.9917 65.9855 87.0241 66.0502 87.0241 66.2306V67.7291C87.0241 67.9187 86.9917 67.9789 86.8437 67.9789H86.6633V65.9855ZM65.9478 66.3H66.5999V66.0733C66.5999 65.6293 66.3224 65.412 65.7535 65.412C65.1754 65.412 64.8979 65.6525 64.8979 66.1566V66.3231C64.8979 66.6792 65.0551 66.9059 65.4806 67.1602C65.7813 67.3406 65.9154 67.4747 65.9154 67.6597V67.8494C65.9154 68.0482 65.8368 68.0575 65.7304 68.0575C65.6425 68.0575 65.5778 67.9927 65.5778 67.8632V67.4377H64.8933V67.7522C64.8933 67.9742 64.9256 68.1222 64.9904 68.2379C65.106 68.4367 65.3511 68.5385 65.7396 68.5385C66.364 68.5385 66.6415 68.3026 66.6415 67.7661V67.5302C66.6415 67.1463 66.4519 66.8827 65.994 66.6237C65.7304 66.4711 65.5916 66.3555 65.5916 66.2167V66.0641C65.5916 65.93 65.6749 65.8883 65.7674 65.8883C65.8645 65.8883 65.9339 65.9577 65.9339 66.1011V66.3H65.9478ZM90.8536 66.3H91.5058V66.0733C91.5058 65.6293 91.2282 65.412 90.6594 65.412C90.0812 65.412 89.8037 65.6525 89.8037 66.1566V66.3231C89.8037 66.6792 89.961 66.9059 90.3911 67.1602C90.6964 67.3406 90.8305 67.4747 90.8305 67.6597V67.8494C90.8305 68.0482 90.7519 68.0575 90.6455 68.0575C90.5576 68.0575 90.4929 67.9927 90.4929 67.8632V67.4377H89.8083V67.7522C89.8083 67.9742 89.8361 68.1222 89.9055 68.2379C90.0211 68.4367 90.2662 68.5385 90.6547 68.5385C91.2837 68.5385 91.5566 68.3026 91.5566 67.7661V67.5302C91.5566 67.1463 91.367 66.8827 90.9091 66.6237C90.6455 66.4711 90.5114 66.3555 90.5114 66.2167V66.0641C90.5114 65.93 90.5946 65.8883 90.6871 65.8883C90.7842 65.8883 90.8536 65.9577 90.8536 66.1011V66.3ZM70.4757 67.3036H69.7218V67.7985C69.7218 67.9835 69.6709 68.0436 69.5692 68.0436C69.4859 68.0436 69.4212 67.9742 69.4212 67.8447V66.1196C69.4212 65.9901 69.4859 65.9207 69.5692 65.9207C69.6663 65.9207 69.7218 65.9762 69.7218 66.1288V66.8041H70.4757V66.263C70.4757 65.7172 70.1612 65.4166 69.5877 65.4166C68.991 65.4166 68.6719 65.7357 68.6719 66.3462V67.6181C68.6719 67.8632 68.7089 68.0482 68.7922 68.1916C68.9217 68.4229 69.1992 68.5477 69.5553 68.5477C70.1381 68.5477 70.4757 68.2332 70.4757 67.6875V67.3036ZM72.4783 68.483H73.2322V67.225H73.5467V68.483H74.3191V65.4813H73.5467V66.5682H73.2322V65.4813H72.4783V68.483ZM83.9068 65.4813H83.1437V67.7754C83.1437 67.9511 83.0789 68.0205 82.9725 68.0205C82.8662 68.0205 82.8014 67.9511 82.8014 67.7754V65.4813H82.0383V67.6597C82.0383 68.2564 82.3435 68.5477 82.9633 68.5477C83.2547 68.5477 83.5229 68.4737 83.6663 68.3442C83.8189 68.2101 83.9114 67.9604 83.9114 67.6597V65.4813H83.9068ZM93.7766 68.483H94.5536V66.0826H95.0115V65.4767H93.3234V66.0826H93.7813V68.483H93.7766ZM96.8708 68.483H98.2213V67.8771H97.6432V67.2157H98.1427V66.633H97.6432V66.0826H98.175V65.4767H96.8662V68.483H96.8708ZM80.0495 67.2389C80.0495 67.5395 80.0495 67.7569 80.0356 67.8864C80.0264 68.0112 79.9755 68.1222 79.9015 68.224C79.8229 68.3304 79.7258 68.409 79.5963 68.4691C79.4621 68.52 79.3188 68.5477 79.143 68.5477C78.9811 68.5477 78.8378 68.5292 78.7083 68.4737C78.5834 68.4136 78.4724 68.3396 78.3938 68.2286C78.3151 68.1269 78.2689 68.0159 78.255 67.891C78.2411 67.7707 78.2365 67.5487 78.2365 67.2389V66.7301C78.2365 66.4295 78.2411 66.2121 78.255 66.0872C78.2689 65.9623 78.3105 65.8513 78.3891 65.7403C78.4678 65.634 78.5695 65.5646 78.6944 65.4998C78.8239 65.4443 78.9673 65.412 79.1384 65.412C79.3003 65.412 79.4436 65.4397 79.5685 65.4952C79.7073 65.5461 79.809 65.6247 79.8923 65.7311C79.9663 65.8375 80.0125 65.9531 80.0264 66.078C80.0403 66.2075 80.0403 66.4202 80.0403 66.7301V67.2389H80.0495ZM79.2679 66.2583C79.2679 66.115 79.2633 66.0271 79.2494 65.9855C79.2355 65.9438 79.1985 65.93 79.1523 65.93C79.1199 65.93 79.0783 65.9485 79.0598 65.9762C79.032 66.0086 79.0228 66.0965 79.0228 66.2583V67.6551C79.0228 67.8262 79.032 67.9372 79.0413 67.9835C79.0598 68.0159 79.0875 68.0436 79.1338 68.0436C79.1939 68.0436 79.2309 68.0205 79.2448 67.9696C79.2586 67.928 79.2633 67.817 79.2633 67.6366V66.2583H79.2679Z" fill="#5D4236"/>
</g>
<defs>
<clipPath id="clip0_102_84">
<rect width="131.101" height="98" fill="white" transform="translate(0.873535)"/>
</clipPath>
</defs>
</svg>
