<svg width="122" height="98" viewBox="0 0 122 98" fill="none" xmlns="http://www.w3.org/2000/svg">
<path fill-rule="evenodd" clip-rule="evenodd" d="M120.994 0H11.5662V86.3304H122V0H120.994ZM13.6031 84.2815H119.988V2.07393H13.6031V84.2815Z" fill="#5D4236"/>
<path fill-rule="evenodd" clip-rule="evenodd" d="M110 34.3073L109.754 34.1324V33.6326L109.411 33.4077V33.0579L109.165 32.908V32.3333H108.92V31.9335H108.674V31.6836V31.5087H108.355H108.11C108.119 31.434 108.119 31.3585 108.11 31.2838L107.865 31.1089V30.934H107.447H107.03H106.613C106.618 30.9922 106.618 31.0507 106.613 31.1089C106.613 31.1089 106.76 31.1089 106.613 31.2838H106.049C106.049 31.4587 106.049 31.2838 106.049 31.4587C105.805 31.4148 105.556 31.4148 105.312 31.4587V31.7836H104.895C104.895 32.1584 104.895 32.2333 105.214 32.3583C105.201 32.4745 105.201 32.5919 105.214 32.7081C105.214 32.7081 105.042 32.7081 105.042 32.858H104.895C104.857 32.6456 104.763 32.4473 104.625 32.2833H104.38V32.0334H103.815H102.883L102.564 32.2833V32.0334H102.048V32.4832H102.564H103.545H103.374V32.7081H103.349V33.0579C103.165 33.211 103.022 33.4086 102.932 33.6326C102.588 33.6326 102.662 33.6326 102.441 33.4577V33.3078C102.245 33.3078 102.294 33.3078 102.196 33.1329V33.4577H102.024V33.2078H101.852C101.852 33.0329 101.852 32.858 101.852 32.7081C101.852 32.5582 101.852 32.7081 101.68 32.7081H101.435L101.68 33.2078H101.337V33.6076H100.895C100.895 33.6076 100.895 33.3328 100.895 33.2828H100.723C100.723 33.1079 100.723 33.0829 100.723 32.858H101.14C101.228 32.7545 101.31 32.646 101.386 32.5332H101.214L100.969 32.1834C100.921 32.1357 100.845 32.1357 100.797 32.1834H100.38V32.5832H100.527C100.488 32.7474 100.488 32.9186 100.527 33.0829C100.599 33.2696 100.656 33.4618 100.699 33.6576C100.699 33.6576 100.699 33.8075 100.453 33.9075C100.306 33.6326 100.085 33.9075 99.8643 33.7326V33.9824C99.7436 34.1543 99.66 34.3501 99.6189 34.5571H99.3489C99.3605 34.3908 99.3605 34.2238 99.3489 34.0574C99.0708 34.0225 98.8075 33.9101 98.5882 33.7326H98.9317V33.5577H99.079C99.079 33.4077 99.079 33.2828 99.079 33.2328V33.0579V32.7331C98.8838 32.764 98.6851 32.764 98.49 32.7331C98.3673 33.0079 98.2446 33.4077 97.9992 33.5577C97.7538 33.7076 97.9992 33.5577 98.171 33.5577C98.1802 33.7241 98.1802 33.8909 98.171 34.0574C97.9746 34.0574 98.0237 34.0574 97.9256 33.8825C97.8627 33.722 97.8627 33.5432 97.9256 33.3827H98.0973C98.0862 33.2497 98.0862 33.116 98.0973 32.983C98.1166 32.8672 98.1166 32.7489 98.0973 32.6331H97.5084C97.7292 32.6331 98.2446 32.6331 98.5882 32.4582V32.2084C98.3702 32.1571 98.1436 32.1571 97.9256 32.2084V32.0584H97.6556C97.6556 32.0584 97.3366 32.0584 97.5084 32.0584H97.2629C97.2511 32.1998 97.2511 32.3419 97.2629 32.4832C97.2629 32.6081 97.2629 32.4832 97.5084 32.6331V32.883H97.8519V33.1329C97.7362 33.1817 97.6408 33.2701 97.582 33.3827H97.4347C97.2629 32.983 97.1402 32.5082 96.674 32.4082V32.5582H95.9868V32.883C96.2077 32.883 96.1831 32.883 96.404 32.7331C96.33 32.8473 96.248 32.9558 96.1586 33.0579C96.2798 33.2214 96.4535 33.3363 96.6494 33.3827V33.7326H96.4776V33.5577C96.0359 33.5577 96.1586 33.5577 95.8887 33.7326C95.7396 33.4204 95.656 33.08 95.6432 32.7331C95.4222 32.7336 95.2103 32.8235 95.0543 32.983H94.5634C94.5634 33.2328 94.5635 33.3078 94.2444 33.3827V33.1329V32.883C94.0573 32.7334 93.8136 32.6783 93.5818 32.7331C93.5818 32.5832 93.5818 32.4582 93.5818 32.3083H93.091C93.091 32.1084 93.091 31.9835 93.091 31.8835H93.2628C93.2628 31.8835 93.2628 31.7336 93.4346 31.6336C93.4125 31.4874 93.3533 31.3496 93.2628 31.2339H93.091C93.0433 31.3471 92.9858 31.4558 92.9192 31.5587H92.502V31.7336H92.2566H92.772C92.772 31.9085 92.772 31.7336 92.772 31.9085C92.5421 32.0183 92.2894 32.0698 92.0357 32.0584C92.0357 31.9085 92.0357 32.0584 92.0357 31.9085C91.7941 31.95 91.5614 32.0346 91.3486 32.1584H91.2013V32.4082C91.2013 32.7581 91.2013 33.0079 91.3486 33.2328H91.6185V33.3827H91.275C91.248 33.2531 91.1889 33.1327 91.1032 33.0329V32.7831H90.9314V32.2833C90.8535 32.073 90.7959 31.8554 90.7596 31.6336H91.1032H91.594L91.275 31.1339C90.9702 31.1499 90.6781 31.2636 90.4406 31.4587V31.6336C90.4406 31.6336 90.6369 31.6336 90.6124 31.7836C90.6124 32.0334 90.4897 31.9835 90.4651 32.2833C90.3277 32.2529 90.1854 32.2529 90.0479 32.2833V32.6081H89.8025V32.2583H89.6307V32.4832H89.3853V32.908H88.8945V32.4832V32.3083C88.9111 32.2007 88.9111 32.0911 88.8945 31.9835C88.6491 31.9835 88.6246 31.9835 88.5509 32.3083H88.4037V32.5582H88.1337C88.1337 32.7331 88.1337 32.5582 88.1337 32.7331H88.281V32.883C88.0356 32.883 88.011 33.0329 87.7165 33.0579V33.3078H87.5448C87.5448 33.1579 87.5448 33.0329 87.5448 32.883V32.4832H87.2993V32.7331H87.4711C87.3494 32.8689 87.2873 33.0494 87.2993 33.2328H87.1521V32.983C87.0528 33.1342 87.0528 33.3314 87.1521 33.4827C86.8509 33.5251 86.5453 33.5251 86.2441 33.4827C86.2256 33.2479 86.2769 33.0128 86.3913 32.808H86.5631C86.6123 32.6452 86.6123 32.4711 86.5631 32.3083C86.9312 32.3083 86.8576 32.3083 87.0539 32.1584H86.3177V32.4832C86.0968 32.4832 86.1459 32.3583 86.0478 32.3333H85.9005V32.4832C85.9005 32.883 85.6306 32.933 85.9005 33.2328C86.1705 33.5327 85.9005 33.4577 86.2441 33.4827C85.7042 33.4827 85.6551 33.4827 85.6551 32.833C85.3842 32.7493 85.1501 32.5727 84.9925 32.3333H84.6735C84.2317 32.3333 84.3544 32.3333 84.0845 32.5082V33.1579H83.6673C83.6523 32.9583 83.6523 32.7578 83.6673 32.5582H83.4955H83.0783V32.808C83.2318 32.9387 83.396 33.0557 83.5691 33.1579V33.8075V34.1324C83.5691 33.8825 83.4219 33.6326 83.3237 33.3827H82.9065H82.4893L82.3175 33.7076H82.1458C82.1458 32.883 82.3421 33.3578 82.6366 32.883H83.1519V32.6331H82.7347C82.7485 32.5504 82.7485 32.466 82.7347 32.3833H82.1703V32.7831C81.974 32.7831 81.974 32.7831 81.8267 32.958V33.3578H81.2623C81.2221 33.1135 81.3551 32.874 81.5813 32.7831V32.5332C81.4341 32.5332 81.5813 32.5332 81.4095 32.7831H81.1641C81.1298 32.9225 81.1298 33.0684 81.1641 33.2078C81.1641 33.2078 81.1641 33.2078 81.1641 33.5327H80.9187V33.2828H80.7469C80.7469 33.1329 80.7469 33.1579 80.5015 33.1079V32.858H81.0169C81.0169 32.5082 81.0169 32.4332 80.7469 32.3583C80.5814 32.3362 80.414 32.3811 80.2806 32.4832V32.1584C80.2806 32.1584 80.2806 31.8835 80.2806 31.7586H80.0352V31.9085H80.1825C80.1825 31.9085 79.9616 32.1084 79.9371 32.1584V32.4832V32.808H79.5199V32.983C79.3246 32.9539 79.1262 32.9539 78.9309 32.983V33.4827C79.0571 33.6455 79.1184 33.8506 79.1027 34.0574C79.3236 34.0574 79.3236 34.2073 79.4953 34.3073V34.5571C79.1027 34.4322 79.4953 34.3323 79.1027 34.1324H78.8327V34.3073V33.6326C78.6624 33.6645 78.4877 33.6645 78.3174 33.6326V33.4827C78.1551 33.4527 77.9888 33.4527 77.8266 33.4827H78.1456V33.3078C78.3174 33.0579 78.4892 33.4827 78.5628 32.908C78.2881 32.8447 78.0031 32.8447 77.7284 32.908L77.5812 33.0579C77.3955 33.1017 77.2024 33.1017 77.0167 33.0579V32.6581C76.8449 32.6581 77.0167 32.6581 76.8449 32.6581V32.908H76.3541V32.4832C75.716 32.4832 75.4461 32.0834 74.8571 32.0584V32.2333L75.5197 32.6581V32.808L75.0289 32.983H74.8571C74.6608 32.983 74.8571 32.983 74.6117 32.983H74.3663V33.2328H74.1454V32.4832V32.2333H73.9C73.4828 32.2333 73.7037 32.4582 73.7528 32.7331C73.7626 32.8161 73.7626 32.9 73.7528 32.983H73.5074V32.6581V32.2333H73.3356C73.3356 32.2333 73.3356 32.2333 73.1638 32.2333C72.992 32.5582 72.7466 32.5082 72.9184 32.983C72.673 32.983 72.3049 32.983 72.1822 32.983C72.0594 32.983 71.9858 32.983 71.9368 33.2328H71.765V32.983C71.6177 32.983 71.2251 32.983 71.1024 33.1329C70.9797 33.1329 71.1024 33.1329 70.9551 32.883C70.9551 32.7581 70.9551 32.883 70.7097 32.7331V32.4832C70.5379 32.4832 70.3416 32.1084 70.0471 32.2333C70.0401 32.2831 70.0401 32.3335 70.0471 32.3833H69.8753C69.8753 32.5582 69.8753 32.3833 69.8753 32.5582H69.6299C69.6299 32.1584 69.9735 31.9585 70.0471 31.6586H69.8017V31.8086H69.6299V31.9835C69.6299 31.9835 69.3845 32.1084 69.3109 32.2333C69.3109 31.9585 69.3109 31.9335 69.4827 31.8086V31.6586L68.9918 32.0584H68.5746V32.2084C68.6973 32.2084 68.5746 32.2084 68.7219 32.4582H68.9673C68.9673 32.3083 68.9673 32.2333 68.7955 32.1334C69.0307 32.1704 69.256 32.2554 69.4581 32.3833C69.4581 32.5332 69.4581 32.3833 69.4581 32.5332V32.7081C69.2726 32.6171 69.0736 32.558 68.8691 32.5332V32.958H68.5501C68.4758 33.0085 68.379 33.0085 68.3047 32.958V32.7831H67.9611V33.0329C67.7157 33.0329 67.7648 33.0329 67.6912 32.7831C67.6175 32.5332 67.4703 33.0579 67.2004 33.1079C66.9304 33.1579 67.3231 32.7831 67.3721 32.6081H67.7893C67.7893 32.3083 67.6666 32.2084 67.7893 32.0334L67.2985 32.1834V32.6831C67.0531 32.6831 67.004 32.6831 66.9549 33.0079H66.7832V32.7331H66.3905V32.4832H66.1206C66.1206 32.858 66.1206 32.6831 66.3905 32.883H66.1451H65.8015V32.6331H65.6297C65.6297 32.6331 65.6297 32.6331 65.777 32.7831C65.9242 32.933 65.777 32.7831 65.777 32.958V32.6331C65.602 32.6368 65.4303 32.5844 65.2862 32.4832H64.7953C64.599 32.4832 64.5499 32.4832 64.4518 32.6581H64.6972C64.6972 32.858 64.6972 32.833 64.5254 32.983H64.0346C64.0005 32.8854 63.9411 32.7991 63.8628 32.7331C63.8628 32.3083 63.8628 32.3833 64.2064 32.2333H64.5254C64.5254 32.0834 64.5254 32.2333 64.5254 32.0834H64.1082V31.8335H63.9364H63.5928C63.5928 31.9835 63.5928 31.8335 63.5928 31.9835C63.5928 32.1334 63.7155 32.2333 63.9364 32.3333V32.4832C63.7646 32.4832 63.9364 32.4832 63.7646 32.4832V32.7081H64.0346C63.9119 32.7081 64.0346 32.7081 63.8628 32.5332H63.7155V32.3833L61.6296 32.4832H61.875V31.9835C61.875 31.9835 61.875 31.9835 61.7032 31.9835C61.6384 32.0632 61.5536 32.1236 61.4578 32.1584C61.4109 32.296 61.3535 32.4297 61.286 32.5582V32.883C61.0651 32.883 61.0406 32.883 60.9424 32.6581V32.1584V31.8335H60.5989C60.5989 32.1834 60.378 32.2583 59.9362 32.2583C60.059 32.4832 59.9362 32.5582 60.3534 32.5832C60.2062 32.958 60.3534 32.858 60.3534 33.3328H60.108V32.908H59.789C59.6663 33.3078 59.6172 32.908 59.4454 33.1579C59.5927 33.1579 59.4454 33.5826 59.4454 33.7326H58.9546C58.9546 33.7326 58.9546 33.5327 58.7092 33.5826L57.973 33.9824C58.1114 33.9626 58.2518 33.9626 58.3902 33.9824C58.3902 33.8325 58.3902 33.9824 58.3902 33.8325H58.7828C58.8664 33.8816 58.9693 33.8816 59.0528 33.8325C59.0528 33.8325 59.0528 33.8325 59.0528 33.6826C59.0528 33.5327 59.0528 33.4827 58.881 33.4327H58.7092C58.7092 33.4327 58.7092 33.3078 58.562 33.2578V32.4832C58.3187 32.4485 58.0735 32.5317 57.8994 32.7081H57.5558C57.8584 32.6769 58.1013 32.4399 58.1448 32.1334C57.9143 32.1437 57.6885 32.2033 57.4822 32.3083C57.2122 32.3083 56.6723 31.9335 56.5742 31.8086C56.476 31.6836 56.1815 31.8086 56.2306 32.0584C56.2797 32.3083 56.3533 32.0584 56.2306 32.2333H55.9115C55.4944 32.2333 55.4207 32.2333 55.4207 32.7331L55.1753 32.883C55.1428 32.6929 55.1428 32.4984 55.1753 32.3083H55.3226V32.0584H54.8317C54.7575 32.0079 54.6606 32.0079 54.5863 32.0584L54.4146 32.2333H54.2673C54.2885 32.1261 54.2885 32.0157 54.2673 31.9085H53.8501V32.2333C53.482 32.2333 53.3838 32.2333 53.2611 32.5582V32.1584C53.2115 32.0828 53.2115 31.9841 53.2611 31.9085H53.4329C53.4329 31.7586 53.4329 31.6336 53.4329 31.4837C53.6047 31.4837 53.7029 31.6336 53.7519 31.7336H53.9974C53.9933 31.6504 53.9933 31.567 53.9974 31.4837V30.984C53.9974 30.984 53.9974 30.984 53.8256 30.984V31.4088H53.3102L53.163 31.6586L52.574 31.4837V31.6586H52.893C52.9304 31.7283 52.9915 31.7816 53.0648 31.8086V31.9835H52.574V32.1584H52.3286C52.3286 31.9335 52.1568 31.9085 52.0586 31.7336L51.077 31.9085V32.2333C50.6598 32.2333 50.488 32.0834 50.2426 32.4082V32.2333H50.4144C50.6308 32.0538 50.7996 31.8218 50.9052 31.5587C50.6843 31.5587 50.7089 31.5587 50.6598 31.3338H50.0708V31.4837C50.0231 31.5313 49.9467 31.5313 49.899 31.4837C49.7518 31.4837 49.7272 31.4837 49.7272 31.4837C49.7272 31.4837 49.7272 31.4837 49.5555 31.4837H49.31V31.6586H48.8928V31.8335H48.5738V31.5837H48.7456V31.3588H48.4266C48.4266 31.5087 48.4266 31.3588 48.4266 31.5087H48.1812V31.3588C48.0364 31.3157 47.8966 31.257 47.764 31.1839C47.7003 31.3111 47.6509 31.4452 47.6167 31.5837H47.9358C47.9358 31.7336 48.1075 31.7336 48.1812 31.8335V32.0085V32.2583C48.1812 32.1334 47.9358 32.1334 47.8621 32.2583C47.8714 32.333 47.8714 32.4085 47.8621 32.4832C47.7672 32.4124 47.6381 32.4124 47.5431 32.4832H47.1995V32.2333C47.0277 32.2333 47.1995 32.2333 47.0277 32.2333V32.3833C47.0277 32.6581 47.0277 32.5582 47.2732 32.7081V32.4832H47.0277V32.958H46.7578V32.2333C46.7578 32.2333 46.9296 32.0085 46.7578 31.8335C46.6772 31.7399 46.6184 31.6288 46.586 31.5087C46.586 31.5087 46.586 31.5087 46.586 31.3338H46.7333V31.1589H46.3406C46.3063 31.0195 46.3063 30.8736 46.3406 30.7341H46.1688C46.1688 30.7341 45.8007 30.934 45.7762 30.984C45.7516 31.034 45.6535 30.8091 45.5062 30.7341C45.5062 30.909 45.5062 31.1089 45.3344 31.3088H45.6535H45.8989C45.8789 31.4161 45.8789 31.5263 45.8989 31.6336H46.0706C46.0706 31.8086 46.0706 31.6336 46.0706 31.8086V31.9585V31.6336H46.3406V32.1334C46.0952 32.1334 45.9234 32.3833 45.678 32.4582V32.858C45.678 33.0329 45.678 32.858 45.678 33.0329C45.678 32.908 45.8743 32.7831 45.8252 32.6081V32.2084C45.8595 32.0689 45.8595 31.923 45.8252 31.7836H44.451V32.1084C44.451 32.1084 44.3282 31.9585 44.451 31.7836C44.5737 31.6087 44.6227 31.6586 44.451 31.5337C44.4469 31.6169 44.4469 31.7003 44.451 31.7836H44.1319H43.9601C43.9601 31.7836 43.9601 31.7836 43.7883 31.9335C43.7343 32.155 43.7343 32.3866 43.7883 32.6081H43.6411V32.858C43.6411 33.0329 43.6411 32.858 43.6411 33.0329C43.6411 33.0329 43.6411 32.5582 43.6411 32.4582C43.6232 32.3033 43.5638 32.1563 43.4693 32.0334H43.1257C43.1257 32.0334 43.1257 32.3583 42.9785 32.4582C42.8312 32.5582 42.6595 32.6581 42.5613 32.858C42.5613 32.6581 42.5613 32.7081 42.7331 32.6081C42.4877 32.6081 42.4877 32.6081 42.4141 32.933H41.506C41.549 32.7186 41.549 32.4977 41.506 32.2833H41.2606C41.1508 32.5119 41.1508 32.7793 41.2606 33.0079H41.0152H40.5244C40.5244 33.0079 40.5244 32.858 40.3526 32.858V33.0079H40.009V33.2578H39.5428C39.5301 33.2002 39.5301 33.1405 39.5428 33.0829H39.2974C39.2974 32.833 39.2974 32.7331 39.5428 32.6581C39.7882 32.5832 39.5428 32.808 39.7146 32.6581V32.4332C39.9627 32.253 40.2482 32.1334 40.5489 32.0834V31.8335C40.5489 31.8335 40.5489 31.8335 40.3772 31.8335C40.2054 31.8335 39.8618 32.0584 39.7146 32.3333C39.4253 32.3664 39.1331 32.3052 38.8802 32.1584C38.8802 31.9835 38.8802 32.0085 39.0274 31.9085C39.1382 31.9507 39.2602 31.9507 39.371 31.9085C39.371 31.6336 39.371 31.6087 39.1256 31.5087C38.9921 31.5736 38.8523 31.6239 38.7084 31.6586C38.6785 31.4431 38.6785 31.2245 38.7084 31.009H38.4384V31.1589C38.4384 31.1589 38.0212 31.009 37.7758 31.009V31.5087C37.797 31.4015 37.797 31.2911 37.7758 31.1839H38.2666C38.2666 31.5087 38.0212 31.5087 38.0212 32.0085H37.8494C37.8353 32.1163 37.8353 32.2255 37.8494 32.3333C37.8494 32.5082 37.8494 32.3333 37.8494 32.5082L37.6286 32.4832V32.2333L37.3832 32.0834C37.3832 31.9585 37.3832 31.7586 37.2114 31.6586H37.0887C37.001 31.5551 36.9191 31.4466 36.8433 31.3338H36.6715C36.6715 31.3338 36.6715 31.1089 36.6715 31.009H36.4015V31.4088C36.4015 31.4088 36.5488 31.4088 36.4015 31.5837H36.2543C36.2543 31.7586 36.2543 31.5837 36.2543 31.7586V31.5837C36.2543 31.5837 35.9598 31.5837 36.0089 31.3338C35.7144 31.3338 35.4935 31.1589 35.2727 31.3338C35.0518 31.5087 35.0027 30.909 34.6837 31.009V31.1839C34.4137 31.1839 34.4628 30.8341 34.1929 31.1839H34.7082C34.571 31.2168 34.4282 31.2168 34.291 31.1839V31.4338C34.1192 31.4338 34.291 31.4338 34.1192 31.4338V31.1839C33.9089 31.2777 33.6852 31.3367 33.4566 31.3588V31.6836H33.2112C33.2112 31.9335 33.0394 32.1834 32.9658 32.4332H32.1805V32.1834V31.7586V31.6087V31.4338H32.3523V30.934H32.1805V31.3338C32.0759 31.3901 31.9904 31.4772 31.9351 31.5837H31.6897V31.8335H31.5179C31.5179 31.4587 31.5179 31.3338 31.1007 31.2588C30.6835 31.1839 31.1007 31.4837 30.9289 31.5837C30.7571 31.6836 30.9289 31.7836 31.1007 31.9085H31.3461V32.1584H31.1007C30.8062 31.9335 31.1007 31.7086 30.5117 31.5837C30.4826 31.9162 30.4826 32.2507 30.5117 32.5832C30.2915 32.6081 30.0693 32.6081 29.8491 32.5832V32.4832H30.0945C30.0945 32.3583 30.2172 32.3583 30.0945 32.1584V31.9335C30.0945 31.9335 30.0945 31.9335 29.9227 31.7586C29.8056 32.0197 29.5949 32.2253 29.3338 32.3333C29.4576 32.4006 29.5896 32.451 29.7264 32.4832C29.776 32.5588 29.776 32.6575 29.7264 32.7331C29.7264 32.933 29.7264 32.983 29.7264 32.983V33.4827C29.7264 33.2078 29.7264 33.0829 29.7264 32.7331C29.7264 32.3833 29.7264 32.7331 29.5546 32.7331C29.0393 32.7331 28.9656 32.7331 28.8184 33.0579H28.6466V32.808C28.892 32.808 28.9411 32.6081 29.1374 32.4832H29.5546C29.5546 32.3083 29.5546 32.4832 29.5546 32.3083C29.3828 32.3083 29.1129 32.3083 29.0393 32.3083C28.9656 32.3083 29.0393 32.1834 29.0393 31.9835C29.0393 31.7836 29.1865 31.9835 29.0393 31.8335C28.8353 31.9449 28.6081 32.0049 28.3767 32.0085V32.3333V32.5082C28.2859 32.5943 28.2255 32.7085 28.2049 32.833C27.8603 32.8719 27.5221 32.9558 27.1987 33.0829C27.0934 33.1044 26.985 33.1044 26.8797 33.0829V32.4832H26.7079C26.7079 32.7331 26.7079 32.7581 26.3889 32.808V32.4082H25.579C25.5345 32.6187 25.442 32.8156 25.3091 32.983V32.7331C24.9655 32.7331 24.9409 32.908 24.6465 32.983C24.6625 32.6684 24.7463 32.3613 24.8919 32.0834L24.5483 32.2583V32.0834C24.3531 32.0533 24.1545 32.0533 23.9593 32.0834C23.9593 32.2333 23.9593 32.0834 23.9593 32.2333H24.2047C24.1117 32.3437 23.9938 32.4294 23.8611 32.4832C23.8611 32.6081 23.8611 32.4832 24.0329 32.6581H23.7875V32.808H23.5421C23.5495 32.6999 23.5495 32.5914 23.5421 32.4832V31.9835C23.4659 32.1164 23.4081 32.2593 23.3703 32.4082H22.2169C22.2169 32.6331 22.2169 32.6081 22.5605 32.6581C22.3901 32.69 22.2155 32.69 22.0451 32.6581C22.0451 32.5082 22.0451 32.6581 22.0451 32.5082C22.0184 32.2478 21.8603 32.0205 21.6279 31.9085V32.0584V32.4832H21.7997C21.8115 32.6245 21.8115 32.7667 21.7997 32.908C21.6268 32.8451 21.462 32.7612 21.3089 32.6581V32.4832C21.4807 32.4832 21.3089 32.4832 21.4807 32.4832C21.4807 32.4832 21.1126 32.6081 21.0635 32.6331H20.6463C20.3027 32.6331 20.3027 32.3083 19.9101 32.2084C19.5174 32.1084 19.9101 32.0334 19.6646 31.9585V32.3833C19.559 32.401 19.4512 32.401 19.3456 32.3833V32.5332H19.1002V32.2084H18.9039C18.9039 32.2084 18.9039 32.4332 18.6585 32.3833H18.4867C18.4867 32.3833 18.6339 32.5332 18.4867 32.6331C18.4867 32.6331 17.9959 32.6331 17.7505 32.6331V32.7831H17.9222C17.9222 32.983 17.9222 33.0079 17.9222 33.1079C17.9222 33.4077 17.9222 33.8075 17.7505 34.0324H17.6032C17.5082 33.5969 17.4508 33.1538 17.4314 32.7081H17.186V33.3078C17.186 33.4577 17.186 33.3078 17.186 33.4577C16.9897 33.4577 17.0142 33.3328 16.9406 33.3078H16.6707V32.883C16.6707 32.6581 16.6707 32.6581 16.4989 32.5582C16.3844 32.5877 16.2762 32.6385 16.1798 32.7081C16.1798 32.958 16.3516 33.2078 16.4253 33.4577H16.1798C16.0127 33.1255 15.9284 32.7565 15.9344 32.3833H15.7626V33.3827V33.5327V34.1324C15.7626 34.2823 15.7626 34.1324 15.7626 34.2823H15.5172C15.5172 34.0574 15.5172 34.0574 15.6645 33.9574C15.8117 33.8575 15.6645 33.4577 15.6645 33.3827H15.1737C15.1737 33.3827 15.1737 33.3827 15.0264 33.2328H14.6828H14.4374V33.5577H14.2657C14.2657 33.3827 14.2657 33.1828 14.0939 32.983H13.8485C13.8485 33.2328 13.8485 33.2578 13.5294 33.3328V33.9824H13.284L13.1122 34.3822H12.9404C12.9224 34.1911 12.9224 33.9987 12.9404 33.8075H12.8668V34.0574H12.5478C12.5478 34.5072 12.8423 34.6321 12.8914 35.0569C12.4987 35.0569 12.6705 35.0569 12.4742 34.807V34.9819C12.4742 34.6821 12.4742 34.3822 12.646 34.0824H12.4005H12.057C12.057 33.9325 12.057 34.0824 12.057 33.9325C11.8606 34.2073 12.057 34.3073 11.6398 34.4322C11.4847 34.3568 11.3192 34.3062 11.149 34.2823V34.1074V34.6821H10.9035V34.4322H10.6581V34.5821H10.8054V34.9319L10.0937 34.9819C10.063 34.8759 10.063 34.7631 10.0937 34.6571H9.75013V34.9819C9.75013 35.1568 9.75013 34.9819 9.75013 35.1568C9.68245 35.0198 9.62503 34.8778 9.57834 34.732H9.33293C9.11207 34.857 9.16115 34.9319 8.81757 34.9819C8.81757 34.732 8.96482 34.757 8.98936 34.4822C9.0139 34.2073 8.76849 34.4822 8.57217 34.6321H8.42492V34.9819H8.57217C8.42492 35.2318 8.27767 34.9819 8.25313 35.4567H8.57217C8.61504 35.5493 8.67314 35.6338 8.74395 35.7065V35.8815C8.74395 35.8815 8.54762 35.7315 8.42492 35.8815L8.25313 36.1313H8.00772V35.9564H7.63961C7.63961 35.8315 7.86048 35.7565 7.88502 35.7065V35.5566H7.29604V35.8815H6.90338V36.1313C7.22242 36.1313 7.41874 36.1313 7.56599 36.2812H7.63961C7.59805 36.4451 7.59805 36.6171 7.63961 36.781H6.7316V37.0309C6.606 36.8342 6.52239 36.6129 6.48619 36.3812H5.99537C5.99537 36.731 5.99537 36.806 5.82359 36.9559C5.82768 37.0391 5.82768 37.1225 5.82359 37.2058H6.06899C6.05746 37.3721 6.05746 37.5391 6.06899 37.7055C6.11576 37.7541 6.11576 37.8318 6.06899 37.8804C6.06899 38.0303 6.06899 37.8804 6.06899 38.0303V37.5306H5.79904V37.9554V38.1053V37.7805C5.79904 37.5556 5.79904 37.5806 5.55364 37.5306C5.30823 37.4806 5.55364 37.3557 5.79904 37.2807C5.18552 37.4806 5.18552 37.4806 4.84195 37.4806C4.84195 37.9054 5.06282 37.9554 5.08736 38.4051H4.91557V38.1553H4.572C4.572 38.5051 4.76833 38.4301 4.84195 38.73C4.63921 38.6342 4.4425 38.5257 4.25297 38.4051V38.5551H4.00756C3.94536 38.7547 3.86313 38.9473 3.76215 39.1298H3.51674V38.5551H3.27133V38.9799C3.27133 39.1548 3.27133 39.2047 3.27133 39.2047V39.6045V39.8544L3.00138 39.9793V39.7545L2.73143 39.9793C2.31424 40.1043 2.48602 40.2042 2.31424 40.4791L2.06883 40.654V40.9039V41.0538C2.06883 41.2287 2.06883 41.0538 2.06883 41.2287C2.08998 41.1215 2.08998 41.0111 2.06883 40.9039C2.21607 40.9039 2.06883 40.9039 2.21607 40.9039C2.18571 41.0848 2.06473 41.2364 1.89704 41.3037C1.89704 41.5285 1.89704 41.6035 2.06883 41.7284V42.0533L2.01975 42.478C1.8725 42.7279 2.01975 42.9028 1.67617 43.0527C1.3326 43.2027 1.67617 43.0528 1.67617 43.2277C1.67617 42.7779 1.67617 42.9278 1.67617 42.553C1.67617 42.553 1.67617 42.553 1.50439 42.553V43.0527H1.67617V43.4775C1.70942 43.6086 1.70942 43.7462 1.67617 43.8773C1.35714 43.8773 1.43077 43.8773 1.16082 43.7274C1.16082 44.1022 1.16082 44.1772 1.16082 44.452V44.6269H0.694539C0.755009 44.7326 0.7808 44.8551 0.768162 44.9768H0.939948V44.8268C1.06941 44.8287 1.1929 44.8826 1.28352 44.9768C1.28352 45.2016 1.13627 45.2016 1.01357 45.3765C0.956145 45.4496 0.956145 45.5534 1.01357 45.6264V46.1262H0.768162C0.768162 46.401 0.768162 46.501 0.768162 46.7009V46.8508C0.725531 46.6028 0.725531 46.3492 0.768162 46.1012C0.596375 46.1012 0.768162 46.1012 0.596375 46.1012H0.277344V46.351V46.9257C0.304879 47.1163 0.304879 47.3099 0.277344 47.5005L0.277344 47.6754C0.277344 47.6754 0.424589 47.5504 0.522753 47.6754C0.743621 47.8253 0.522753 47.9252 0.841784 48.0752H0.44913C0.367068 48.205 0.308861 48.3489 0.277344 48.4999V48.8248V49.0746H0.44913V49.3995H1.01357C1.01357 49.0996 1.18536 48.8997 1.01357 48.7248H1.60255V48.9747C1.82342 48.9747 1.84796 48.9747 1.94612 49.2246C2.04429 49.4744 2.19153 49.2246 2.26516 48.9747C2.8296 48.9747 2.58419 48.9747 2.85414 49.2246C2.85414 49.2246 2.85414 48.6748 3.19771 48.4999C3.34496 48.4999 3.32041 48.6998 3.3695 48.7248C3.40018 48.6188 3.40018 48.506 3.3695 48.4C3.50493 48.4457 3.65125 48.4457 3.78669 48.4H4.0321V48.2251H4.27751V48.0502H5.18552C5.19257 48.0005 5.19257 47.95 5.18552 47.9002H5.43093V47.7253H5.92175V47.5754H6.16716V47.4005C6.16716 47.4005 6.68252 47.5504 6.92793 47.4005V47.1506H7.17333V47.0007H7.63961L7.88502 46.8258C7.95165 46.9287 8.00914 47.0374 8.05681 47.1506H8.54762V46.8258C8.981 46.9495 9.43946 46.9495 9.87283 46.8258H10.0937V46.476C10.2302 46.5573 10.3475 46.6682 10.4373 46.8008C10.7563 46.8008 10.6581 46.8008 10.9281 46.6509C11.198 46.501 10.9281 46.6509 11.0999 46.6509V46.2511V46.8258H11.2717C11.2717 46.526 11.2717 46.2261 11.4434 45.9263C11.6226 46.0785 11.7582 46.277 11.8361 46.501L13.4313 46.351V46.1761H13.6767H13.9466C14.2411 46.1761 14.2902 46.1761 14.3393 45.9263H14.6828C14.8546 45.9263 14.9773 45.8013 15.1 45.7514C15.1 45.7514 15.1 45.7514 15.4191 45.7514V45.5015C15.5222 45.6009 15.6055 45.7197 15.6645 45.8513H16.0817V45.6764C16.3025 45.6764 16.4253 45.8513 16.5725 45.8513H16.7443H16.8915C17.2596 45.7264 17.5541 46.0762 17.7259 46.0012C17.7889 45.9222 17.8463 45.8387 17.8977 45.7514H18.0695C18.1415 45.8591 18.2605 45.9244 18.3885 45.9263V45.4265H18.6339V45.6764C18.9039 45.6764 18.9284 45.8263 19.2229 45.8513C19.5174 45.8763 19.2229 45.5015 19.5419 45.4265V45.7514H20.2045H20.5481C20.7444 45.7514 20.9408 45.7514 21.0389 45.7514H21.4561V45.9013C21.8488 46.0512 21.9224 45.7264 22.0451 45.6514H22.3887C22.3887 45.4765 22.3887 45.6514 22.3887 45.4765V45.8013C22.8304 45.6514 22.3887 45.6764 22.6341 45.3765C22.6341 45.3765 22.6341 45.3765 22.8059 45.3765C22.9777 45.3765 22.9777 45.3765 23.0513 45.7014H23.6403C23.6403 45.7014 23.6403 45.4765 23.8857 45.5265V45.7014H24.4747H24.6219L25.0391 45.5265V45.7763C25.2354 45.7763 25.2109 45.7763 25.3581 45.6014V44.9768C25.0636 44.9768 25.0391 45.1017 24.7937 45.1517C24.8227 45.0351 24.8726 44.9249 24.9409 44.8268C25.2175 44.7996 25.4929 44.89 25.7017 45.0767C25.7017 45.2266 25.7017 45.4015 25.7017 45.5515H26.0453V45.7264H26.2907C26.3206 45.5864 26.3206 45.4415 26.2907 45.3016C26.4625 45.4515 26.4625 45.4265 26.2907 45.6514V45.4015C26.487 45.4015 26.8797 45.5764 26.9533 45.5764H27.1987C27.6404 45.4015 27.5423 45.7514 27.8613 45.5764C27.866 45.5182 27.866 45.4597 27.8613 45.4015H28.1067C28.1067 45.2516 28.1067 45.4015 28.1067 45.2516V45.4765H27.9349C27.929 45.5597 27.929 45.6432 27.9349 45.7264C28.3276 45.7264 28.4994 45.7264 28.5975 45.4765H28.9166V45.7264V45.5764H29.0884V45.4015C29.3583 45.4015 29.3583 45.5515 29.5055 45.5764C29.4929 45.5189 29.4929 45.4591 29.5055 45.4015H32.1805V45.6514L33.2603 45.4765H33.7511V45.6264H34.3401H34.7573C34.8839 45.5232 35.0244 45.4391 35.1745 45.3765C35.1745 45.3765 35.1745 45.3765 35.3463 45.3765V45.6014H35.5917H35.7635H36.5979L36.7451 45.8513C37.0396 45.8513 37.0151 45.8513 37.0887 45.6014H37.2605V45.4515H37.4077C37.555 45.1017 37.4077 44.7019 37.2605 44.3771C37.604 44.3771 37.3832 44.527 37.5059 44.6269C37.5059 44.6269 37.7758 44.477 37.9231 44.6269C37.9984 44.7166 38.0804 44.8001 38.1685 44.8768C38.2912 44.6519 38.4384 44.577 38.5121 44.3021H38.6593V44.8018V45.0517C38.4715 45.0688 38.2826 45.0688 38.0949 45.0517V44.9768H37.8494V45.5515H37.6777V45.7014H38.0949V45.8763L38.8556 45.7014V45.4765H39.1992V45.9013H39.0274C39.0381 46.0093 39.0381 46.1181 39.0274 46.2261H39.3464C39.3338 46.1685 39.3338 46.1088 39.3464 46.0512H39.4937V46.3011C39.7882 46.3011 39.8127 46.3011 39.9845 46.1511H40.2299C40.3526 46.0012 40.2299 46.1511 40.2299 45.9762C40.4017 46.401 40.2299 46.2511 40.6471 46.476H40.8925H41.1625V46.2261H41.5551L41.8251 46.6259C42.1111 46.6116 42.3892 46.5258 42.6349 46.376L42.8803 46.8008H43.1503C43.1503 46.6259 43.1503 46.8008 43.1503 46.6259H43.3957C43.3957 46.9258 43.5429 46.8008 43.5675 47.2006C43.5675 47.2006 43.7147 47.2006 43.8865 47.2006V47.3505H44.2055L44.451 47.6004C44.4883 47.5307 44.5494 47.4774 44.6227 47.4505C44.6453 47.3434 44.6453 47.2327 44.6227 47.1256V46.7009V46.451L45.0154 46.2011V45.9513C45.0154 45.9513 45.1872 46.2011 45.0154 46.376C45.0154 46.9258 45.0154 46.7508 45.2608 46.8508C45.5062 46.9507 45.2608 47.0007 44.9418 47.0257V47.2006H45.2853C45.2853 46.8508 45.2853 46.9257 45.5308 46.7009C45.7762 46.476 45.7271 46.8258 46.0216 46.8508V46.6009C45.8252 46.6009 45.8498 46.6009 45.7025 46.451C45.9725 46.451 46.0706 46.6759 46.2915 46.7758C46.3033 46.9755 46.3033 47.1758 46.2915 47.3755H46.4633V47.4755C46.4514 47.7002 46.4514 47.9254 46.4633 48.1501C46.6596 48.1501 46.7087 47.8753 46.7087 47.5504C46.7087 47.2256 47.175 47.3006 47.3713 47.5504V47.2256C47.5053 47.2798 47.6545 47.2798 47.7885 47.2256C47.7885 47.2256 47.7885 47.1007 48.0339 47.0507C48.2793 47.0007 48.3039 46.6759 48.3775 46.3011H49.3591C49.3591 46.5509 49.2364 46.8008 49.1873 47.0507C49.1383 47.3006 48.991 47.2256 48.6965 47.3006C48.402 47.3755 48.402 47.6254 48.3775 48.0502C48.353 48.4749 48.3775 48.0502 48.2057 48.0502L48.4757 48.45H48.8683C48.8683 48.1251 48.991 48.2001 49.1383 47.9752C49.2855 47.7503 49.2855 47.9752 49.3837 48.1251C49.4818 48.2751 49.6536 48.1251 49.7027 47.8753C49.7518 47.6254 49.5064 47.8753 49.4573 47.6254H49.7027H49.9481C49.9481 47.8503 49.9481 47.8003 49.7027 47.8753C49.6656 48.0902 49.6656 48.31 49.7027 48.5249H50.1199V48.2751C50.2917 48.2751 50.1199 48.2751 50.2917 48.2751C50.2917 48.5499 50.1199 48.4999 49.8745 48.5999C49.8875 48.8247 50.0705 49.0001 50.2917 48.9997V49.2495C50.5125 49.2495 50.4635 49.2495 50.5371 48.9997H50.8561C50.8632 48.95 50.8632 48.8995 50.8561 48.8498H51.0279C51.0279 49.2246 50.807 49.2246 50.758 49.5744H51.0279C51.0279 49.2995 51.0279 49.1746 51.3469 48.9997H51.7641H52.1813V48.5999H52.4267V48.7498C52.6231 48.7498 52.6231 48.7498 52.7703 48.9247V49.3995C52.7703 49.6493 52.7703 49.5994 52.5249 49.6493V49.8243C52.6967 49.8243 52.5249 49.8243 52.6967 49.8243C52.4513 50.274 52.255 50.274 52.3777 50.8987C52.5985 50.8987 52.574 50.8987 52.6231 51.1486H52.8685V50.8987H53.1139C53.1139 50.8987 52.9176 51.2485 53.1139 51.3984H53.3593C53.3444 51.6147 53.3444 51.8318 53.3593 52.0481H53.5311V51.8732H53.7765C53.7765 51.6733 53.6292 51.6733 53.6047 51.6233V51.3984C53.8256 51.3984 53.801 51.3984 54.0219 51.5484V51.7233C54.3164 51.7233 54.1691 51.7233 54.4391 51.7233C54.709 51.7233 54.4391 51.7233 54.4391 51.8732V52.0481H54.6845V52.298C54.6845 52.4729 54.6845 52.298 54.6845 52.4729H54.4391V52.1481H54.0955C54.079 52.0404 54.079 51.9308 54.0955 51.8232C53.7519 51.8232 53.9728 51.9731 53.8501 52.0481H53.5065V52.3729H54.2673V52.6228H54.6109V53.1225H54.7581C54.7581 53.2975 54.7581 53.2725 54.9299 53.3724V53.5473C55.0526 53.6973 55.2489 53.7472 55.3471 53.9471H55.5189C55.5189 53.7972 55.5189 53.6973 55.3471 53.6223H55.5189C55.5189 53.6223 55.5189 53.6223 55.6661 53.6223C55.8134 53.6223 55.6661 53.6223 55.8379 53.6223C55.7282 53.9117 55.7282 54.2324 55.8379 54.5218C55.9503 54.4898 56.0691 54.4898 56.1815 54.5218C56.3042 54.9216 56.4024 54.7467 56.6723 54.9216V55.0965V55.2714V55.9211H56.5005C56.4457 56.0865 56.519 56.2678 56.6723 56.3459V56.7457H56.9177V57.0955H56.5005C56.5005 57.0955 56.5005 57.0955 56.3533 57.2454C56.3631 57.3284 56.3631 57.4123 56.3533 57.4953H56.8441C56.8441 57.8451 56.7214 57.7202 56.6723 58.07H56.4269C56.4269 58.5198 56.6723 58.6447 56.8441 58.9945C56.8556 59.1525 56.8556 59.3112 56.8441 59.4693V59.7191C56.8441 60.019 56.8441 60.3188 56.8441 60.6187V60.7936V61.2184H56.6723C56.6723 61.4682 56.6723 61.7931 56.6723 61.968C56.6558 62.0756 56.6558 62.1852 56.6723 62.2928C56.9177 62.2928 56.6723 62.2928 56.9177 62.2928C56.9314 62.3755 56.9314 62.46 56.9177 62.5427C56.7459 62.5427 56.9177 62.5427 56.7459 62.5427C56.5742 62.5427 56.5987 63.0424 56.3287 63.2173C56.3504 63.3613 56.4431 63.4839 56.5742 63.5422C56.5742 63.892 56.4269 63.917 56.157 64.0419C56.157 64.5416 56.3287 64.2168 56.5742 64.4417C56.5742 64.7415 56.5742 64.6166 56.3287 64.7915V64.9414V65.1913V65.4412C56.3287 65.5911 56.0833 65.6411 56.0097 65.6911C56.0097 66.3157 56.2797 66.5656 56.3287 67.1653C56.1457 67.1335 55.9897 67.012 55.9115 66.8405C55.8088 67.0496 55.7582 67.2813 55.7643 67.5151V68.0149V68.1648V68.3397H55.5925C55.5925 68.5146 55.7643 68.9144 55.7643 69.0143C55.6267 69.1815 55.5112 69.3663 55.4207 69.5641V70.3137H55.6661V70.4636C55.3962 70.4636 55.3471 70.6635 55.2489 70.8884C55.2489 71.0133 55.4453 71.1133 55.3962 71.2882V71.638C55.2489 71.8379 55.2244 71.8379 55.2244 72.2127H55.4698C55.4698 72.4376 55.3226 72.4376 55.298 72.4626C55.2735 72.4875 55.298 72.6874 55.298 72.7874H55.1262V73.1372C55.1262 73.462 55.1262 73.512 55.3962 73.612C55.2244 73.8368 55.1753 73.612 55.1262 74.0367H55.3962H55.0526C55.0944 74.2596 55.0944 74.4885 55.0526 74.7114V74.9613C55.0456 75.011 55.0456 75.0615 55.0526 75.1112C55.2735 75.1112 55.0526 75.1112 55.298 75.1112C55.3146 75.2188 55.3146 75.3284 55.298 75.436H54.8808V76.1107H55.1999V76.3356C55.0526 76.3356 55.1999 76.3356 55.0526 76.3356C55.0526 76.4605 55.0526 76.7853 55.0526 76.9103V77.41H55.2244V77.6599H54.8072V78.4095V79.9587V80.6083C54.8072 80.8332 54.8072 80.8582 54.8072 80.8582C54.8252 81.0963 54.7647 81.3337 54.6354 81.5329C55.0035 81.5329 55.0772 81.5329 55.1508 81.208C55.1508 81.7578 55.0035 81.6578 54.9054 82.0326H54.66V82.4574H54.8072C54.828 82.6299 54.7743 82.8031 54.66 82.9321C54.66 82.9321 54.8072 83.207 54.66 83.4319C54.5127 83.6568 54.66 83.4319 54.66 83.6068C54.66 83.7817 54.8072 83.6068 54.66 83.7567L54.4146 83.9316H54.66C54.6714 84.0897 54.6714 84.2483 54.66 84.4064C54.66 84.4064 54.7827 84.4064 54.66 84.5813C54.6715 84.7477 54.6715 84.9147 54.66 85.081H54.4146V85.5058V85.7307H54.1691C54.1691 86.0305 54.1691 86.0805 54.5127 86.1305C54.5127 86.5553 54.2182 86.3554 54.0955 86.5553V86.7052C54.2673 86.7052 54.0955 86.7052 54.2673 86.7052V86.9551L54.4391 87.4298H54.0955C54.0506 87.5677 54.0506 87.7167 54.0955 87.8546C54.2182 88.1794 53.9237 88.3793 53.9237 88.5043C53.8784 88.5721 53.8784 88.6613 53.9237 88.7292V88.9041C53.9237 89.1289 53.7274 89.054 53.7519 89.2289V89.5537H53.6047C53.6047 89.8286 53.7274 89.8036 53.7519 89.8786V90.2034C53.7519 90.5032 53.6292 90.8031 53.5802 91.1029H54.2673V91.5277H54.4391V92.0275H54.6845V92.2773H54.2673C54.2997 92.3974 54.3585 92.5085 54.4391 92.6022V92.852C54.4391 93.3018 54.4391 93.0019 54.1201 93.1769C53.801 93.3518 54.1201 93.1769 53.9483 93.3268H54.1201V93.5766H54.3655V93.7516H54.1201V94.9509H53.9483V95.1009V95.9254H54.0955V96.1003V96.2753V96.75C54.2182 96.9249 54.2918 96.9499 54.3409 97.1748C54.3409 97.3497 54.3409 97.3747 54.1691 97.4247C53.9974 97.4746 54.1691 97.4247 54.3409 97.6745H54.5127C54.5127 97.6745 54.5127 97.6745 54.66 97.8494V97.9994C54.8129 98.0065 54.9625 97.9527 55.0772 97.8494H55.6661C55.715 97.7605 55.7726 97.6768 55.8379 97.5996H56.0833H56.3287C56.3287 97.5996 56.3287 97.4497 56.5005 97.4247C56.6723 97.3997 56.5005 97.0499 56.5005 96.775V96.2753V96.675C56.4868 96.7578 56.4868 96.8422 56.5005 96.9249C56.9423 96.9249 56.795 96.9249 57.065 96.675H57.2368L57.4085 96.4502H57.7276L58.1448 96.1253V95.7006V95.4507V94.876C58.1448 94.7011 58.3656 94.5012 58.292 94.2013C58.292 94.0514 58.4147 93.8765 58.4638 93.7016V93.2268C58.7324 92.6783 59.3157 92.3663 59.9117 92.4522C60.0344 92.0274 59.6418 91.6526 59.7399 91.3778H59.9117V91.1279V90.953C59.8998 90.7116 59.8998 90.4698 59.9117 90.2284V89.9535C59.9117 89.6787 59.9117 89.4038 60.0835 89.1289C60.0723 88.9959 60.0723 88.8622 60.0835 88.7292V87.3299V86.0805V84.7562V83.8567L60.3289 83.6818L60.1817 82.9321V81.7827V81.5579C60.1817 81.308 60.3289 81.358 60.3289 81.308V80.9582H60.5743V79.8837V79.309V78.9092C60.5743 78.5594 60.378 78.5844 60.4025 78.3095C60.4025 77.9847 60.4025 77.6599 60.4025 77.335V76.2606H60.5743V75.7609V75.5859C60.5743 75.2861 60.2798 75.2861 60.4271 74.9363L60.6725 74.7614C60.6725 74.6364 60.5007 74.1867 60.5007 74.1117V73.612C60.5007 73.3371 60.5007 73.0622 60.5007 72.7874C60.5007 72.5125 60.6234 71.9128 60.6725 71.4881V70.4886V69.664C60.6725 69.664 60.6725 69.664 60.6725 69.4891V68.4396V68.0898V67.5151H60.5007C60.5007 67.3902 60.7461 67.1903 60.7461 67.1903V66.4407V65.3662H60.9179C60.9179 65.1913 60.9179 65.0164 60.9179 64.9414H61.0897C61.0897 64.7665 61.0897 64.7166 61.0897 64.6166H61.3351V64.1918C61.3351 63.892 61.3351 63.5921 61.3351 63.2923V63.1174V62.7925H61.5069C61.5069 62.4927 61.3842 62.1929 61.3351 61.868C61.7032 61.6931 61.7768 61.5932 61.6541 61.0684C61.6541 61.0684 61.5314 61.0684 61.6541 60.8935H61.8259V59.969C61.8144 59.811 61.8144 59.6523 61.8259 59.4943C61.8259 59.4943 61.6787 59.4943 61.6541 59.3193L61.8995 59.1694V58.6697H62.0713V58.3449H62.2186V57.5203V57.3454H62.3903C62.3785 57.204 62.3785 57.0619 62.3903 56.9206C62.3903 56.6957 62.3903 56.4458 62.5621 56.196H62.7094V55.7712C62.8812 55.5713 63.0284 55.7712 63.1266 55.3714H62.8566H62.7094C62.7094 55.1965 62.7094 55.0216 62.7094 54.7967V54.2969C62.7506 54.167 62.7506 54.0271 62.7094 53.8971H62.9548C62.9398 53.6975 62.9398 53.4971 62.9548 53.2975H62.6357V52.4729C62.783 52.4729 62.6357 52.4729 62.783 52.4729C62.8643 52.2043 62.8643 51.9169 62.783 51.6483C62.8112 51.4249 62.869 51.2063 62.9548 50.9986V50.4989V50.349V49.5994H63.1266V49.0247H63.2738V48.8747C63.2738 48.45 63.2738 48.0502 63.2738 47.6254C63.2738 47.2006 63.5192 47.2756 63.4456 46.9757V45.4015C63.2984 45.2016 63.2984 45.4015 63.2002 45.0767H63.0284V44.6519C63.0284 44.6519 63.1756 44.6519 63.2002 44.502H63.0284V44.3271V44.0772L62.783 43.9273C62.783 43.6774 62.783 43.3526 62.783 43.1777H62.5376V43.0278C62.5376 43.0278 62.5376 42.8778 62.5376 42.7029H62.194C62.1504 42.9172 62.1504 43.1383 62.194 43.3526L61.4332 43.5275V43.9273V44.3521C61.4332 44.3521 61.2124 44.3521 61.2615 44.6019H61.4332C61.4332 44.7269 60.9179 44.9268 61.4332 45.2516V45.5015H61.1878L60.9424 45.6514C60.8197 45.8013 60.9424 45.6514 60.9424 45.8263V46.0762C60.9424 46.0762 61.1878 46.3261 61.3596 46.2261V46.476H61.1142V46.7259H60.9424C60.9424 47.0507 60.9424 47.4005 60.7706 47.7253C60.5919 48.0208 60.4827 48.3543 60.4516 48.6998H60.6234C60.6125 48.8162 60.6125 48.9333 60.6234 49.0497C60.5089 49.0792 60.4007 49.13 60.3044 49.1996V49.3745H60.4516C60.4516 49.4994 60.3289 49.3745 60.3044 49.5494V49.8742H60.5498H60.2062C60.2062 50.0741 60.2062 50.249 60.2062 50.4489V51.1985C60.2062 51.1985 60.059 51.5983 60.2062 51.7732H60.378C60.378 51.7732 60.1817 52.0981 60.378 52.273C60.378 52.4729 60.378 52.4479 60.2062 52.5978H59.9608C59.9608 52.323 59.9608 52.0481 59.9608 51.7732H59.8135V51.4484V51.1236V50.6238H59.6418C59.651 50.5492 59.651 50.4736 59.6418 50.399H59.2491C59.0979 50.1218 59.0059 49.8153 58.9792 49.4994H58.5865L58.7337 49.0746H58.5865C58.5865 48.8498 58.5865 48.6249 58.5865 48.425H58.4393C58.4333 48.3418 58.4333 48.2583 58.4393 48.1751H58.2675V47.4755C58.2675 47.4755 58.2675 47.2256 58.2675 47.1506H58.0957C58.0957 46.8758 58.0957 47.0007 57.8503 46.8258V46.6509V46.2511H57.5067C57.4952 46.0847 57.4952 45.9177 57.5067 45.7514C57.38 45.7374 57.2604 45.6852 57.1631 45.6014H56.9913V45.4515H56.6478C56.7705 45.0767 56.6478 45.4515 56.6478 44.9518H56.4024H56.2306C56.2306 44.0272 55.7888 44.7019 55.568 44.3021V43.8773C55.568 43.7524 55.3471 43.8773 55.2489 43.8773C55.2489 43.7024 55.3716 43.8773 55.2489 43.7024C55.1262 43.5275 54.9545 43.5025 54.7581 43.3776C54.651 43.2299 54.5363 43.0882 54.4146 42.9528H54.0219C53.9633 42.8712 53.8748 42.8171 53.7765 42.8029V42.478C53.7765 41.926 53.337 41.4786 52.7948 41.4786C52.2527 41.4786 51.8132 41.926 51.8132 42.478V42.2282V41.9783H51.6414H51.396H51.1506H50.9052V41.7284C50.9052 41.7284 50.5862 41.7284 50.488 41.5535C50.4172 41.4808 50.3591 41.3963 50.3162 41.3037H50.1444L49.9726 41.0788H50.3898V40.9039H51.4696H52.1322H52.3777C52.4463 40.8082 52.5291 40.7239 52.6231 40.654V40.9039H53.1384C53.1674 40.7873 53.2173 40.6771 53.2857 40.579C53.4938 40.5466 53.706 40.6006 53.8747 40.7289H54.2673C54.2673 40.7289 54.4636 40.9039 54.66 40.7289C54.668 40.6709 54.668 40.6121 54.66 40.554H55.6416C55.6289 40.6116 55.6289 40.6714 55.6416 40.7289C55.8625 40.7289 55.9115 40.5041 55.9606 40.4791H56.5251C56.6388 40.4986 56.7549 40.4986 56.8686 40.4791H57.2858V40.654H57.4576H57.8503H58.1202H58.292H59.1755L59.3473 40.9039C59.5666 40.8666 59.7905 40.8666 60.0099 40.9039V40.7289L60.5743 40.579C60.5784 40.6623 60.5784 40.7457 60.5743 40.8289C60.9179 40.8289 60.9915 40.8289 61.0651 40.4791C61.1704 40.5006 61.2789 40.5006 61.3842 40.4791C61.3842 40.8289 61.3842 40.7539 61.556 40.9788H61.7277C61.7996 40.8438 61.8572 40.7014 61.8995 40.554H62.2186C62.2186 40.554 62.2186 40.3791 62.3903 40.3791L62.8812 40.5291C63.0039 40.5291 63.3229 40.3042 63.5438 40.3791C63.7646 40.4541 63.8628 40.7539 64.3045 40.629H64.4518C64.5031 40.5915 64.5722 40.5915 64.6236 40.629H64.9671C65.1256 40.6883 65.2995 40.6883 65.458 40.629C65.673 40.5499 65.8948 40.4913 66.1206 40.4541C66.1206 40.629 66.1206 40.4541 66.1206 40.629C66.1206 40.8039 66.8077 40.3541 67.1267 40.2792V40.5291H67.9611H68.5501H68.9918C69.0589 40.6404 69.1163 40.7575 69.1636 40.8789H69.409C69.7771 40.8789 69.9244 40.8789 70.0716 40.629V40.3791H70.317C70.317 40.579 70.317 40.5291 70.1453 40.629V41.1287H70.5625V40.8039H71.4705C71.4624 40.8619 71.4624 40.9208 71.4705 40.9788C71.6668 40.9788 71.7159 40.7789 71.8631 40.8039H72.0349C72.1092 40.8544 72.206 40.8544 72.2803 40.8039H72.9429C72.9349 40.7459 72.9349 40.687 72.9429 40.629H73.0902V41.0288H73.9V40.7789H75.3234V41.1038H75.8142C76.0842 41.1038 76.0596 41.1038 76.305 41.1038V40.8539C76.5464 40.9005 76.7589 41.0448 76.894 41.2537C77.164 41.2537 77.0413 41.2537 77.213 41.0038C77.4339 41.0038 77.4585 41.2037 77.5566 41.2537H77.7039C77.7213 41.1461 77.7213 41.0364 77.7039 40.9288C77.6946 41.0035 77.6946 41.0791 77.7039 41.1537H78.0965L78.2683 41.4036H78.5137H78.9309V41.2287H79.0781C79.121 41.3213 79.1791 41.4058 79.2499 41.4786V41.3286C79.5444 41.3286 79.7898 41.3286 79.9862 41.3286C80.0604 41.2781 80.1573 41.2781 80.2316 41.3286V41.4786H80.5506H81.2132C81.2132 41.4786 81.2132 41.4786 81.385 41.4786H81.6304L81.8022 41.7284H82.4648C82.5391 41.6779 82.6359 41.6779 82.7102 41.7284H83.201C83.6735 41.791 84.1519 41.791 84.6244 41.7284V41.8784H85.1152H86.1705C86.1624 41.9364 86.1624 41.9952 86.1705 42.0533C86.6122 42.0533 86.5877 42.0533 86.5877 41.4786L86.8331 41.6285V41.9783H87.3975V41.8034H87.7165C87.8301 41.8245 87.9465 41.8245 88.0601 41.8034V41.1537H88.6246C88.5942 41.2852 88.5942 41.422 88.6246 41.5535C88.9305 41.5928 89.2337 41.6512 89.5326 41.7284V42.553V42.8778C89.5658 42.7467 89.5658 42.6092 89.5326 42.478H89.7044V42.8778C89.5326 42.8778 89.7044 42.8778 89.5326 42.8778C89.5441 43.0692 89.5441 43.2612 89.5326 43.4525V44.0272V43.7024C89.4099 43.7024 89.5326 43.7024 89.3608 43.8773C89.189 44.0522 89.1645 43.7524 88.9436 43.7024C88.9606 43.952 88.9606 44.2025 88.9436 44.452H88.6246C88.6246 44.2771 88.6246 44.452 88.6246 44.2771H88.2074V44.6269H87.9374H87.7902V45.4515C87.373 45.3266 87.6184 45.2516 87.4711 44.9518C87.4472 44.9619 87.4226 44.9702 87.3975 44.9768H87.2257C87.1828 45.0694 87.1248 45.1539 87.0539 45.2266C87.0539 45.5015 87.0539 45.7763 86.8822 46.0512H86.6613V45.8763C86.4895 45.8763 86.6613 45.8763 86.4895 45.8763C86.3512 45.8554 86.2106 45.8554 86.0723 45.8763C86.0669 46.1131 86.1264 46.3467 86.2441 46.5509H86.4895C86.4895 46.8508 86.4895 46.9008 86.8085 46.9757C86.8171 46.7771 86.7243 46.5881 86.5631 46.476C86.5631 46.2011 86.5631 46.2011 86.8085 46.1511C87.0539 46.1012 86.8085 46.1511 86.9803 46.1511V46.476H87.2503C87.2671 46.6672 87.2671 46.8595 87.2503 47.0507H87.103C87.103 47.2256 87.103 47.0507 87.103 47.2256C87.103 47.4005 87.103 47.4505 87.2748 47.6254C87.4466 47.8003 87.6429 47.6254 87.7656 47.4755V47.2256C87.7278 47.0089 87.5612 46.8393 87.3484 46.8008V46.6509H87.6675V46.1511H88.0846C88.0846 46.3011 88.0846 46.1511 88.0846 46.3011H88.5755V45.6514H89.2381V45.1517H89.5571V45.5515C89.6067 45.6271 89.6067 45.7257 89.5571 45.8013V46.1262C89.4447 46.1581 89.3259 46.1581 89.2135 46.1262C89.2135 46.1262 89.2135 46.1262 89.0417 46.3011H89.2872V46.6259H89.0172C89.0172 46.401 89.0172 46.376 88.7718 46.3011C88.6383 46.4752 88.4713 46.6197 88.281 46.7259C88.2752 46.8739 88.3282 47.018 88.4282 47.1256V47.3006H89.0172V47.1256C89.3362 47.1256 89.2381 47.1256 89.508 46.9757V46.5509H89.6798V46.7259H90.097C90.097 46.5759 90.097 46.7259 90.097 46.5759C90.097 46.426 90.416 46.5759 90.686 46.5759C90.7478 46.4745 90.8318 46.389 90.9314 46.3261C91.0541 46.3261 91.2259 46.3261 91.4222 46.476C91.4222 46.2261 91.4222 46.2511 91.2504 46.1511H91.6676C91.7419 46.2017 91.8388 46.2017 91.913 46.1511H92.0848V46.0012C92.2321 46.0012 92.0848 46.0012 92.2321 46.0012H92.8947C92.9061 45.8432 92.9061 45.6845 92.8947 45.5265H93.3119V45.7763H93.5573V44.9768L94.318 44.7269V44.552L94.4898 44.3771H94.6371V44.2271H95.1279C95.1703 44.1114 95.2281 44.0021 95.2997 43.9023H95.7169C95.9623 43.9023 95.8641 43.7774 95.9623 43.7274H96.2813C96.5267 43.6025 96.2813 43.4026 96.7721 43.3276C96.7721 43.1527 96.7721 43.3276 96.7721 43.1527V43.4026C97.0831 43.3685 97.339 43.138 97.4102 42.8279H97.7538V43.0028H98.0973V42.8279H98.2691C98.4025 42.7039 98.5798 42.6407 98.7599 42.653C98.7599 42.4281 98.7599 42.3781 99.079 42.3281C99.398 42.2781 99.079 42.553 98.9317 42.8279C99.2753 42.8279 99.2753 42.628 99.4962 42.503H99.7416V41.9783C99.9134 41.9783 99.7416 41.9783 99.9134 41.9783C100.092 41.9784 100.265 41.9168 100.404 41.8034V41.6535H100.576H100.748V41.4786H100.92V41.8784C101.165 41.8784 101.116 41.7534 101.41 41.7284C101.705 41.7034 101.41 41.7284 101.41 41.5535V41.7284H101.656C101.666 41.6454 101.666 41.5616 101.656 41.4786C101.901 41.4786 101.877 41.4786 101.901 41.1537C102.137 41.2632 102.384 41.347 102.637 41.4036H102.907V41.2287H103.963V40.654C104.453 40.654 104.404 40.9788 104.969 40.9788C104.969 40.8289 104.969 40.9788 104.969 40.8289C105.175 40.7091 105.399 40.6247 105.631 40.579V40.7289H105.877V40.4791H107.03C107.349 40.4791 107.374 40.4791 107.447 40.2542C107.521 40.0293 107.717 40.2542 107.791 39.9044C107.865 39.5546 107.791 39.9044 107.938 39.9044H108.355C108.363 39.7962 108.363 39.6877 108.355 39.5795C108.527 39.5795 108.355 39.5795 108.527 39.5795C108.699 39.5795 108.527 39.0798 108.527 38.8299C108.674 38.68 108.797 38.5051 108.944 38.3302C108.964 38.1977 108.964 38.0629 108.944 37.9304H108.625V37.7555C108.74 37.726 108.848 37.6752 108.944 37.6056C108.944 37.3057 108.773 37.3807 108.699 37.1058C108.625 36.831 108.699 37.1058 108.699 36.9309C108.699 36.756 108.92 36.9309 109.092 37.1058C109.101 37.0228 109.101 36.9389 109.092 36.856V36.2812C109.092 35.8815 108.92 35.4817 109.092 35.2818H109.337C109.337 35.0569 109.337 34.857 109.337 34.6321V34.3822L110 34.3073ZM1.35714 47.0757C1.3266 46.8268 1.3266 46.575 1.35714 46.3261H1.60255C1.58902 46.5843 1.53087 46.838 1.43077 47.0757H1.35714ZM1.77434 44.9768H1.35714C1.35714 44.7269 1.35714 44.7519 1.18536 44.6269V44.4021H1.35714C1.46951 44.3701 1.58835 44.3701 1.70072 44.4021C1.67126 44.5673 1.67126 44.7366 1.70072 44.9018L1.77434 44.9768ZM2.19153 44.3271C2.19153 44.3271 2.19153 44.1022 2.19153 44.0023C2.19153 44.1272 2.19153 44.2022 2.19153 44.2521V44.3271ZM3.34496 41.3536H3.09955V41.1787H3.34496V41.3536ZM4.25297 39.5296V39.2047C4.40021 39.2047 4.37567 39.2047 4.42475 39.4546L4.25297 39.5296ZM6.06899 47.4755H5.74996H6.16716H6.06899ZM8.98936 46.9008H9.16115V46.6509H9.13661L8.98936 46.9008ZM9.16115 35.7065C9.16115 35.7065 9.03844 35.4817 8.98936 35.3817H9.23477C9.23477 35.5566 9.23477 35.3817 9.23477 35.5566L9.16115 35.7065ZM9.57834 35.4567H9.82375V35.8815C9.85188 35.7751 9.85188 35.663 9.82375 35.5566L9.57834 35.4567ZM9.57834 36.9309C9.57834 36.681 9.45564 36.706 9.57834 36.5311V37.0309V36.9309ZM10.0937 45.5015H9.87283C9.87283 45.2766 9.87283 45.2766 10.0446 45.1767V44.9768H10.0937V45.4515V45.5015ZM10.8054 44.9768C10.8054 44.9768 10.8054 44.9768 10.8054 44.8018C10.8054 44.8018 10.8054 44.8018 10.9526 44.8018C10.9738 44.9091 10.9738 45.0195 10.9526 45.1267L10.8054 44.9768ZM10.8054 34.6821V34.3572H11.0508C11.0508 34.5821 11.0508 34.5571 10.8054 34.6071V34.6821ZM11.8852 44.9018H11.6398C11.6398 44.602 11.6398 44.477 11.9588 44.4021V44.9018H11.8852ZM11.8852 36.0064C11.6398 35.7815 11.8852 35.5316 11.8852 35.1818H12.057V36.0064H11.8852ZM12.3024 35.5816H12.7932H13.0386L12.3024 35.7315V35.4067V35.5816ZM12.5478 45.3516V45.1017H12.695V45.2766L12.5478 45.3516ZM13.2104 45.1017C13.2104 45.1017 13.2104 45.1017 13.2104 44.7769H13.3822C13.3822 44.9518 13.3822 44.7769 13.3822 44.9518L13.2104 45.1017ZM14.2166 43.6275C14.2166 43.7774 14.2166 43.6275 14.2166 43.7774V43.4525H14.3884L14.2166 43.6275ZM13.6276 34.1324H13.873C13.873 34.4072 13.873 34.3822 13.6276 34.4572V34.0324V34.1324ZM13.7748 44.9768H13.5294H13.8485H13.7748ZM14.0202 45.5515C14.2411 45.5515 14.2166 45.5515 14.2657 45.7763C14.3147 46.0012 14.0939 45.7763 14.0202 45.5515ZM14.3638 44.7269H14.1184C14.1184 44.552 14.1184 44.7269 14.1184 44.552C14.1184 44.552 13.8485 44.552 13.7994 44.7019C13.7503 44.8518 13.6521 44.427 13.4558 44.3021V44.1272H13.9466C14.0855 44.3469 14.2597 44.5412 14.462 44.7019L14.3638 44.7269ZM14.3638 43.4775H14.192V43.1527H14.2657V43.4775H14.3638ZM15.0019 42.1282H15.1737V42.478L14.9283 42.3281V42.1532L15.0019 42.1282ZM15.0019 44.3521C14.9707 44.187 14.9707 44.0174 15.0019 43.8523V44.3521ZM15.2473 43.1277C15.2473 43.1277 15.2473 43.1277 15.0755 42.8778C14.9037 42.628 15.0755 42.8778 15.2473 42.8778V43.1277ZM19.2229 40.9788C19.2229 40.9788 19.2229 40.9788 19.3947 40.9788V41.1537H19.002H19.2475L19.2229 40.9788ZM18.0695 40.8039H18.5603V41.1287H18.0695V40.8789V40.8039ZM17.5787 42.2781V42.7029H17.2596C17.2596 42.7029 17.2596 42.478 17.2596 42.3781H17.0142V42.2282C17.1951 42.3276 17.3977 42.3791 17.6032 42.3781L17.5787 42.2781ZM17.4069 41.1287V41.3786C17.186 41.3786 17.2106 41.3786 17.1615 41.1287H17.4069ZM17.0879 33.9824C17.1044 34.0901 17.1044 34.1996 17.0879 34.3073C17.0879 33.9824 17.0879 33.9574 17.3333 33.9075L17.0879 33.9824ZM16.0081 34.6321C16.1798 34.6321 16.0081 34.6321 16.1798 34.6321H16.4989C16.3516 34.882 16.2044 34.857 15.9344 34.9569C15.9344 35.4567 15.9344 35.5566 16.3516 35.7065V35.9564C16.1062 35.8065 15.9835 35.6066 15.689 35.5316L16.0081 34.6321ZM15.3455 43.5275H15.7626C15.7626 43.5275 15.5172 43.5275 15.4191 43.3526L15.3455 43.5275ZM15.689 44.6769H16.0081V44.527H15.689V44.6769ZM16.0081 42.1782H16.2535C16.2397 42.2609 16.2397 42.3454 16.2535 42.4281C16.1396 42.4455 16.0238 42.4455 15.9099 42.4281V42.0783L16.0081 42.1782ZM16.3516 42.7529V43.1777C16.3086 42.9886 16.3086 42.7921 16.3516 42.603H16.597L16.3516 42.7529ZM16.3516 44.0023V43.6774C16.1798 43.6774 16.3516 43.6774 16.1798 43.6774H16.4253C16.4253 43.8523 16.4253 43.9273 16.4253 44.1772L16.3516 44.0023ZM16.4989 41.5036V41.2537C16.4989 41.2537 16.4989 41.4536 16.2289 41.5036H16.4989ZM16.7688 34.6821V34.9819C16.7596 34.8155 16.7596 34.6486 16.7688 34.4822H16.9161C16.9161 34.6821 16.9161 34.6321 16.7688 34.732V34.6821ZM16.7688 45.3765H16.9406V45.1267H16.8424L16.7688 45.3765ZM16.7688 43.3276V43.1777C16.872 43.0782 16.9553 42.9595 17.0142 42.8279L17.6032 43.0028V43.2526C17.5556 43.2682 17.506 43.2766 17.456 43.2776H17.2106L16.7688 43.3276ZM17.1124 43.9773V43.6524L17.3578 43.8274V44.1522H17.456C17.456 43.9773 17.456 44.1522 17.456 43.9773H17.1124ZM17.456 44.9768H17.775C17.6697 44.9983 17.5613 44.9983 17.456 44.9768ZM17.8486 43.5775C17.8561 43.4693 17.8561 43.3608 17.8486 43.2526H18.0204V43.5025H17.7505L17.8486 43.5775ZM18.2658 44.3271C18.2658 44.3271 18.2658 44.3271 18.094 44.3271V44.0772H18.3394C18.3394 44.2271 18.3394 44.0772 18.3394 44.2521L18.2658 44.3271ZM18.8303 43.5025H18.4131C18.4131 43.3776 18.4131 43.2776 18.2413 43.1527H18.5848H18.8303V43.5025ZM19.3947 42.3531H19.0757H18.7566V42.1032C19.1002 42.1032 19.0266 42.1032 19.2475 42.2532V41.7284H19.4929V42.0533L19.3947 42.3531ZM21.1371 40.4791H21.5543C21.5484 40.5623 21.5484 40.6458 21.5543 40.7289H21.1371V40.4791ZM20.5727 42.1282C20.5727 42.3531 20.5727 42.3281 20.3273 42.3781C20.2995 42.1625 20.2995 41.9441 20.3273 41.7284H20.5727V42.1282ZM20.5727 42.7779V43.2776H20.2291V42.7029H20.4745L20.5727 42.7779ZM20.3273 45.4265H20.1555C20.1555 45.2516 20.1555 45.4265 20.1555 45.2516V45.5015L20.3273 45.4265ZM20.4745 44.9768H20.7199V45.2266L20.4745 44.9768ZM20.8181 41.1038C20.499 41.1038 20.5727 41.1038 20.3273 40.9288V40.7789H20.7199V41.1038H20.8181ZM20.8181 34.0074V33.7576C21.0635 33.7576 21.0144 33.7576 21.088 34.0074H20.8181ZM21.5052 43.4026H21.0635V43.0777H21.3089H21.5543V43.3276L21.5052 43.4026ZM21.7506 43.0777C21.5788 43.0777 21.7506 43.0777 21.5788 43.0777V42.8279H21.8242V43.1527L21.7506 43.0777ZM21.7506 41.8534H21.5052H21.2598C21.2291 41.7473 21.2291 41.6346 21.2598 41.5285H21.5788H21.7261V41.7784L21.7506 41.8534ZM23.7875 33.6826V33.5327C23.9838 33.7326 23.7875 33.8825 23.7875 34.1823H23.5421C23.5421 33.9075 23.5421 33.8075 23.7139 33.6826H23.7875ZM23.0268 33.5327V33.2328H23.1985V33.6326H23.1249V33.4077L23.0268 33.5327ZM23.0268 34.1074V33.9325V34.1823C23.0268 34.1823 23.1985 34.1823 23.2722 34.3572H23.0268L22.8795 34.0324L23.0268 34.1074ZM23.0268 40.604C23.174 40.604 23.0268 40.604 23.174 40.604V40.7789H22.9286V40.4791L23.0268 40.604ZM22.266 34.2573H22.3641V33.9824H22.5359V34.3073H22.2905V34.1324L22.266 34.2573ZM22.3641 40.9788V41.2287H21.9715L22.2169 41.0538L22.3641 40.9788ZM22.2169 43.4026C22.2169 43.4026 22.2169 43.4026 22.0451 43.4026V43.0028H22.2169C22.0451 43.1277 22.2169 43.2526 22.3887 43.3276C22.5605 43.4026 22.3887 43.3276 22.2169 43.3276V43.4026ZM22.7077 42.9028C22.7077 42.9028 22.7077 42.9028 22.5359 42.9028C22.4435 42.7788 22.3843 42.6324 22.3641 42.478L22.7568 42.7279C22.7568 42.8778 22.7568 42.7279 22.7568 42.8778L22.7077 42.9028ZM22.7077 41.6785C22.7077 41.6785 22.7077 41.4286 22.8795 41.2537C23.0513 41.0788 22.8795 41.2537 23.1249 41.2537C23.1249 41.2537 22.9777 41.4786 22.8795 41.6535L22.7077 41.6785ZM23.0513 42.4281H22.8795C22.8492 42.2966 22.8492 42.1598 22.8795 42.0283H23.1249V42.2781L23.0513 42.4281ZM23.0513 42.1032H23.2231V41.8534H23.1249L23.0513 42.1032ZM23.2231 35.2568H23.3949C23.3949 35.2568 23.0513 35.2568 23.1495 35.2568H23.2231ZM23.5666 43.2526V43.0028H23.7384L23.5666 43.2526ZM23.8121 42.2532H23.5666H23.9102V42.4031L23.8121 42.2532ZM24.6219 41.9533C24.3274 41.9533 24.4747 41.9533 24.3029 42.1782C24.1954 42.0145 24.0527 41.8778 23.8857 41.7784V41.6035C24.1556 41.6035 24.082 41.7784 24.3765 41.8534C24.3765 41.5036 24.3765 41.5785 24.5483 41.3536H24.8182V41.9533H24.6219ZM24.8182 33.7326V33.4077H25.0636C25.0636 33.6576 25.0636 33.7576 24.7201 33.8325L24.8182 33.7326ZM25.4808 33.7326V33.4077H25.6526V33.6326L25.4808 33.7326ZM25.8244 40.9788H25.579V40.7289V40.3292H25.898V40.9039L25.8244 40.9788ZM29.6283 33.8825V34.2073C29.481 33.8325 29.481 34.0324 29.6283 33.7076V33.8825ZM29.0638 40.4041H29.3092C29.6283 40.4041 29.6528 40.4041 29.7264 40.654C29.8 40.9039 29.5546 40.654 29.4565 40.8289H29.0638C29.0638 40.8289 29.0638 40.8289 29.0638 40.679V40.4041ZM27.9349 32.983V33.1329C27.9349 33.1329 28.1558 33.1329 28.3521 33.1329V33.3827L27.6159 33.5327C27.5851 33.3094 27.6799 33.0873 27.8613 32.958L27.9349 32.983ZM27.6159 40.554C27.3705 40.554 27.3214 40.554 27.2723 40.2292C27.2232 39.9044 27.5423 40.2292 27.6159 40.554ZM27.6159 40.9039C27.5035 40.9358 27.3847 40.9358 27.2723 40.9039C27.2723 40.729 27.2723 40.7539 27.4441 40.654C27.4441 40.654 27.4441 40.654 27.4441 40.8289L27.6159 40.9039ZM26.3643 41.5285C25.9471 41.5285 26.0698 41.3536 25.9471 41.0288C26.2171 41.0288 26.2416 41.2287 26.4379 41.3536V41.5285H26.3643ZM26.1925 40.7789V40.5291H26.4379V40.3791H26.8551L26.2661 40.629L26.1925 40.7789ZM26.7815 42.503H26.5361V42.2532H26.8551C26.8551 42.4031 26.8551 42.2532 26.8551 42.4031L26.7815 42.503ZM27.4441 44.8268V44.577H27.1987C27.3288 44.5567 27.4612 44.5567 27.5914 44.577V44.7519H27.7631C27.7631 44.9268 27.7631 44.7519 27.7631 44.9268L27.4441 44.8268ZM27.4441 42.8279C27.4441 43.0028 27.4441 42.8279 27.4441 43.0028V42.7529C27.4441 42.3781 27.4441 42.553 27.6895 42.3531L27.9349 42.528L27.7631 42.7529L27.4441 42.8279ZM28.1067 45.3266C27.9522 45.2086 27.8613 45.0235 27.8613 44.8268H28.1067V44.9768V45.2266V45.3266ZM28.4503 44.577C28.4364 44.4691 28.4364 44.3599 28.4503 44.2521H28.6221V44.577H28.4503ZM28.2785 43.2776H27.9595V42.7779H28.1313C28.1313 42.528 28.254 42.503 28.303 42.2032V42.4531C28.4748 42.6779 28.1803 43.0777 28.0576 43.2776H28.2785ZM28.6957 40.7789H28.3521V40.5291H28.6712V40.7539L28.6957 40.7789ZM28.3521 34.9819H28.1803V34.732H28.4257C28.5975 34.5821 28.4257 34.5571 28.7448 34.4822C29.0638 34.4072 28.5485 34.857 28.4257 35.0569L28.3521 34.9819ZM28.6712 42.9778C28.6712 42.7529 28.6712 42.8029 28.9411 42.7279C29.2111 42.653 28.9411 42.9278 28.6712 42.9778ZM29.0884 44.552C29.0454 44.3629 29.0454 44.1663 29.0884 43.9773H29.2356C29.2356 44.1522 29.2356 44.3021 29.2356 44.477L29.0884 44.552ZM29.0884 41.4036V41.6535H28.8429C29.1374 41.6535 29.0638 41.5036 29.162 41.2537C29.162 41.3786 29.162 41.4536 29.162 41.4786L29.0884 41.4036ZM29.3338 42.8029H29.5055V42.478H29.3338V42.8029ZM30.2418 40.704H29.9964V40.4541H30.2418V40.7789V40.704ZM30.2418 40.1293H30.5853V40.3042H30.3399L30.2418 40.1293ZM30.659 40.9538H30.4872C30.5011 41.0616 30.5011 41.1709 30.4872 41.2787V40.7789H30.7326V40.9288L30.659 40.9538ZM30.659 45.0017H30.8308V44.577H30.659V45.0017ZM31.6651 32.808H32.1805C32.1948 33.0379 32.1345 33.2662 32.0087 33.4577C32.0577 33.2187 32.0577 32.972 32.0087 32.7331L31.6651 32.808ZM31.4934 40.3042C31.7388 40.3042 31.7388 40.4541 31.9106 40.554C31.7779 40.4809 31.6381 40.4223 31.4934 40.3791C31.4934 40.2292 31.4934 40.3791 31.4934 40.2292V40.3042ZM31.0762 32.808V32.5832L31.2479 32.4082H31.4197C31.4197 32.4082 31.2479 32.5832 31.4197 32.7331L31.0762 32.808ZM31.8369 45.0267C31.567 45.0267 31.567 45.0267 31.5179 44.7769C31.7066 44.9252 31.9429 44.9965 32.1805 44.9768L31.8369 45.0267ZM31.8369 41.9783H31.6651C31.6651 41.7534 31.6651 41.7784 31.8369 41.6285H32.1805C32.1805 41.6285 32.0087 41.6285 31.9351 41.8784L31.8369 41.9783ZM34.9782 31.7586V31.2588C35.15 31.2588 34.9782 31.2588 35.15 31.2588C35.107 31.4479 35.107 31.6445 35.15 31.8335C35.0272 31.8335 35.0272 32.0085 34.9045 32.0834H34.6591V31.6586H34.9782V31.7586ZM34.8064 40.7289C34.8064 40.9039 34.8064 40.729 34.8064 40.9039V40.654V40.7289ZM33.5793 32.0834C33.702 31.9085 33.8738 31.8585 33.9965 31.6586H34.1683V31.2588C34.3156 31.2588 34.1683 31.2588 34.3156 31.2588H34.6591V31.5087H34.6346C34.6346 31.8835 34.4383 32.0334 34.3892 32.3333C34.3401 32.6331 33.972 32.3333 33.8002 32.3333L33.5793 32.0834ZM34.0702 42.0783C34.2224 42.0964 34.3667 42.157 34.4873 42.2532V42.4031H33.9965V41.9783L34.0702 42.0783ZM33.064 31.8585H33.3094C33.3153 32.0116 33.252 32.1589 33.1376 32.2583V32.4832C33.1376 32.0834 33.2848 32.0334 33.3094 31.6586L33.064 31.8585ZM33.064 45.5764H32.8922V44.9768V45.4765L33.064 45.5764ZM33.2358 43.5025H32.9904C32.9904 43.3526 32.9904 43.5025 32.9904 43.3526V42.9278L33.3339 43.1777V43.5025H33.2358ZM33.383 42.0283L33.2358 42.2032C33.0544 42.1675 32.8999 42.0473 32.8186 41.8784C32.8186 41.7034 33.0149 41.5535 33.0885 41.4536V40.8039H33.2603C33.2437 40.9115 33.2437 41.0211 33.2603 41.1287C33.3177 41.2018 33.3177 41.3056 33.2603 41.3786C33.2198 41.568 33.2198 41.764 33.2603 41.9533L33.383 42.0283ZM33.064 40.554C33.064 40.3042 33.2112 40.3042 33.3094 40.1293H33.5548V40.4541H33.7266V40.604C33.3585 40.604 33.4812 40.4541 33.064 40.4541V40.554ZM33.7266 41.4536H33.4075V41.3037C33.5793 41.3037 33.4075 41.3037 33.5793 41.3037C33.7177 41.2838 33.8581 41.2838 33.9965 41.3037H33.7266V41.4536ZM34.561 43.4276H34.1438V43.0028C34.2171 42.9758 34.2782 42.9225 34.3156 42.8529H34.561V43.1027H34.88V43.5275L34.561 43.4276ZM34.561 41.5285C34.5913 41.66 34.5913 41.7969 34.561 41.9283H34.3156V41.6035L34.561 41.5285ZM35.0518 45.2516H34.6591C34.6883 45.1273 34.7381 45.009 34.8064 44.9018H34.9782C34.9782 45.0267 34.9782 44.9018 35.15 45.0767C35.1453 45.1349 35.1453 45.1934 35.15 45.2516H35.0518ZM35.2236 41.8534H34.9536V41.6035C35.0672 41.5824 35.1836 41.5824 35.2972 41.6035V41.8534H35.2236ZM39.5428 33.8075H39.7882V33.6326H39.5428V33.8075ZM39.371 41.4786H39.5428C39.477 41.6215 39.3641 41.7364 39.2237 41.8034C39.2026 41.6962 39.2026 41.5858 39.2237 41.4786H39.371ZM39.7882 42.7029C39.5428 42.478 39.5428 42.478 39.5428 42.1282H39.69C39.6783 42.3196 39.6783 42.5115 39.69 42.7029H39.7882ZM37.4568 40.9039C37.4568 41.1287 37.4568 41.0788 37.2114 41.1537V40.9039H37.4568ZM36.3034 40.4791V40.654H35.9598V40.4041H36.3034V40.4791ZM35.8862 33.3078V33.0579H36.058V33.7076V33.4577V33.2078L35.8862 33.3078ZM35.8862 31.9085V32.2333C35.7144 32.2333 35.8862 32.2333 35.7144 32.2333C35.7144 32.0834 35.7144 32.1084 35.7144 32.0584L35.8862 31.9085ZM35.8862 44.7769C35.865 44.8841 35.865 44.9945 35.8862 45.1017H35.7389C35.9353 45.1017 35.7389 44.2521 35.7389 44.1772C35.7389 44.1022 35.7389 43.9023 35.8862 43.7024V44.427C35.8862 44.427 35.7635 44.427 35.8862 44.6019V44.8518V44.7769ZM36.0334 42.0533C36.0334 42.0533 36.0334 42.0533 35.8616 42.0533C35.6898 42.0533 35.8616 42.0533 35.7144 42.0533C35.5671 42.0533 35.9107 41.9033 35.9598 41.5535H36.107V41.9783L36.0334 42.0533ZM36.377 43.3776H36.2052C36.2052 43.3776 36.2052 43.3776 36.377 43.2027H36.5242C36.545 43.3183 36.545 43.4368 36.5242 43.5525L36.377 43.3776ZM37.0887 41.6285V41.3786C37.2605 41.3786 37.0887 41.3786 37.2605 41.3786H37.0151L37.0887 41.6285ZM37.4323 42.628C37.3964 42.4636 37.3105 42.3149 37.1868 42.2032C37.555 42.2032 37.5304 42.3281 37.7513 42.4531V42.7029L37.4323 42.628ZM37.8494 43.6275H37.6777V43.2776H37.9231C37.8917 43.392 37.8917 43.513 37.9231 43.6275H37.8494ZM37.8494 41.9783H38.0212V41.7284H37.8494V41.9783ZM38.3403 42.553H38.0212C37.9889 42.4133 37.9889 42.2679 38.0212 42.1282H38.3648C38.3648 42.2532 38.3648 42.3531 38.3648 42.478L38.3403 42.553ZM38.6838 41.3786V41.5535H38.4384C38.4603 41.3907 38.5496 41.2451 38.6838 41.1537H38.9292C38.9292 41.3786 39.1256 41.8784 38.9292 42.0783V41.4786L38.6838 41.3786ZM38.9292 44.0272C38.9292 44.0272 38.9292 44.0272 38.9292 43.8523V44.1022V44.0272ZM38.9292 42.628C38.9292 42.3531 38.9292 42.3531 39.1747 42.3031V42.553V42.7029H38.9292V42.628ZM39.8373 43.5275H39.5182H39.2483C39.257 43.386 39.257 43.2442 39.2483 43.1027C39.5919 43.1027 39.5182 43.1027 39.7391 42.9278V43.3276L39.8373 43.5275ZM40.6716 42.8778H40.4262V42.4031C40.598 42.4031 40.4262 42.4031 40.598 42.4031C40.7698 42.4031 40.7207 42.553 40.8434 42.653V42.9028L40.6716 42.8778ZM41.4079 42.553V42.7779H41.1625V42.528H41.4079V42.553ZM40.9907 42.4531V42.2032H41.2606V42.478L40.9907 42.4531ZM41.6533 45.1017C41.5577 45.212 41.5053 45.3543 41.506 45.5015H41.2606C41.2606 45.2516 41.3833 45.3266 41.4079 45.2516C41.4324 45.1767 41.2852 44.8768 41.7514 44.7769V45.1017H41.6533ZM42.5613 44.2022V44.0272C42.5781 44.2184 42.5781 44.4108 42.5613 44.6019H42.3895C42.3895 44.3771 42.3895 44.3021 42.5613 44.2022ZM41.9969 33.2328V33.6326L41.8251 33.8075C41.8083 33.6163 41.8083 33.424 41.8251 33.2328H41.9969ZM41.9969 46.0762C41.9969 45.7514 41.776 45.8763 41.7514 45.4265C41.9478 45.4265 41.9232 45.4265 42.0705 45.6014C42.0819 45.7595 42.0819 45.9181 42.0705 46.0762H41.9969ZM42.5858 45.5015H42.2423C42.2423 45.5015 42.2423 45.5015 42.2423 45.3266H42.5613V45.5764L42.5858 45.5015ZM42.8312 44.9768V44.7269C42.8619 44.8329 42.8619 44.9457 42.8312 45.0517V44.9768ZM43.911 32.3083V32.808H43.7393V32.2333L43.911 32.3083ZM44.2301 46.7259C44.0583 46.7259 44.2301 46.7259 44.0583 46.7259V46.476C44.2301 46.476 44.0583 46.476 44.2301 46.476V46.7009V46.7259ZM44.2301 46.0762C44.1983 45.9196 44.1983 45.758 44.2301 45.6014H44.4755V46.0012L44.2301 46.0762ZM44.2301 42.528C44.2301 42.528 44.2301 42.528 44.0583 42.528V42.2781L44.3037 42.4531L44.2301 42.528ZM44.451 33.0579H44.2792C44.1729 33.0516 44.0664 33.0516 43.9601 33.0579H44.451ZM44.6964 45.3266V45.0767H44.8436V45.3266H44.6964ZM45.7025 34.4572V34.6071C45.5308 34.6071 45.7025 34.6071 45.5308 34.6071C45.586 34.5006 45.6716 34.4135 45.7762 34.3572L45.7025 34.4572ZM45.2117 40.2292L45.4571 40.3791H45.2117V40.1542V40.2292ZM45.2117 45.9263H44.9418V45.6764H45.2117V45.9263ZM45.2117 45.3516V45.1017H45.3835C45.3835 45.2766 45.3835 45.1017 45.3835 45.2766L45.2117 45.3516ZM45.5308 44.0272V44.2022C45.5275 43.9202 45.5774 43.6403 45.678 43.3776H45.8498C45.8777 43.622 45.7859 43.8648 45.6044 44.0272H45.5308ZM45.8743 40.9039C45.678 40.9039 45.7025 40.9039 45.6044 40.7289H45.8743V40.9039ZM46.0216 46.1761H46.267V46.0012H46.0216V46.1761ZM46.7578 42.553C46.5124 42.4031 46.7578 42.4031 46.7578 42.2032H46.9296C46.9296 42.3281 46.9296 42.628 46.7578 42.528V42.553ZM46.905 41.9783H47.2241V41.7284H46.905V41.9783ZM47.4695 46.3261H47.3222V46.0762C47.3222 45.9263 47.3222 46.0762 47.3222 45.9263C47.3329 46.0343 47.3329 46.1431 47.3222 46.2511L47.4695 46.3261ZM47.7394 46.9008V46.6509C47.9603 46.6509 47.9358 46.6509 47.9848 46.9008H47.7394ZM47.9848 32.4832C47.9848 32.4832 47.9848 32.808 47.8131 32.7331C47.9603 32.7331 47.8131 32.7331 47.8131 32.5582H47.9848V32.4832ZM48.7211 31.9085C48.8928 31.9085 48.7211 31.9085 48.8928 31.9085V32.0584H48.6229V31.9085H48.7211ZM48.7211 41.6285C48.7211 41.4536 48.7211 41.6285 48.7211 41.4536C48.7211 41.7284 48.7211 41.6285 48.7211 41.9533H48.5493V41.6285H48.7211ZM48.5493 48.375H48.3039C48.3039 48.2001 48.3039 48.375 48.3039 48.2001L48.5493 48.375ZM55.1017 90.0035V89.6787H55.2735C55.2523 89.7859 55.2523 89.8963 55.2735 90.0035H55.1017ZM54.9299 87.13V86.8801H55.0772C55.0864 86.9548 55.0864 87.0303 55.0772 87.105H54.7336L54.9299 87.13ZM55.5189 80.1086H55.2735V79.9337H55.5189V80.1836V80.1086ZM56.5987 71.9628H56.3533V71.7129H56.5987V71.9628ZM62.5376 43.0028H62.783V43.3276H62.6357V43.0777L62.5376 43.0028ZM61.605 44.4021H61.9486V44.577H61.6296L61.605 44.4021ZM56.6969 52.1481C56.6969 52.323 56.6969 52.5229 56.5496 52.5728C56.5496 52.223 56.5496 52.298 56.7214 52.0731L56.6969 52.1481ZM56.4514 53.0726H56.7214C56.7214 53.2975 56.7214 53.2475 56.476 53.3224V53.0726H56.4514ZM56.4514 54.7217C56.4514 54.9466 56.4514 54.8966 56.206 54.9716V54.7217H56.4514ZM56.4514 50.4239C56.4514 50.4239 56.4514 50.4239 56.2797 50.4239L56.1324 50.0991C56.2794 50.1224 56.4208 50.1732 56.5496 50.249L56.4514 50.4239ZM55.7888 52.323L55.9361 52.4979V52.8227C55.7979 52.7998 55.6571 52.7998 55.5189 52.8227L55.7888 52.4229V52.323ZM54.7827 50.7488H55.0281V50.9237H54.7827V50.7488ZM54.2673 51.2485H54.6109V51.4984H54.1937V51.2485H54.2673ZM53.6047 50.349H53.7765C53.8374 50.6203 53.8374 50.9022 53.7765 51.1736C53.6047 51.1736 53.7765 51.1736 53.6047 51.1736C53.6454 50.8751 53.6454 50.5724 53.6047 50.274V50.349ZM53.2857 43.1777V42.9278C53.4575 42.9278 53.2857 42.9278 53.4575 42.9278L53.2857 43.1777ZM53.2857 50.274V49.9742L53.5311 50.1241C53.4947 50.3635 53.4113 50.593 53.2857 50.7987H53.1139C53.1139 50.7987 53.1139 50.5739 53.1139 50.4739L53.2857 50.274ZM51.8132 42.478C51.9125 42.5055 51.9993 42.5673 52.0586 42.653C51.8868 42.653 52.0586 42.653 51.8868 42.653L51.8132 42.478ZM51.396 47.7503H51.8132V48.0752C51.6169 48.0752 51.6169 48.0752 51.4696 47.9002V47.6504L51.396 47.7503ZM51.396 48.6748H51.8132C51.8132 48.8997 51.666 48.8997 51.5678 49.0746H51.396C51.396 48.8747 51.396 48.8997 51.5678 48.7498L51.396 48.6748ZM50.807 48.1751C50.807 48.325 50.807 48.1751 50.807 48.325C50.7738 48.1939 50.7738 48.0563 50.807 47.9252H51.0524V48.1751H50.807ZM50.5616 42.2282C50.7334 42.2282 50.758 42.3531 50.8316 42.578C50.9052 42.8029 50.8316 42.578 50.6598 42.578C50.488 42.578 50.5371 42.4031 50.4144 42.3281C50.2917 42.2532 50.4144 42.3281 50.4144 42.1532L50.5616 42.2282ZM50.3898 48.425H50.6353C50.6353 48.7498 50.4635 48.6998 50.3898 48.9997H50.2426C50.2426 48.6998 50.3898 48.8248 50.3898 48.425ZM49.58 31.6087V31.9335C49.5036 31.8096 49.4457 31.6749 49.4082 31.5337H49.6782L49.58 31.6087ZM49.5555 47.4755C49.3591 47.4755 49.3837 47.4755 49.31 47.3255H49.5555V47.4755ZM49.5555 41.1287H49.2364V40.704L49.7272 40.5291C49.7272 40.5291 49.5555 40.7539 49.4818 41.0288L49.5555 41.1287ZM49.9726 46.6509C49.9726 46.6509 49.9726 46.8508 49.7272 46.9008V46.6509H49.9726ZM49.9726 33.2328H49.8009V33.0579C49.905 33.0267 50.0158 33.0267 50.1199 33.0579V33.3078L49.9726 33.2328ZM49.9726 32.6581C49.5309 32.6581 49.6045 32.858 49.4818 33.2328V32.808C49.4818 32.808 49.4818 32.6331 49.6291 32.5832C49.7763 32.5332 49.7518 32.5832 49.899 32.4082H50.2181L49.9726 32.6581ZM50.6353 32.6581H50.4635C50.4635 32.6581 50.4635 32.4082 50.4635 32.3083V32.7331L50.6353 32.6581ZM52.1077 32.4832C51.9605 32.4832 51.985 32.4832 51.9359 32.2333H52.1813C52.1813 32.2333 52.1813 32.2333 52.1813 32.4082L52.1077 32.4832ZM53.0157 34.0574H52.5249V33.8075H52.8685C52.8685 33.8075 52.8685 33.8075 53.0157 33.9574V34.0574ZM55.4207 33.4827H55.0035C54.9754 33.3763 54.9754 33.2642 55.0035 33.1579V32.908C55.0035 33.0829 55.0035 33.0579 55.1753 33.2328C55.3471 33.4077 55.1753 33.2328 55.1753 33.4077L55.4207 33.4827ZM57.0895 32.883H56.9177H56.6723C56.7238 32.7104 56.8071 32.5492 56.9177 32.4082C57.1129 32.3773 57.3116 32.3773 57.5067 32.4082C57.3349 32.6081 57.3104 32.4082 57.0895 32.5582V32.883ZM58.2429 35.3817H58.0711C58.0849 35.299 58.0849 35.2145 58.0711 35.1318C58.2184 35.1318 58.0711 35.1318 58.2184 35.1318C58.2184 35.3317 58.2184 35.3068 58.0466 35.4567L58.2429 35.3817ZM60.059 36.706H59.8135V36.4562L60.059 36.6311V36.706ZM60.7216 33.9824C60.6525 33.9375 60.5939 33.8778 60.5498 33.8075H60.7952V34.1324L60.7216 33.9824ZM60.8933 32.983C60.8933 32.983 60.8933 32.983 60.7216 32.983C60.7216 32.7081 60.8933 32.7831 60.967 32.5082H60.6479V32.3333H60.8933V32.908V32.983ZM61.9731 33.9075C61.9731 33.9075 61.9731 33.9075 61.9731 33.7576L62.464 33.5826V33.8325C62.1449 33.8325 62.2431 33.8325 61.9731 34.0074V33.9075ZM62.9548 34.0574H62.6357C62.8075 34.0574 62.8566 34.0574 62.9548 33.8825C62.9685 33.9652 62.9685 34.0497 62.9548 34.1324V34.0574ZM63.6174 33.9075V34.1573L63.4701 33.7326H63.7892L63.6174 33.9075ZM64.28 33.0829C64.5254 33.0829 64.4763 33.0829 64.5499 33.3328C64.6236 33.5826 64.3536 33.3328 64.28 33.0829ZM64.7953 33.9075C64.6659 33.8865 64.5459 33.8254 64.4518 33.7326V33.5077H64.7953V33.8325V33.9075ZM66.366 34.0824H66.1206C66.366 33.9325 66.1206 33.8575 66.5378 33.7576V34.1823L66.366 34.0824ZM67.0286 34.4072C67.0424 34.2159 67.0424 34.0238 67.0286 33.8325H67.2004V34.1573H67.3721C67.3721 34.3822 67.3721 34.3323 67.1267 34.4072H67.0286ZM67.593 35.0569V34.807H67.8384C67.8521 34.8897 67.8521 34.9742 67.8384 35.0569H67.593ZM69.0164 34.1573C68.8789 34.1269 68.7366 34.1269 68.5992 34.1573C68.6261 34.0277 68.6853 33.9073 68.771 33.8075H68.9918V34.2323L69.0164 34.1573ZM70.1698 33.1579C69.9489 33.1579 69.9735 33.1579 69.9244 33.4077H69.4336C69.4336 33.5826 69.4336 33.4077 69.4336 33.5826H68.9918C68.9918 33.3328 69.1636 33.3078 69.409 33.2578V33.0079C69.6041 33.0401 69.803 33.0401 69.998 33.0079V33.2578L70.1698 33.1579ZM70.5134 33.6576C70.5134 33.6576 70.3907 33.6576 70.3416 33.4077C70.2925 33.1579 70.3416 33.4077 70.5134 33.4077V33.6576ZM71.2496 33.8325H71.0042C71.0042 33.8325 71.0042 33.8325 71.0042 33.6826C71.1083 33.6514 71.2191 33.6514 71.3232 33.6826V34.0074L71.2496 33.8325ZM72.7466 34.0824V33.8325H72.8938V34.1573C72.7221 34.1573 72.8938 34.1573 72.7221 34.1573L72.7466 34.0824ZM73.8264 33.8325H73.581C73.6708 33.6999 73.7881 33.589 73.9246 33.5077V33.8325H73.8264ZM75.397 33.5826H75.2252C75.1949 33.4512 75.1949 33.3143 75.2252 33.1828H75.5443V33.4327L75.397 33.5826ZM75.6424 33.0079H75.8878V32.7331H75.6424V33.0079ZM75.986 34.4822V34.2323H76.2314V34.3822L75.986 34.4822ZM76.4768 36.3812H76.3541V35.9564H76.5995V36.2812L76.4768 36.3812ZM76.4768 33.5826H76.3541C76.3753 33.4754 76.3753 33.365 76.3541 33.2578C76.3541 33.4327 76.3541 33.4077 76.5259 33.5077L76.4768 33.5826ZM77.213 34.1573V34.5571C77.2357 34.3881 77.2944 34.226 77.3848 34.0824H77.5566L77.213 34.1573ZM78.121 34.5571V34.4072H78.2928C78.321 34.5136 78.321 34.6257 78.2928 34.732L78.121 34.5571ZM79.9616 33.3328V33.5826H79.7898V33.0829C79.8036 33.0002 79.8036 32.9157 79.7898 32.833H80.1089C80.1159 32.9887 80.063 33.1411 79.9616 33.2578V33.3328ZM81.8513 36.6311H81.4586V36.3812V36.5561H81.704V36.731L81.8513 36.6311ZM83.7655 36.6311V36.781C83.7655 36.781 83.7655 36.781 83.6182 36.6311V36.3812H83.9372V36.6311H83.7655ZM84.7716 35.1568H84.4281V34.9819H84.7716V35.1568ZM85.5079 34.6571H85.2625V34.4072H85.5079V34.6571ZM85.8269 33.9075C85.9284 33.9449 86.0205 34.0046 86.0968 34.0824C85.9005 34.0824 85.9251 34.0824 85.8269 33.9075ZM87.1766 34.732C86.8786 34.7487 86.584 34.6605 86.3422 34.4822C86.2743 34.3282 86.2169 34.1695 86.1705 34.0074V33.8325H86.514V34.2573H86.8331V34.5072H87.0049L87.1766 34.732ZM87.1766 34.0074H86.5877V33.7576L87.3239 33.6076V33.8575C87.103 33.8575 87.1276 33.8575 87.0785 34.1074L87.1766 34.0074ZM88.9927 34.0074V34.5821V34.9819C88.9927 34.5072 88.9927 33.8075 88.9927 33.4327C88.9927 33.0579 89.1399 33.4327 89.3362 33.1828C89.3362 33.4577 89.3362 33.7326 89.508 34.0074H89.1645H88.9927ZM87.1766 46.351C87.0049 46.351 87.1766 46.351 87.0049 46.351C86.8331 46.351 87.0049 46.351 87.0049 46.1761H87.2503V46.501L87.1766 46.351ZM88.4282 45.3765H88.3792C88.3792 45.0267 88.5755 45.1767 88.7963 44.9768C88.7963 45.3266 88.7963 45.2516 88.6491 45.4765L88.4282 45.3765ZM90.3915 36.6311C90.3915 36.4811 90.3915 36.6311 90.3915 36.4811H91.0786C90.9559 36.706 90.8578 36.6311 90.8332 36.9809H90.5878C90.5878 36.756 90.5878 36.806 90.8332 36.731L90.3915 36.6311ZM89.8025 33.2578C90.0479 33.5077 89.8025 33.6076 90.2197 33.6576H89.8025V33.2328V33.2578ZM91.5449 44.2271H91.3731C91.3731 44.552 91.6431 44.6519 91.7167 44.9768C91.4468 44.9768 91.3977 44.7769 91.1277 44.7269C91.1049 44.4533 91.1937 44.1822 91.3731 43.9773H91.7167C91.7167 44.2521 91.7167 44.2271 91.864 44.3771C91.7611 44.33 91.6753 44.2514 91.6185 44.1522L91.5449 44.2271ZM91.3731 42.478H90.9559L90.8087 42.7279V42.8778C90.8087 42.8778 90.6369 42.8778 90.5633 43.0527V43.4775V43.6275C90.3915 44.1272 90.7596 44.2271 90.3179 44.6269V44.9768L90.7351 45.4765H91.0786V45.6514H90.6615V45.8013H90.5142C90.4971 45.6537 90.4374 45.5145 90.3424 45.4015C90.3306 45.2602 90.3306 45.1181 90.3424 44.9768H90.1706C90.1706 44.9768 90.2933 44.6769 90.3424 44.577V44.1522H90.4897V43.7524H90.3424V43.5025H90.1706C90.1706 43.3776 90.416 43.2776 90.416 43.2526V42.7529C90.7841 42.9528 90.416 42.9778 90.9069 42.7529V42.9278H91.0786C91.0618 42.7366 91.0618 42.5443 91.0786 42.3531H91.3977V42.578H91.6676C91.6676 42.578 91.6676 42.578 91.8149 42.578C91.8824 42.4495 91.9398 42.3159 91.9867 42.1782C92.2566 42.1782 92.2321 42.1782 92.4039 42.3281V42.503C92.0357 42.503 92.0357 42.503 91.8149 42.653L91.3731 42.478ZM92.3793 33.8325H92.2321V33.1828C92.2439 33.0415 92.2439 32.8994 92.2321 32.7581H92.4039C92.4039 33.2828 92.1584 33.3078 92.1339 33.8325H92.3793ZM92.9683 34.0074C92.772 34.0074 92.7965 34.0074 92.6493 33.8325C92.6325 33.6413 92.6325 33.449 92.6493 33.2578H92.8947C92.956 33.5038 92.956 33.7614 92.8947 34.0074H92.9683ZM93.3855 33.8325V33.4327C93.6064 33.4327 93.5818 33.4327 93.6309 33.6576H93.3855V33.8325ZM97.5329 35.9564H97.2875V35.7065H97.5329V35.9314V35.9564ZM98.4409 33.0579L98.6863 33.2328C98.5391 33.2328 98.6863 33.2328 98.5391 33.2328C98.5432 33.1496 98.5432 33.0662 98.5391 32.983L98.4409 33.0579ZM99.1771 35.0569V34.807C99.398 34.807 99.3735 34.807 99.4225 35.0569H99.1771ZM100.085 34.6571H99.8397C99.8397 34.4572 99.8397 34.4572 100.012 34.3323H100.257C100.257 34.5322 100.257 34.5072 100.085 34.6571ZM103.889 33.0079V33.3328C103.849 33.4373 103.849 33.5531 103.889 33.6576C103.644 33.4077 103.889 33.2078 103.889 33.0079V32.858H104.134V33.1079L103.889 33.0079ZM105.95 32.2583H105.803V32.4832C105.651 32.465 105.507 32.4045 105.386 32.3083H105.803V31.9835H106.22C106.22 32.1584 106.22 31.9835 106.22 32.1584L105.95 32.2583ZM106.368 35.8815H106.122V35.5566H106.441V35.7065L106.368 35.8815ZM106.613 35.1568C106.441 35.1568 106.613 35.1568 106.441 35.1568H106.687V34.9819L106.613 35.1568ZM107.276 37.1058H107.521V37.4307H107.349V37.2058L107.276 37.1058ZM108.257 32.4832H108.503C108.536 32.6143 108.536 32.7519 108.503 32.883C108.503 32.883 108.699 33.1579 108.503 33.3078C108.503 33.4577 108.503 33.3078 108.503 33.4827C108.377 33.1624 108.294 32.8262 108.257 32.4832ZM108.257 34.2323V34.3822V34.0574V34.2323ZM107.987 35.5316C107.987 35.3817 107.987 35.5316 107.987 35.3817V35.8815C107.987 36.1813 107.987 36.2313 107.717 36.2812C107.717 35.9564 107.472 35.7315 107.717 35.4567L107.987 35.5316ZM108.257 38.1803C108.248 38.0138 108.248 37.847 108.257 37.6805H108.405C108.405 37.9304 108.405 37.9804 108.257 38.1053V38.1803ZM109.386 36.4562H109.141C108.895 36.3062 108.92 36.5811 108.822 36.2063C109.19 36.2063 109.165 36.3312 109.386 36.4562ZM50.7825 30.8341V30.5842H50.5371C50.5412 30.6674 50.5412 30.7508 50.5371 30.8341C50.6843 30.8341 50.5371 30.8341 50.6843 30.8341H50.7825ZM40.3526 31.0839H40.9416C40.9553 31.1666 40.9553 31.2511 40.9416 31.3338H41.1134V31.8086C41.2267 31.5969 41.3094 31.3697 41.3588 31.1339C41.1134 31.1339 41.3588 31.1339 41.1134 31.1339C40.868 31.1339 41.1134 30.959 41.2606 30.7341C40.9485 30.7512 40.637 30.6912 40.3526 30.5592C40.3526 30.5592 40.3526 30.5592 40.3526 30.7091V31.0839ZM42.3404 31.3338H42.684V31.009H42.3404V31.2339V31.3338ZM57.2613 31.1589V31.009C57.0915 31.1348 56.8803 31.1886 56.6723 31.1589V31.4837H57.0895C57.0895 31.2588 57.0895 31.2588 57.2613 31.1589ZM61.4823 31.4088V31.1589C61.3351 31.1589 60.9424 31.4088 60.7216 31.3338H60.4762V31.1839H60.059C60.059 31.1839 60.2553 31.034 60.378 31.1839C60.5331 31.2567 60.6367 31.4101 60.6479 31.5837H60.7952V31.4338C61.0528 31.3956 61.3072 31.3371 61.556 31.2588L61.4823 31.4088ZM51.6905 31.2339H51.9605C51.9605 31.0589 51.9605 31.2339 51.9605 31.0589H51.715C51.715 31.2089 51.715 31.0589 51.715 31.2089L51.6905 31.2339ZM58.0711 31.2339C58.0711 31.2339 58.0711 31.2339 58.0711 31.0589C58.0711 31.0589 58.0711 31.0589 57.9239 31.0589C57.7767 31.0589 57.9239 31.0589 57.7521 31.2089V31.4587C57.8742 31.4558 57.9897 31.4016 58.0711 31.3088V31.2339ZM59.2491 31.3838V31.1339C59.1758 31.107 59.1147 31.0536 59.0773 30.984H58.7583C58.692 31.0565 58.6069 31.1085 58.5129 31.1339C58.5376 31.2596 58.5877 31.3788 58.6601 31.4837C58.829 31.5293 59.0066 31.5293 59.1755 31.4837L59.2491 31.3838ZM66.9304 31.3838C66.9304 31.3838 67.1022 31.1339 66.9304 30.984C66.9304 30.984 66.7095 31.1589 66.7586 31.3088L66.9304 31.3838ZM67.6912 31.3838H68.1084C68.1084 31.5587 68.1084 31.3838 68.1084 31.5587C68.0419 31.3722 67.9926 31.1798 67.9611 30.984H67.6176C67.6273 31.067 67.6273 31.1509 67.6176 31.2339L67.6912 31.3838ZM69.679 31.5587V31.0589H69.3354C69.3354 31.2339 69.3354 31.0589 69.3354 31.2339C69.3354 31.4088 69.3354 31.4088 69.5072 31.5587H69.679ZM72.1576 31.4837V31.2339C71.8877 31.2339 71.8631 31.0839 71.5686 31.0589C71.2741 31.034 71.6913 31.4587 71.7404 31.6336C71.7895 31.8086 71.9613 31.6336 72.2312 31.4837H72.1576ZM59.6418 31.1339H59.4945C59.4945 31.3088 59.4945 31.1339 59.4945 31.3088H59.7399V31.0589L59.6418 31.1339ZM64.5499 31.6336H64.7217H65.1389C65.1361 31.5093 65.0828 31.3917 64.9917 31.3088V31.4837H64.5009C64.3045 31.4837 64.3291 31.4837 64.2309 31.6586H64.0837H64.5745L64.5499 31.6336ZM46.905 31.4088C46.905 31.2089 46.905 31.2588 46.7333 31.1589C46.5615 31.0589 46.7333 31.1589 46.7333 31.3088L46.905 31.4088ZM66.2678 31.7336C66.3802 31.7656 66.499 31.7656 66.6114 31.7336V31.5587H66.366H65.9488C65.9488 31.5587 65.9488 31.5587 65.7034 31.4088V31.5587L66.2678 31.7336ZM68.7219 31.5837H68.9918V31.3338H68.7464L68.7219 31.5837ZM74.0963 31.8335C74.0963 31.6586 74.0963 31.8335 74.0963 31.6586V31.4088L73.7528 31.6586C73.7667 31.7665 73.7667 31.8757 73.7528 31.9835H73.9982L74.0963 31.8335ZM81.4586 31.9835V31.8335V31.4088H81.2132V31.6586C81.1027 31.7997 81.0499 31.9787 81.066 32.1584H81.6304L81.4586 31.9835ZM78.1456 32.1584C78.1456 32.1584 78.1456 32.1584 78.1456 32.3333H78.2928V32.0834H78.71V31.6836C78.4892 31.6836 78.4646 31.6836 78.3665 31.4338H78.2192V31.6836L78.4646 31.8585V32.0085L78.1456 32.1584ZM79.1518 32.1584H79.3972C79.4892 31.981 79.5396 31.7842 79.5444 31.5837C79.1272 31.5837 79.2254 31.5837 78.98 31.7586V32.1584H79.1518ZM84.0599 32.4082C84.0599 32.2583 84.0599 32.4082 84.0599 32.2333C84.0599 32.0584 84.5753 32.2333 84.7962 32.0834C84.7962 31.9585 84.5753 31.8835 84.5508 31.8335V31.6586C84.2563 31.6586 84.379 31.6586 84.2072 31.9085H83.7164C83.7164 31.9085 83.7164 32.0584 83.5446 32.0834C83.5234 32.1906 83.5234 32.301 83.5446 32.4082H84.0599ZM29.2601 31.7586H29.0147V32.0085H29.3338V31.8585L29.2601 31.7586ZM42.2668 32.2333C42.2668 32.0834 42.2668 32.2333 42.2668 32.0834V31.7586C42.2668 31.7586 42.2668 31.7586 42.095 31.7586C41.9232 31.7586 42.095 32.0085 41.8496 32.0834V32.4332H42.1932L42.2668 32.2333ZM59.9853 32.2333V31.7336L59.4945 31.9085C59.5649 32.0862 59.7248 32.2107 59.9117 32.2333H59.9853ZM82.0721 31.9835V31.7336H81.9249C81.9249 31.7336 81.9249 31.7336 82.1703 31.8835L82.0721 31.9835ZM58.8074 32.4832H59.2982H59.5436V32.2333V31.8335C59.4061 31.864 59.2639 31.864 59.1264 31.8335V31.9835H59.3718H58.9546C58.837 31.8821 58.691 31.821 58.5374 31.8086V32.0584C58.8565 32.0584 58.6847 32.0584 58.881 32.3083L58.8074 32.4832ZM85.3115 32.3083C85.4588 32.3083 85.3115 32.3083 85.4588 32.3083C85.3824 32.1844 85.3245 32.0497 85.287 31.9085H85.0416V32.2333H85.2134L85.3115 32.3083ZM21.1126 32.3083H21.2843C21.2843 32.1584 21.1616 32.3083 21.1126 31.9835H20.8917C20.8899 32.1138 20.8257 32.235 20.7199 32.3083H21.1371H21.1126ZM76.5259 32.3083C76.5259 32.0834 76.5259 32.1084 76.2805 32.0584C76.0351 32.0085 76.2805 32.2333 76.5259 32.3083ZM77.1885 32.3083H77.4339V32.1584H77.0903L77.1885 32.3083ZM87.5448 32.6581V32.2333H87.2257V32.5582C87.3975 32.5582 87.2257 32.5582 87.3975 32.5582L87.5448 32.6581ZM70.1453 32.4082C69.9244 32.4082 69.9489 32.4082 69.8999 32.6581C69.8508 32.908 70.0962 32.6581 70.1453 32.4082ZM89.9252 32.833C89.9294 32.7 89.8755 32.5719 89.778 32.4832V32.6581L89.4344 32.4832V32.7331C89.7027 32.7761 89.976 32.7761 90.2443 32.7331L89.9252 32.833ZM94.2444 32.833C94.2444 32.5582 94.2444 32.5332 94.0726 32.4082C94.0726 32.4082 94.0726 32.4082 93.9008 32.5832C93.7291 32.7581 93.9008 32.7081 94.0726 32.908L94.2444 32.833ZM92.183 32.833C92.183 32.6831 92.0603 32.6831 92.0112 32.4832C91.859 32.5014 91.7147 32.5619 91.594 32.6581C91.5987 32.7163 91.5987 32.7748 91.594 32.833C91.7317 32.8048 91.8735 32.8048 92.0112 32.833H92.183ZM99.2017 33.0079C99.2109 32.8415 99.2109 32.6746 99.2017 32.5082H98.9563V32.858C98.5882 32.858 98.6863 32.858 98.4409 32.6081V32.7581C98.5441 32.8575 98.6274 32.9763 98.6863 33.1079L99.2017 33.0079ZM66.366 32.4832C66.366 32.4832 66.366 32.4832 66.366 32.3083C66.2618 32.2771 66.1511 32.2771 66.0469 32.3083C65.9745 32.3727 65.8914 32.4235 65.8015 32.4582V32.4832H66.366ZM71.9858 32.4832H72.1576C72.2053 32.37 72.2628 32.2612 72.3294 32.1584H72.0104V32.3333C71.8155 32.352 71.6249 32.4026 71.4459 32.4832V32.808C71.7404 32.808 71.7895 32.808 71.9368 32.6581L71.9858 32.4832ZM96.1832 32.4832H96.5758C96.3304 32.4832 96.2813 32.2583 96.085 32.1584C95.8887 32.0584 95.9868 32.4832 95.9868 32.4832H96.2568H96.1832ZM79.1027 32.808H79.2745V32.4832H79.1027V32.808ZM94.8334 32.808H95.0788V32.4832C94.9325 32.5217 94.7921 32.5806 94.6616 32.6581L94.8334 32.808ZM77.2867 32.808H77.5321V32.4832H77.2867V32.7331V32.808ZM74.8326 32.808H75.0044V32.4832H74.8817L74.8326 32.808ZM99.0299 33.8825C99.0299 33.8825 99.0299 33.8825 99.1771 33.8825H99.3489V33.7076H99.4962L99.668 33.4827H100.085C100.085 33.2828 100.085 33.3328 100.257 33.2328H100.012C100.012 33.0079 99.8888 33.0329 99.8397 32.808C99.7091 32.8123 99.5833 32.7574 99.4962 32.6581H99.2508V32.983C99.2508 32.983 99.4226 32.983 99.2508 33.2328C99.2508 33.4577 99.2508 33.4327 99.0053 33.4827V33.7326L99.0299 33.8825ZM15.2964 33.3827C15.4682 33.3827 15.2964 33.3827 15.4682 33.3827V33.1329H15.2718C15.2718 32.908 15.2718 32.958 15.0264 32.883V33.2078H15.2718V33.4577L15.2964 33.3827ZM102.834 32.983C102.834 32.833 102.637 32.983 102.588 32.983C102.539 32.983 102.588 33.1329 102.834 32.983ZM78.2928 32.983C78.3047 33.1243 78.3047 33.2664 78.2928 33.4077H78.8082V33.1579V32.983H78.2928ZM12.7932 33.7326H13.284C13.284 33.7326 13.284 33.7326 13.284 33.5577V33.3078H12.8668C12.8668 33.4827 12.8668 33.3078 12.8668 33.4827H12.5478V33.7326H12.7932ZM11.6152 33.7326V33.4827C11.6152 33.4827 11.6152 33.4827 11.468 33.4827C11.4543 33.5654 11.4543 33.6499 11.468 33.7326H11.7134H11.6152ZM7.3942 35.2318H7.63961V34.9819H7.3942V35.2318ZM51.1997 41.4036C51.1997 41.1787 51.077 41.2287 51.0279 41.0038H50.6843C50.6843 41.1537 50.6843 41.0038 50.6843 41.1537C50.8561 41.3037 50.8316 41.1537 51.0034 41.3286L51.1997 41.4036ZM87.3239 42.478V42.2282H87.1766V42.478H87.3239ZM87.4711 43.4525C87.7239 43.4232 87.9791 43.4232 88.2319 43.4525V43.1027V42.9528V43.2027H88.0601C88.0601 43.0028 88.0601 43.0278 87.9129 42.9528H87.6429C87.6743 43.0672 87.6743 43.1882 87.6429 43.3026H87.3975V43.4525H87.4711ZM86.9067 43.1277H86.7349C86.7349 43.3776 86.7349 43.4026 87.0539 43.4525C87.0739 43.3452 87.0739 43.235 87.0539 43.1277H86.9067ZM89.1399 43.7024C89.1399 43.5025 89.1399 43.5525 88.9681 43.4525V43.6275L89.1399 43.7024ZM87.962 44.1272V43.8773H87.6429C87.6429 44.0272 87.6429 43.8773 87.6429 44.0272L87.962 44.1272ZM86.7349 44.1272C86.9067 44.1272 86.7349 44.1272 86.9067 44.1272V43.8773C86.7349 43.8773 86.9067 43.8773 86.7349 43.8773V44.1272ZM85.7287 44.2771H85.9741V44.0522H85.7287V44.3021V44.2771ZM86.2441 44.527H86.3913V44.2771H86.1705L86.2441 44.527ZM85.7287 46.2511V46.0012H85.4833C85.4833 46.2261 85.4833 46.2011 85.7287 46.2511ZM85.4833 46.9257H85.6551V46.5759H85.4833V46.9257ZM84.9925 47.0007H84.7471C85.017 47.0007 84.968 47.0007 85.2379 47.0007H84.9925ZM46.3161 47.4755H46.4878V47.2256H46.3161V47.4755ZM86.7349 47.4755V47.9752H86.9067C86.9067 47.6254 87.0294 47.7003 87.1521 47.4755C87.2748 47.2506 86.9803 47.4755 86.6613 47.4755H86.7349ZM83.9127 47.4755V47.7253H84.0845C84.0845 47.5504 84.0845 47.7253 84.0845 47.5504L83.9127 47.4755ZM46.7333 47.6504C46.7333 47.6504 46.7333 47.6504 46.5615 47.6504H46.905C46.905 47.5005 46.905 47.6504 46.905 47.5005L46.7333 47.6504ZM85.2379 48.0502C85.272 48.1477 85.3314 48.234 85.4097 48.3H85.5815C85.5815 48.0752 85.5815 48.1251 85.3361 48.0502H85.2379ZM49.1383 48.7248H49.3591V48.4749H49.1873L49.1383 48.7248ZM84.6735 48.5499H84.1581V48.6998C84.3299 48.6998 84.1581 48.6998 84.3299 48.6998C84.492 48.7315 84.6586 48.7315 84.8207 48.6998C84.8207 48.45 84.8207 48.4749 84.6735 48.375V48.5499ZM52.6231 49.1246H52.4513C52.4513 49.4494 52.4513 49.3495 52.2795 49.6244H52.5249C52.4798 49.4609 52.4798 49.288 52.5249 49.1246H52.6231ZM1.35714 49.4744L1.60255 49.7993V49.5494V49.3745H1.43077L1.35714 49.4744ZM51.8132 49.7993C51.9605 49.7993 51.9359 49.7993 51.985 49.5494H51.7396V49.9742L51.8132 49.7993ZM52.3286 49.9492H51.8132C51.8132 49.9492 51.8132 50.1491 51.6414 50.1241V49.9492H51.4696V50.1991H52.2304V49.9742L52.3286 49.9492ZM52.3286 50.6238H51.8132C51.8132 50.9487 51.8132 50.8737 51.985 51.1236H52.2304C52.1997 51.0176 52.1997 50.9048 52.2304 50.7987L52.3286 50.6238ZM56.5742 55.6213V55.8711H56.7214C56.7214 55.7212 56.7214 55.7462 56.476 55.6962L56.5742 55.6213ZM56.4269 67.4651V67.2153H56.2797C56.2797 67.3652 56.2797 67.2153 56.2797 67.3902L56.4269 67.4651Z" fill="#5D4236"/>
<path fill-rule="evenodd" clip-rule="evenodd" d="M18.8057 9.04533H23.3457V25.4369H24.8427V9.04533H29.3828V7.59608H18.8057V9.04533Z" fill="#5D4236"/>
<path fill-rule="evenodd" clip-rule="evenodd" d="M41.0151 15.7169H32.4994V7.59608H31.0024V25.4369H32.4994V17.1661H41.0151V25.4369H42.5121V7.59608H41.0151V15.7169Z" fill="#5D4236"/>
<path fill-rule="evenodd" clip-rule="evenodd" d="M45.7271 25.4369H47.224V7.59608H45.7271V25.4369Z" fill="#5D4236"/>
<path fill-rule="evenodd" clip-rule="evenodd" d="M50.4634 25.4369H60.4515V23.9626H51.9604V17.1911H60.4515V15.7169H51.9604V9.04533H60.4515V7.59608H50.4634V25.4369Z" fill="#5D4236"/>
<path fill-rule="evenodd" clip-rule="evenodd" d="M68.9918 15.6419H68.7955C66.3414 14.9923 64.599 14.3676 64.6236 12.0688C64.6029 11.1767 64.9436 10.3153 65.5656 9.68674C66.1875 9.05817 67.0361 8.71778 67.912 8.74548C68.7365 8.69788 69.5454 8.98803 70.1585 9.55126C70.7716 10.1145 71.138 10.904 71.176 11.7439V12.0688H72.6484V11.594C72.4415 9.118 70.3764 7.23441 67.9366 7.29623C66.5494 7.25888 65.2055 7.79 64.2064 8.77047C63.3644 9.67855 62.9214 10.8963 62.9793 12.1437C62.9793 15.6669 66.1205 16.4665 67.6666 16.8413H67.7893C69.409 17.2911 71.6177 17.8908 71.6177 20.6144C71.6177 22.7257 69.9367 24.4374 67.863 24.4374C65.7893 24.4374 64.1082 22.7257 64.1082 20.6144V20.2395H62.6357V20.7393C62.69 23.6925 65.0852 26.0418 67.9857 25.9866C70.8861 25.9314 73.1935 23.4926 73.1392 20.5394C73.1603 18.0144 71.3281 15.8701 68.8691 15.542" fill="#5D4236"/>
<path fill-rule="evenodd" clip-rule="evenodd" d="M81.115 15.6419H80.9432C78.4891 14.9923 76.7222 14.3676 76.7467 12.0688C76.7314 11.1562 77.0909 10.2786 77.7386 9.64759C78.3862 9.01661 79.2632 8.68961 80.1579 8.74548C80.9824 8.69788 81.7913 8.98802 82.4044 9.55126C83.0175 10.1145 83.3839 10.904 83.4219 11.7439V12.0688H84.8943V11.594C84.6873 9.11799 82.6223 7.2344 80.1825 7.29623C78.7967 7.26719 77.4559 7.79711 76.4522 8.77046C75.6103 9.67854 75.1673 10.8963 75.2252 12.1437C75.2252 15.6669 78.3664 16.4665 79.9125 16.8413C81.5322 17.2911 83.7409 17.8908 83.7409 20.6143C83.7409 22.7257 82.0598 24.4374 79.9861 24.4374C77.9124 24.4374 76.2314 22.7257 76.2314 20.6143V20.2895H74.7344V20.7393C74.7886 23.6925 77.1838 26.0418 80.0843 25.9866C82.9848 25.9314 85.2921 23.4926 85.2379 20.5394C85.2589 18.0144 83.4267 15.8701 80.9678 15.542" fill="#5D4236"/>
<path fill-rule="evenodd" clip-rule="evenodd" d="M87.8638 25.4369H97.8519V23.9626H89.3608V17.1911H97.8519V15.7169H89.3608V9.04533H97.8519V7.59608H87.8638V25.4369Z" fill="#5D4236"/>
<path fill-rule="evenodd" clip-rule="evenodd" d="M113.264 7.59608V22.7882L102.392 7.59608H100.772V25.4369H102.269V9.99484L113.288 25.4369H114.761V7.59608H113.264Z" fill="#5D4236"/>
<path fill-rule="evenodd" clip-rule="evenodd" d="M68.3047 79.359L65.6788 73.9368H65.0408V80.2585H65.5807V74.9863L68.1575 80.2585H68.4765L71.0288 74.9863V80.2585H71.5686V73.9368H70.9551L68.3047 79.359Z" fill="#5D4236"/>
<path fill-rule="evenodd" clip-rule="evenodd" d="M74.9308 73.9368L72.2559 80.2585H72.8448L73.7283 78.1596H76.6241L77.5076 80.2585H78.0966L75.4462 73.9368H74.9308ZM73.9001 77.6349L75.1026 74.7114L76.3296 77.6349H73.9001Z" fill="#5D4236"/>
<path fill-rule="evenodd" clip-rule="evenodd" d="M81.7776 73.9368H81.2622L78.6118 80.2585H79.1763L80.0843 78.1596H82.9556L83.8636 80.2585H84.428L81.7776 73.9368ZM80.3051 77.6349L81.5076 74.7114L82.7347 77.6349H80.3051Z" fill="#5D4236"/>
<path fill-rule="evenodd" clip-rule="evenodd" d="M87.0048 76.7603C86.1459 76.5355 85.5324 76.3106 85.5324 75.511C85.5317 75.1927 85.6607 74.8884 85.8886 74.6705C86.1165 74.4527 86.4229 74.3408 86.7349 74.3616C87.0271 74.3337 87.3175 74.4311 87.5364 74.6302C87.7552 74.8293 87.8827 75.1123 87.8883 75.411V75.536H88.4282V75.3611C88.3632 74.4759 87.6311 73.7962 86.7594 73.8119C86.2624 73.8027 85.7834 74.0014 85.4342 74.3616C85.1404 74.6783 84.9816 75.1005 84.9925 75.536C84.9925 76.8103 86.1213 77.0852 86.7103 77.2351C87.2993 77.385 88.0601 77.5849 88.0601 78.5594C88.0601 79.3046 87.4667 79.9087 86.7349 79.9087C86.003 79.9087 85.4096 79.3046 85.4096 78.5594V78.4345H84.8943V78.5844C84.8943 79.6332 85.7293 80.4834 86.7594 80.4834C87.7895 80.4834 88.6245 79.6332 88.6245 78.5844C88.5948 77.6736 87.9178 76.9207 87.0293 76.8103" fill="#5D4236"/>
<path fill-rule="evenodd" clip-rule="evenodd" d="M89.0171 74.4615H90.6368V80.2585H91.1767V74.4615H92.7718V73.9368H89.0171V74.4615Z" fill="#5D4236"/>
<path fill-rule="evenodd" clip-rule="evenodd" d="M97.312 77.2601C97.5806 76.8724 97.7262 76.4102 97.7292 75.9358C97.742 75.233 97.3868 74.5763 96.7967 74.2117C96.2815 73.9756 95.7147 73.8809 95.1524 73.9368H93.5327V80.2585H94.0726V74.4615H95.0542C95.5321 74.3949 96.0186 74.4731 96.4531 74.6864C96.8501 74.9747 97.0874 75.4393 97.0911 75.9358C97.1104 76.3776 96.9403 76.8061 96.6249 77.1102C96.2151 77.3942 95.7185 77.5184 95.226 77.46H94.7598L96.6985 80.2585H97.3856L95.9868 77.9597C96.5456 77.9801 97.0783 77.7183 97.4102 77.2601" fill="#5D4236"/>
<path fill-rule="evenodd" clip-rule="evenodd" d="M98.6863 80.2585H99.2262V73.9368H98.6863V80.2585Z" fill="#5D4236"/>
<path fill-rule="evenodd" clip-rule="evenodd" d="M103.349 74.3616C104.216 74.3653 105.029 74.7929 105.533 75.511H106.171L106.024 75.2611C105.409 74.3731 104.416 73.8353 103.349 73.8119C101.574 73.8119 100.134 75.2774 100.134 77.0852C100.134 78.893 101.574 80.3585 103.349 80.3585C104.448 80.3616 105.474 79.7971 106.073 78.8593V78.6344H105.46C104.997 79.3864 104.217 79.876 103.349 79.9587C101.964 79.8238 100.907 78.6392 100.907 77.2226C100.907 75.806 101.964 74.6214 103.349 74.4865" fill="#5D4236"/>
<path fill-rule="evenodd" clip-rule="evenodd" d="M110.54 76.8103H107.521V73.9368H106.981V80.2585H107.521V77.3351H110.54V80.2585H111.08V73.9368H110.54V76.8103Z" fill="#5D4236"/>
<path fill-rule="evenodd" clip-rule="evenodd" d="M111.816 73.9368V74.4615H113.435V80.2585H113.975V74.4615H115.57V73.9368H111.816Z" fill="#5D4236"/>
</svg>
